<?xml version="1.0" standalone="no"?>
<!DOCTYPE svg PUBLIC "-//W3C//DTD SVG 20010904//EN"
 "http://www.w3.org/TR/2001/REC-SVG-20010904/DTD/svg10.dtd">
<svg version="1.0" xmlns="http://www.w3.org/2000/svg"
 width="512.000000pt" height="512.000000pt" viewBox="0 0 512.000000 512.000000"
 preserveAspectRatio="xMidYMid meet">

<g transform="translate(0.000000,512.000000) scale(0.100000,-0.100000)"
fill="#000000" stroke="none">
<path d="M1990 4987 c0 -5 -5 -5 -12 -1 -8 5 -9 2 -4 -11 6 -18 6 -18 -15 1
-22 18 -22 18 -15 0 5 -16 4 -17 -9 -6 -12 10 -15 10 -15 -4 0 -10 -5 -14 -10
-11 -6 4 -8 11 -5 16 4 5 1 9 -5 9 -7 0 -10 -7 -6 -15 5 -14 -5 -19 -31 -16
-7 1 -13 -6 -13 -16 0 -15 -2 -16 -10 -3 -5 8 -12 12 -15 9 -3 -4 3 -17 14
-30 19 -23 20 -23 21 -4 0 17 2 17 10 5 9 -13 10 -13 11 0 0 8 5 4 9 -10 7
-23 8 -23 9 -3 1 27 17 38 25 17 3 -8 10 -12 16 -9 5 3 10 1 10 -6 0 -10 3
-10 12 -1 9 9 8 15 -8 27 -13 11 -14 14 -4 13 22 -4 30 -20 24 -48 -4 -24 -4
-24 5 -2 6 12 15 22 21 22 5 0 10 4 10 10 0 5 -7 7 -15 4 -8 -4 -15 -1 -15 5
0 12 11 14 34 5 9 -3 13 -11 10 -16 -4 -6 2 -8 15 -3 12 4 21 2 21 -4 0 -10
-14 -15 -32 -12 -4 0 -5 -6 -2 -14 5 -12 8 -12 22 1 10 11 26 14 46 11 l31 -6
-28 13 c-15 7 -24 15 -21 19 4 4 1 7 -6 7 -7 0 -10 3 -7 7 11 11 -26 31 -50
27 -13 -3 -23 0 -23 6 0 6 3 9 8 6 4 -2 15 2 25 9 17 12 16 13 -7 11 -15 0
-26 -5 -26 -9z"/>
<path d="M2115 4920 c-3 -5 -1 -10 4 -10 6 0 11 5 11 10 0 6 -2 10 -4 10 -3 0
-8 -4 -11 -10z"/>
<path d="M3507 4906 c-6 -14 -15 -17 -38 -14 -20 3 -33 0 -36 -9 -3 -8 -15
-11 -35 -8 -27 5 -28 4 -18 -15 6 -11 7 -20 1 -20 -5 0 -11 7 -15 15 -5 13 -9
12 -26 -5 -11 -11 -26 -17 -35 -14 -8 4 -21 1 -29 -5 -7 -6 -16 -8 -19 -4 -4
3 -7 1 -7 -6 0 -7 -5 -9 -10 -6 -6 4 -9 -7 -8 -28 2 -19 6 -33 10 -31 4 3 17
0 29 -7 22 -11 22 -12 -11 -25 -41 -18 -43 -17 -36 2 3 8 2 12 -4 9 -6 -3 -10
-13 -10 -21 0 -9 -6 -14 -12 -11 -7 2 -22 -3 -32 -12 -18 -15 -19 -15 -13 4 7
20 7 20 -8 1 -17 -22 -20 -40 -6 -32 11 7 22 -20 15 -38 -3 -8 0 -17 7 -22 8
-4 10 -3 5 4 -4 7 -3 12 2 12 14 0 33 -26 25 -34 -4 -4 -1 -11 7 -16 12 -8 12
-10 1 -10 -7 0 -33 -13 -58 -30 -48 -32 -62 -38 -44 -17 8 11 6 13 -12 11 -12
-1 -26 -3 -31 -3 -5 -1 -6 -4 -3 -7 3 -4 2 -16 -4 -27 -11 -19 -12 -18 -30 9
l-19 29 0 -27 c0 -15 5 -30 10 -33 16 -10 11 -23 -7 -20 -10 1 -17 8 -15 14 1
6 -2 11 -6 11 -5 0 -9 7 -9 15 0 8 4 12 9 9 4 -3 8 0 8 5 0 6 -5 11 -11 11 -5
0 -7 5 -3 12 4 6 3 8 -3 5 -13 -8 -11 43 2 64 7 11 6 12 -7 2 -8 -7 -18 -10
-21 -6 -10 10 -8 -6 3 -28 6 -10 8 -19 6 -19 -3 0 -12 14 -21 30 -10 20 -23
30 -38 30 -18 0 -19 2 -7 11 11 7 6 9 -20 6 -19 -2 -27 -2 -17 0 18 4 18 5 0
19 -16 12 -16 15 -3 24 10 6 11 10 3 10 -7 0 -10 7 -7 18 5 13 4 14 -4 3 -8
-11 -15 -5 -31 28 -12 23 -26 39 -31 36 -5 -3 -12 -1 -15 5 -5 8 -12 7 -23 -2
-14 -12 -14 -10 -3 12 11 22 9 22 -13 -5 -30 -35 -28 -39 9 -25 33 12 43 7 25
-15 -7 -8 -23 -13 -35 -11 -29 5 -41 -19 -17 -33 14 -8 14 -11 2 -11 -9 0 -6
-6 10 -16 l25 -15 -25 7 -25 7 20 -24 20 -24 -22 19 c-12 10 -22 21 -21 25 0
3 0 15 -2 26 l-1 20 -9 -20 c-5 -11 -9 -14 -9 -7 -1 7 8 32 20 55 30 61 39 87
31 86 -4 -1 -9 0 -12 1 -29 11 -40 7 -36 -13 3 -12 3 -16 0 -9 -4 9 -9 10 -19
2 -11 -9 -12 -7 -8 11 4 14 2 20 -4 16 -18 -11 -26 -79 -11 -89 10 -8 10 -9
-2 -5 -10 2 -15 17 -16 43 -3 69 -5 70 -24 14 -13 -35 -18 -44 -16 -25 2 17 5
35 7 42 2 6 0 11 -6 11 -5 0 -9 -4 -8 -9 2 -5 -4 -27 -13 -49 -11 -27 -21 -39
-30 -36 -8 3 -14 -1 -14 -10 0 -8 4 -13 8 -10 5 3 9 -1 9 -8 0 -8 -8 -11 -19
-8 -13 3 -17 10 -12 21 4 9 12 30 18 46 6 17 19 43 29 59 10 15 16 30 13 34
-3 3 -6 -1 -6 -9 0 -11 -2 -11 -10 1 -7 12 -10 8 -10 -15 0 -22 -3 -26 -9 -16
-5 8 -7 21 -4 30 4 13 3 13 -5 2 -6 -8 -8 -21 -4 -29 3 -10 1 -13 -6 -8 -7 4
-12 1 -12 -9 0 -11 -5 -15 -15 -11 -9 3 -15 0 -15 -9 0 -8 -5 -15 -10 -15 -7
0 -7 6 0 19 14 28 13 29 -17 24 -21 -3 -24 -2 -13 6 8 5 17 8 21 5 4 -2 9 2
12 8 3 8 9 3 14 -11 10 -24 10 -24 15 -3 4 12 1 22 -4 22 -6 0 -4 7 3 17 13
15 12 15 -11 3 -14 -7 -38 -22 -54 -33 -23 -17 -32 -18 -48 -8 -10 6 -23 9
-28 6 -5 -3 -23 8 -42 25 -18 17 -40 29 -50 27 -9 -3 -20 2 -23 12 -6 14 -9
13 -25 -6 l-18 -23 -16 23 c-16 22 -17 22 -6 0 13 -28 13 -33 -2 -33 -14 0
-78 -68 -78 -82 0 -5 -5 -6 -12 -2 -6 4 -8 3 -5 -3 4 -6 1 -24 -6 -42 -10 -27
-9 -34 3 -42 13 -9 12 -10 -2 -5 -13 4 -18 0 -18 -13 0 -24 39 -73 40 -51 0
12 3 11 11 -2 13 -23 39 -23 39 -1 0 15 2 15 18 0 15 -13 19 -13 30 -1 8 8 11
23 7 32 -5 13 -2 12 12 -4 25 -28 45 -64 36 -64 -5 0 -21 -17 -37 -38 l-29
-37 35 33 35 33 42 -42 c28 -29 41 -37 41 -25 0 9 7 19 16 23 8 3 13 11 10 18
-3 8 4 11 19 9 17 -1 22 2 18 12 -3 8 -1 14 4 14 4 0 26 16 48 35 22 19 34 35
27 35 -7 0 -10 5 -7 10 3 6 2 10 -4 10 -6 0 -8 6 -5 14 3 7 -2 20 -10 29 -20
20 -20 27 0 27 9 0 12 -5 8 -11 -4 -7 -1 -10 7 -7 8 3 13 11 12 17 -2 6 3 11
10 12 6 0 3 5 -8 10 -18 9 -18 9 3 5 16 -3 22 -1 19 8 -3 7 1 13 8 13 10 0 9
-9 -5 -38 -11 -20 -25 -40 -32 -43 -7 -4 -3 -4 9 -2 17 3 20 0 15 -13 -5 -14
-3 -14 10 -3 11 9 18 10 23 2 3 -6 10 -8 15 -5 9 6 64 -11 100 -30 14 -7 29
-12 34 -12 5 1 11 -15 13 -35 3 -33 1 -38 -17 -38 -11 0 -21 -7 -21 -15 -3
-28 -4 -33 -11 -40 -4 -4 -5 5 -3 21 4 25 2 24 -15 -11 -18 -38 -19 -38 -16
-10 2 17 1 24 -1 18 -2 -7 -8 -13 -13 -13 -9 0 -22 -33 -25 -62 -2 -22 -15
-37 -15 -18 0 9 -7 7 -22 -6 -14 -12 -18 -13 -10 -3 10 13 9 19 -6 32 -17 16
-20 15 -41 -7 -17 -18 -19 -26 -10 -32 7 -4 20 2 32 17 l20 24 -8 -25 c-13
-43 -25 -53 -45 -35 -12 11 -20 13 -25 6 -8 -13 -15 -14 -35 -1 -12 7 -11 12
5 32 l20 23 -24 -20 c-18 -15 -25 -17 -29 -7 -3 10 -8 7 -19 -8 -14 -20 -16
-20 -27 -4 -11 14 -14 14 -18 2 -5 -11 -18 -13 -64 -7 -33 4 -67 8 -76 8 -12
1 -16 7 -12 19 4 12 3 13 -3 4 -7 -9 -42 -14 -115 -15 l-106 -2 40 26 c37 25
38 27 16 33 -13 3 -35 6 -50 6 -28 0 -31 5 -41 70 -3 14 -5 4 -6 -22 0 -27 -6
-48 -12 -48 -5 0 -8 -4 -5 -9 3 -4 -6 -19 -19 -31 -14 -13 -25 -19 -25 -14 0
5 -5 2 -10 -6 -8 -13 -10 -13 -10 -1 0 11 -3 10 -13 -3 -12 -17 -15 -17 -29
-3 -9 9 -18 14 -21 11 -14 -14 -29 43 -24 87 11 87 73 175 155 218 20 11 32
20 26 21 -19 0 -103 -61 -133 -97 -31 -37 -71 -145 -71 -190 l0 -27 -32 30
c-18 16 -25 20 -15 8 9 -11 17 -33 17 -49 l0 -29 -32 30 c-20 19 -29 23 -25
12 4 -10 10 -26 14 -35 6 -16 4 -16 -16 1 -29 26 -27 93 3 88 11 -2 15 1 11 7
-3 6 -13 11 -21 11 -17 0 -17 -1 1 72 32 121 105 231 194 291 14 9 23 19 20
22 -3 2 -38 -25 -77 -61 -56 -51 -80 -82 -106 -137 -62 -130 -78 -277 -38
-334 25 -38 37 -63 18 -39 -9 11 -16 16 -16 12 0 -5 -11 -1 -25 8 -28 18 -39
21 -30 6 3 -5 -12 -13 -36 -16 -35 -6 -53 -19 -111 -80 -39 -41 -75 -71 -79
-68 -5 3 -7 9 -4 14 3 5 1 11 -4 15 -6 3 -8 -3 -6 -14 4 -22 -19 -46 -35 -36
-5 3 -10 -1 -10 -10 0 -12 6 -15 21 -10 15 5 19 4 14 -5 -4 -6 -16 -9 -27 -7
-11 3 -23 -2 -30 -13 -11 -17 -14 -17 -45 -2 -23 11 -29 18 -21 24 8 5 3 6
-12 3 -14 -3 -54 1 -90 9 -82 20 -148 20 -246 1 -159 -30 -277 -114 -335 -239
-39 -83 -49 -185 -25 -256 28 -85 43 -121 54 -132 19 -19 14 -26 -21 -33 -109
-24 -196 -123 -241 -274 -22 -76 -20 -154 8 -236 14 -38 24 -71 23 -71 -1 -1
-29 7 -63 17 -77 24 -124 55 -147 99 -19 35 -19 35 -13 5 10 -44 59 -81 148
-111 65 -21 78 -29 79 -47 0 -12 3 -16 6 -9 11 27 30 9 51 -50 17 -47 20 -63
10 -69 -9 -6 -8 -10 5 -15 12 -4 14 -10 8 -18 -6 -7 -6 -17 -1 -26 8 -12 10
-11 10 5 0 17 3 15 21 -10 23 -33 23 -33 -27 100 -19 50 -34 91 -34 93 0 4
101 -8 120 -14 13 -5 13 -6 0 -14 -9 -6 -10 -10 -3 -10 6 0 15 5 18 10 4 6 11
8 16 4 5 -3 6 -10 3 -16 -5 -7 -2 -9 8 -5 9 3 20 1 25 -4 7 -7 13 -4 17 8 4 9
4 14 0 11 -8 -9 -46 10 -40 20 2 4 -3 8 -12 9 -51 3 -177 24 -182 31 -20 23
-53 125 -58 177 -12 158 88 337 216 385 29 11 57 20 62 20 12 0 73 -89 73
-106 0 -7 4 -11 8 -9 3 3 12 -2 19 -10 7 -8 8 -15 3 -15 -6 0 -26 -15 -45 -34
-39 -38 -48 -37 -49 3 -1 26 -1 26 -9 -3 -10 -31 -5 -50 11 -41 5 4 9 1 9 -6
0 -7 -9 -9 -22 -6 -22 6 -22 5 -4 -8 18 -13 21 -12 37 14 10 16 29 37 43 47
66 48 70 52 58 79 -6 14 -10 25 -8 25 4 0 46 -68 46 -75 0 -2 -16 -9 -36 -15
-31 -10 -74 -58 -74 -82 0 -8 21 -5 39 6 9 6 12 5 9 -5 -4 -13 -18 -17 -83
-20 -16 -1 -34 -4 -40 -8 -5 -3 -14 -6 -20 -6 -11 0 -25 -73 -15 -77 12 -5 63
-131 62 -155 0 -13 6 -23 14 -23 14 0 39 -38 30 -47 -3 -3 3 -18 14 -34 22
-30 10 -44 -24 -26 -18 9 -18 7 2 -17 12 -16 18 -34 15 -44 -11 -30 -36 -53
-52 -47 -8 3 -12 3 -9 -1 4 -4 3 -14 -2 -23 -7 -14 -3 -17 18 -16 36 0 42 -31
7 -37 -14 -3 -25 -1 -25 5 0 6 -6 2 -14 -8 -13 -18 -13 -18 -24 1 -6 10 -12
15 -12 9 0 -5 -13 -25 -29 -44 -36 -42 -52 -94 -44 -150 4 -31 2 -45 -8 -52
-9 -6 -10 -9 -2 -9 13 0 8 -47 -7 -65 -11 -13 -34 -72 -24 -62 4 3 12 16 18
29 14 27 36 35 36 13 0 -9 10 -26 21 -38 21 -21 21 -21 11 -1 -8 15 -8 24 1
33 9 10 8 11 -7 5 -13 -5 -17 -4 -12 4 7 12 75 7 90 -8 5 -5 -5 -13 -25 -18
-21 -6 -26 -11 -14 -11 15 -1 17 -3 6 -10 -11 -7 -10 -11 5 -20 15 -8 16 -11
4 -12 -8 -1 -18 -1 -22 0 -4 0 -5 -6 -1 -14 4 -11 9 -13 18 -5 9 8 14 6 19 -5
4 -10 2 -14 -5 -9 -7 4 -10 1 -7 -7 3 -8 11 -13 17 -11 7 1 10 -2 7 -7 -4 -5
-2 -13 4 -16 6 -4 8 -16 5 -28 -6 -21 -6 -21 9 -3 12 14 13 23 5 33 -15 17 1
16 24 -1 17 -13 25 -32 9 -22 -4 2 -8 -4 -9 -14 -3 -32 15 -33 22 -2 5 24 10
29 33 26 14 -1 32 2 39 8 7 6 13 8 13 5 0 -3 -27 -27 -60 -52 -33 -25 -60 -42
-60 -37 0 6 -7 13 -16 16 -14 5 -15 4 -4 -9 10 -12 10 -19 2 -27 -7 -7 -12 -8
-12 -2 0 6 -7 19 -16 30 -15 18 -15 18 -5 -3 15 -29 14 -31 -11 -28 -13 1 -30
3 -39 4 -27 2 -51 25 -43 44 3 9 10 15 14 12 5 -3 11 -1 15 5 3 5 -2 10 -12
10 -27 0 -80 36 -88 59 -3 11 -1 30 5 41 7 12 9 24 6 27 -3 3 -9 -5 -14 -18
-19 -49 -24 -71 -16 -66 5 3 26 -9 47 -27 28 -23 36 -37 31 -50 -5 -13 -14
-16 -33 -12 l-26 5 28 -12 c16 -6 27 -19 28 -31 1 -18 2 -18 6 -3 4 15 11 17
36 12 18 -4 44 -13 59 -20 22 -10 29 -10 40 1 7 8 26 15 41 16 16 1 33 8 39
15 9 11 13 9 23 -9 10 -18 9 -27 -2 -46 -12 -19 -11 -22 2 -22 13 0 13 -3 3
-19 -8 -13 -16 -17 -23 -11 -8 7 -12 1 -12 -20 0 -17 -9 -44 -21 -60 -12 -16
-22 -35 -22 -43 0 -7 -6 -19 -12 -26 -11 -12 -9 -13 7 -6 34 13 77 16 70 5 -4
-6 -12 -9 -18 -8 -18 3 -58 -22 -52 -33 4 -5 -3 -9 -14 -9 -16 0 -20 -5 -17
-22 2 -13 0 -32 -4 -43 -5 -13 -2 -25 6 -33 8 -7 14 -8 14 -3 0 19 40 2 73
-31 31 -32 58 -76 38 -63 -5 3 -12 1 -16 -5 -3 -5 1 -10 9 -10 23 0 29 -20 12
-39 -19 -20 -21 -52 -4 -48 13 2 16 -42 4 -61 -4 -8 -6 -14 -5 -15 35 -18 45
-28 47 -47 2 -12 -1 -27 -7 -33 -8 -8 -11 -8 -11 1 0 7 -4 12 -10 12 -5 0 -7
-7 -3 -16 3 -8 11 -13 19 -10 7 3 27 -8 45 -24 34 -29 62 -30 51 -2 -5 15 -3
15 11 4 9 -8 21 -11 27 -7 5 3 10 0 10 -7 0 -10 3 -9 10 2 8 12 10 12 16 -3 3
-9 10 -15 14 -12 5 3 6 -5 3 -17 -4 -19 -3 -20 6 -8 13 18 15 1 2 -19 -6 -10
-13 -10 -28 -2 -11 5 -23 7 -27 4 -4 -4 -9 3 -13 15 -3 12 -12 22 -20 22 -12
0 -12 -2 1 -16 21 -21 21 -40 0 -23 -42 35 73 -124 132 -181 58 -58 64 -67 50
-79 -9 -7 -24 -10 -33 -7 -10 3 11 -21 47 -53 36 -33 65 -64 65 -69 0 -6 4
-14 9 -19 5 -5 6 -2 1 5 -4 8 12 -6 36 -30 24 -23 64 -58 89 -77 42 -31 42
-30 -10 19 l-55 51 60 -46 c33 -26 90 -70 128 -97 37 -28 65 -53 63 -56 -3 -2
-35 19 -72 48 -37 29 -64 47 -60 41 4 -6 44 -39 89 -73 45 -34 73 -52 63 -40
-28 32 -12 27 68 -22 39 -25 119 -71 179 -104 78 -44 102 -61 88 -65 -11 -2
-23 -1 -28 4 -4 4 -60 35 -123 69 l-115 60 45 -40 c24 -22 49 -40 55 -41 5 0
1 -4 -10 -9 -17 -7 -16 -9 10 -10 17 -2 23 -4 13 -7 -16 -4 -16 -6 3 -26 11
-12 15 -23 9 -25 -30 -10 1 -31 59 -38 20 -3 41 -14 53 -29 22 -28 38 -32 38
-10 0 8 6 12 15 9 24 -10 38 6 18 22 -11 8 -13 13 -5 14 6 0 12 5 12 11 0 5
-5 7 -12 3 -8 -5 -9 -2 -5 10 4 10 7 20 7 22 0 2 4 4 10 4 5 0 7 -6 4 -14 -3
-8 3 -16 16 -19 18 -4 19 -3 9 9 -10 12 -9 13 4 8 9 -3 24 -26 34 -50 10 -24
24 -44 31 -44 15 0 15 12 0 45 -6 14 -9 27 -6 30 2 3 41 -9 87 -25 79 -29 304
-80 352 -80 13 0 30 -9 36 -19 7 -11 25 -21 40 -23 19 -2 32 -12 42 -33 8 -16
20 -34 28 -38 7 -4 13 -13 13 -19 0 -7 10 -27 23 -45 20 -31 26 -33 78 -33 46
0 59 4 79 24 12 14 20 32 17 40 -3 8 -2 16 3 18 5 2 11 15 14 30 7 42 13 47
76 60 33 7 60 17 60 24 0 7 22 15 53 19 82 11 255 51 336 79 l74 26 -7 -41
c-5 -30 -3 -40 6 -37 7 3 15 13 18 24 3 10 12 19 20 19 9 0 15 9 14 22 0 13 4
19 10 15 6 -3 19 -5 30 -3 21 3 18 -21 -5 -27 -11 -3 -11 -1 1 8 12 9 12 11 1
8 -27 -8 -22 -26 14 -47 39 -23 65 -27 65 -10 0 5 -4 7 -10 4 -20 -12 -9 5 24
40 38 39 52 45 36 15 -9 -17 -8 -20 7 -17 10 1 24 6 31 10 6 5 16 6 21 2 18
-11 21 14 4 31 -17 17 -17 18 0 11 13 -5 17 -2 15 10 -2 12 6 19 27 23 30 6
30 6 6 14 -21 7 -22 10 -8 18 10 5 17 16 17 25 0 8 6 13 13 10 12 -5 43 30 35
39 -5 4 -154 -72 -189 -97 -33 -23 -79 -41 -79 -30 0 4 77 51 170 104 94 54
227 138 296 187 69 50 128 90 131 90 3 0 -1 -8 -8 -17 -8 -10 41 36 108 101
l122 120 -35 12 c-47 16 -50 20 -25 36 12 7 21 20 21 28 0 8 8 20 18 27 19 11
58 81 54 95 -1 5 2 8 8 8 5 0 16 14 25 30 17 33 11 38 -17 13 -10 -9 -18 -11
-18 -5 0 7 -14 10 -35 8 -19 -1 -36 2 -38 8 -2 7 -11 5 -22 -4 -14 -11 -17
-11 -11 -1 11 17 -15 35 -26 18 -5 -8 -8 -6 -8 6 0 10 -4 15 -10 12 -5 -3 -10
1 -10 9 0 20 -19 20 -48 0 -13 -9 -22 -11 -22 -4 0 6 -4 9 -9 6 -11 -7 -21 17
-13 31 7 11 33 17 60 14 7 0 10 -5 7 -11 -3 -5 -2 -10 3 -10 6 0 13 7 16 15 5
13 9 14 28 3 13 -7 26 -11 31 -10 4 1 7 -9 7 -23 0 -29 23 -33 66 -10 16 8 36
15 44 15 8 0 32 5 53 11 27 7 37 15 33 25 -6 16 2 18 22 6 9 -7 5 -17 -18 -43
-16 -19 -49 -70 -71 -114 -23 -44 -51 -93 -62 -109 l-20 -28 22 11 c26 14 77
78 151 188 30 45 60 83 65 83 6 0 20 9 33 20 26 21 22 40 -9 40 -25 0 -24 9 7
45 17 19 28 26 31 18 7 -20 37 -15 51 8 13 21 13 21 -31 15 -53 -8 -69 5 -29
24 l27 13 -30 13 c-16 7 -23 13 -14 14 9 0 19 7 22 14 4 10 1 13 -9 9 -20 -7
-18 3 9 41 14 22 29 32 42 30 18 -2 18 -1 4 9 -15 12 -15 14 2 36 11 13 19 20
19 16 0 -4 6 -3 13 3 10 9 19 7 36 -4 32 -23 38 -9 12 26 -12 17 -18 30 -13
30 4 0 16 14 26 31 15 25 16 33 6 42 -10 9 -11 9 -6 -1 8 -13 -10 -42 -25 -42
-18 0 2 159 19 161 4 0 29 1 55 2 29 2 52 9 57 17 12 19 2 28 -11 10 -9 -13
-10 -13 -6 0 2 8 12 17 23 19 10 2 22 8 25 14 9 14 57 -35 74 -76 49 -117 8
-291 -94 -401 -42 -46 -43 -48 -10 -23 53 40 100 102 93 124 -5 15 -4 15 5 3
8 -12 16 -2 38 45 24 51 28 73 28 145 0 68 -5 93 -22 127 -13 23 -27 44 -33
48 -5 3 3 -18 18 -47 36 -70 38 -187 4 -262 -27 -59 -38 -57 -17 3 37 105 28
201 -26 286 -25 39 -27 46 -12 44 31 -4 93 29 87 46 -4 10 -2 13 8 10 23 -9
44 21 28 40 -9 10 -9 15 -1 15 6 0 11 7 11 16 0 8 4 13 8 10 4 -2 14 0 22 6
12 8 12 9 -2 4 -13 -4 -18 0 -18 13 0 11 6 22 13 24 8 4 8 6 -2 6 -11 1 -10 5
5 17 13 11 15 17 7 20 -19 8 -16 31 5 43 10 6 12 11 4 11 -10 0 -10 5 2 22 20
28 20 39 1 32 -8 -4 -15 -1 -15 6 0 6 -4 8 -10 5 -5 -3 -10 0 -10 8 0 8 -9 25
-20 38 -18 23 -19 23 -20 4 0 -17 -14 -8 -71 45 -56 52 -69 69 -63 85 6 16 2
14 -28 -8 -56 -43 -77 -31 -48 29 11 25 22 33 40 34 14 0 41 14 60 31 19 17
28 29 19 26 -14 -5 -16 1 -15 26 2 18 -2 35 -8 39 -8 5 -7 8 2 8 18 0 15 20
-5 37 -17 14 -17 14 1 9 13 -5 17 -2 13 9 -4 8 -2 17 4 21 6 4 5 12 -3 22 -11
13 -11 14 1 7 10 -6 12 -4 6 5 -11 19 -15 71 -4 64 13 -8 11 10 -3 25 -11 10
-9 15 5 26 14 10 17 20 12 37 -10 32 -25 49 -38 41 -6 -3 -7 -1 -3 5 3 6 -4
20 -16 32 -22 20 -22 21 -4 53 l17 32 -21 -27 c-26 -34 -29 -34 -60 -5 -14 13
-46 36 -73 51 -26 15 -45 31 -43 35 3 4 -9 5 -27 3 -31 -5 -32 -4 -14 15 9 11
17 23 17 28 0 5 -6 0 -14 -11 -17 -22 -26 -16 -30 20 -2 15 -8 32 -14 38 -8 8
-4 16 13 30 14 11 29 17 35 13 5 -3 7 0 4 9 -4 10 0 14 15 13 20 -1 31 -27 12
-27 -5 0 -11 -6 -14 -13 -3 -8 1 -14 9 -14 7 0 11 4 8 9 -3 4 1 5 9 2 10 -4
15 -19 13 -50 -1 -38 1 -42 12 -27 6 9 12 22 12 29 0 7 9 12 19 11 11 0 19 -4
19 -7 -2 -18 4 -21 17 -10 8 7 15 21 15 31 0 11 4 19 10 19 5 0 7 -7 3 -16 -5
-14 -3 -15 16 -4 18 9 26 9 39 -2 15 -12 16 -11 3 4 -8 11 -10 25 -6 35 5 10
8 21 7 25 -1 4 5 5 13 2 10 -4 15 0 15 12 0 11 7 27 15 38 11 14 11 22 2 38
-9 16 -9 22 1 25 19 7 14 24 -5 21 -13 -2 -17 3 -16 19 2 15 -2 21 -11 17 -17
-6 -28 33 -16 56 5 8 49 53 100 99 98 90 125 129 116 167 -15 59 -136 88 -247
60 -35 -9 -125 -46 -199 -83 -74 -37 -138 -69 -142 -71 -4 -2 4 23 19 55 35
76 44 204 19 249 -10 16 -14 20 -9 9 4 -11 8 -60 7 -110 0 -73 -4 -98 -23
-135 -28 -54 -51 -81 -62 -74 -5 3 -6 -2 -3 -10 3 -9 2 -16 -4 -16 -6 0 -25
-16 -43 -35 -49 -51 -58 -43 -14 13 l38 47 -43 -43 c-23 -23 -46 -39 -52 -36
-6 4 -8 2 -5 -3 4 -6 1 -16 -6 -22 -21 -17 -97 -41 -97 -31 0 6 4 10 8 10 5 0
30 21 55 46 58 56 75 105 57 160 -11 32 -11 39 1 43 8 2 36 27 64 54 l50 50
-52 -46 c-59 -53 -80 -57 -107 -21 -18 26 -18 26 15 62 l34 37 -40 -37 -40
-36 -40 34 c-49 44 -131 95 -139 87 -3 -3 -12 0 -20 6 -10 8 -16 9 -21 1 -3
-5 1 -10 10 -10 9 0 13 -5 10 -10 -4 -6 -11 -7 -17 -4 -6 4 -8 2 -5 -3 4 -6
-2 -18 -13 -28 -19 -18 -20 -17 -20 4 0 14 4 20 12 15 7 -4 8 -3 4 4 -14 24
-33 12 -31 -18 1 -21 -4 -34 -16 -41 -19 -10 -19 -7 -3 55 5 21 4 27 -4 22 -7
-4 -20 -2 -29 4 -14 9 -14 10 -2 7 19 -6 44 8 44 24 0 7 6 14 13 17 7 2 10 -2
6 -11 -3 -8 0 -18 6 -22 6 -4 11 -1 9 6 -4 32 3 41 44 59 43 20 83 25 112 14
14 -6 14 -8 -2 -26 -16 -18 -13 -17 22 3 22 13 41 26 43 30 1 3 21 3 43 -1 87
-16 196 -152 200 -250 l2 -45 4 43 c7 78 -79 206 -169 251 -24 12 -33 21 -25
24 8 3 20 1 28 -4 16 -10 61 -1 71 15 5 7 8 6 8 -3 0 -9 8 -12 25 -9 14 3 25
1 25 -6 0 -7 3 -6 8 2 5 7 16 10 25 6 9 -3 17 -2 17 3 0 6 -15 15 -32 20 l-33
10 63 20 c35 11 62 24 61 29 -1 5 15 19 35 30 21 12 47 31 58 42 17 16 9 15
-37 -9 -59 -30 -99 -36 -124 -20 -12 8 -12 12 -2 25 10 12 8 15 -16 18 -27 3
-27 4 17 27 25 13 49 29 55 36 5 7 28 24 50 39 22 14 36 26 32 26 -4 0 -19 -7
-32 -16 -30 -20 -95 -35 -95 -23 0 5 4 9 9 9 5 0 14 14 20 31 14 41 14 44 -2
31 -23 -19 -40 3 -40 52 l0 46 -20 -32 -19 -32 -19 34 c-10 19 -19 44 -20 55
0 11 -5 4 -11 -17 -6 -21 -14 -38 -18 -38 -4 0 -11 -10 -14 -22 -6 -21 -8 -20
-23 15 -11 28 -20 36 -31 32 -9 -3 -13 -3 -10 1 4 4 3 15 -3 26 -8 15 -13 17
-25 7 -8 -6 -14 -21 -14 -34 0 -12 -3 -25 -7 -29 -4 -4 -7 -24 -6 -44 1 -24
-1 -28 -4 -12 -5 25 -69 100 -86 100 -5 0 -6 -14 -2 -32 15 -63 11 -206 -5
-222 -9 -9 -51 -20 -95 -27 -44 -6 -107 -21 -141 -35 -33 -13 -66 -24 -72 -24
-15 0 -27 25 -42 88 -7 29 -14 51 -16 49 -5 -4 10 -81 21 -108 4 -11 -9 -20
-48 -32 -30 -9 -63 -17 -75 -17 -13 0 -22 -6 -22 -15 0 -8 5 -15 11 -15 5 0 8
4 5 8 -2 4 6 9 20 10 13 1 40 9 60 17 53 22 62 19 74 -25 15 -57 11 -158 -7
-156 -7 1 -12 6 -11 12 2 5 6 8 10 7 5 -2 8 12 8 30 0 24 -3 28 -10 17 -8 -12
-10 -11 -10 5 0 35 -26 62 -60 63 -17 0 -37 6 -45 12 -8 7 -15 7 -19 1 -3 -5
7 -12 24 -16 17 -4 34 -15 40 -25 7 -14 -3 -11 -55 14 -35 17 -65 35 -65 39 0
5 6 5 13 1 10 -6 10 -4 0 7 -7 7 -13 21 -13 30 0 14 7 16 40 12 22 -3 40 -2
40 3 0 5 -14 9 -32 9 -39 0 -49 22 -13 31 25 6 52 40 41 52 -3 3 -6 0 -6 -6 0
-11 -56 -52 -72 -52 -3 0 -1 16 5 35 9 31 8 39 -10 63 -11 15 -31 28 -44 29
l-24 3 25 -11 c18 -7 21 -12 11 -18 -9 -6 -10 -11 -2 -15 15 -9 14 -49 -1 -64
-15 -15 -32 -16 -22 -1 3 6 -5 3 -20 -6 l-26 -17 0 29 c0 18 10 41 25 57 13
14 20 26 15 26 -15 0 -62 -68 -55 -79 3 -6 -1 -23 -9 -38 -8 -16 -15 -22 -16
-15 0 7 -5 10 -10 7 -6 -4 -8 -11 -5 -16 3 -5 -1 -6 -9 -3 -13 5 -13 9 1 32
14 23 11 21 -23 -9 -21 -20 -50 -42 -64 -49 l-25 -13 26 29 c27 29 75 119 58
108 -13 -8 -10 8 5 29 15 19 31 23 20 5 -4 -7 5 -2 19 11 15 13 24 27 22 31
-9 15 56 32 98 27 l42 -6 -33 15 c-26 11 -42 12 -72 4 -49 -13 -92 -35 -83
-43 3 -4 -2 -9 -11 -13 -9 -3 -14 -10 -11 -14 3 -4 -3 -14 -12 -21 -15 -12
-16 -12 -8 1 6 8 10 18 10 22 0 20 53 72 88 89 51 23 90 24 148 4 39 -13 42
-13 25 0 -49 38 -144 31 -218 -14 -27 -17 -51 -31 -54 -31 -2 0 -4 10 -4 23 0
32 -37 87 -57 86 -15 0 -14 -2 5 -11 28 -14 51 -82 35 -106 -16 -27 -76 -64
-95 -58 -10 2 -16 0 -13 -4 3 -5 -2 -7 -10 -6 -9 1 -15 5 -15 9 0 4 0 16 0 27
0 12 10 25 25 32 13 6 22 15 19 19 -3 5 2 6 11 3 11 -5 13 -10 5 -19 -10 -12
-4 -25 13 -25 6 0 8 3 5 6 -4 3 0 17 8 32 13 25 12 28 -6 36 -11 5 -20 13 -20
18 0 5 -5 6 -10 3 -15 -9 -51 5 -44 17 4 5 17 8 29 6 20 -4 23 -1 20 24 -4 26
-2 28 33 28 20 0 52 9 70 20 38 24 62 26 62 6 0 -20 17 -29 26 -15 4 8 3 9 -4
5 -22 -14 -12 25 13 49 32 33 55 32 25 0 -13 -14 -20 -28 -17 -32 4 -3 7 -1 7
5 0 18 77 65 95 58 8 -3 15 -1 15 4 0 6 5 10 10 10 7 0 7 -6 0 -20 -11 -20 3
-30 15 -10 4 7 12 7 25 0 24 -13 40 -13 20 0 -8 5 -10 10 -4 10 6 0 19 -11 30
-25 13 -17 21 -21 31 -14 16 14 36 1 30 -20 -3 -14 1 -17 17 -14 13 3 28 -3
37 -13 9 -11 9 -15 2 -10 -7 4 -13 2 -13 -3 0 -6 6 -11 14 -11 8 0 17 -7 20
-16 3 -8 2 -13 -3 -10 -17 11 -30 -18 -15 -32 12 -11 14 -10 14 3 0 9 5 13 10
10 18 -11 11 -84 -15 -147 -30 -73 -31 -87 -5 -36 16 29 28 39 55 44 28 5 39
15 60 51 29 53 31 63 10 63 -22 0 -19 9 11 32 17 14 23 26 19 37 -4 9 -8 23
-10 31 -2 8 -4 16 -5 18 -2 1 -4 7 -5 12 -1 6 -4 13 -5 18 -1 4 -2 10 -1 15 0
4 -4 7 -11 7 -9 0 -9 3 0 12 20 20 13 30 -17 26 -27 -4 -29 -2 -19 15 9 18 7
19 -33 12 -40 -7 -42 -6 -30 9 8 10 9 16 3 16 -6 0 -9 7 -6 15 7 16 -7 20 -63
16 -33 -3 -41 6 -24 25 14 15 25 58 13 50 -14 -8 -105 14 -114 28 -4 7 -14 6
-31 -1 -21 -10 -26 -9 -34 10 -9 19 -10 19 -16 3z m140 -52 c-3 -3 -12 -4 -19
-1 -8 3 -5 6 6 6 11 1 17 -2 13 -5z m-954 -91 c-11 -15 -24 -38 -27 -51 -4
-12 -12 -20 -17 -17 -9 6 5 37 35 72 10 12 15 27 11 35 -6 10 -5 10 5 1 10 -9
9 -17 -7 -40z m-261 0 c-5 -10 -12 -25 -16 -33 -3 -8 -4 -3 -2 12 1 15 -2 29
-8 32 -6 2 -1 5 12 5 18 1 21 -2 14 -16z m218 -8 c-7 -9 -15 -13 -17 -11 -7 7
7 26 19 26 6 0 6 -6 -2 -15z m178 -77 c10 -12 11 -18 3 -18 -7 0 -9 -5 -5 -12
4 -6 3 -8 -4 -4 -6 3 -13 2 -17 -4 -3 -5 -1 -10 4 -10 13 0 15 -37 2 -44 -5
-4 -7 2 -4 13 3 10 -1 22 -8 27 -9 5 -11 2 -6 -9 4 -11 2 -14 -9 -10 -8 3 -12
8 -10 11 3 3 -2 11 -12 19 -16 13 -16 14 2 5 13 -7 24 -5 37 7 27 23 23 34 -5
16 -18 -12 -26 -13 -32 -4 -4 8 -3 9 4 5 7 -4 12 -2 12 3 0 6 7 11 16 11 8 0
12 5 9 10 -4 6 -10 8 -15 5 -14 -8 -22 13 -14 37 6 21 7 21 22 -8 8 -16 21
-37 30 -46z m-78 12 c18 -12 2 -12 -25 0 -13 6 -15 9 -5 9 8 0 22 -4 30 -9z
m-575 -30 c-3 -5 -12 -10 -18 -10 -7 0 -6 4 3 10 19 12 23 12 15 0z m1220 -9
c-3 -6 -11 -8 -17 -5 -6 4 -5 9 3 15 16 10 23 4 14 -10z m-1178 -13 c-3 -8 -6
-5 -6 6 -1 11 2 17 5 13 3 -3 4 -12 1 -19z m418 12 c-3 -5 -1 -10 6 -10 7 0
10 -3 6 -6 -9 -9 -28 6 -22 17 4 5 8 9 11 9 3 0 2 -4 -1 -10z m-404 -33 c-10
-9 -11 -8 -5 6 3 10 9 15 12 12 3 -3 0 -11 -7 -18z m634 -37 c-3 -5 3 -10 15
-10 34 0 81 -53 78 -89 -1 -17 -5 -31 -9 -31 -3 0 -11 -12 -18 -26 -9 -20 -15
-23 -25 -15 -7 6 -15 9 -18 6 -3 -3 -11 1 -17 9 -9 11 -9 16 0 22 8 5 9 3 4
-6 -6 -9 -4 -11 5 -5 7 4 16 2 21 -6 7 -11 9 -11 9 -1 0 7 5 10 12 6 6 -4 8
-3 4 4 -3 5 -1 12 6 14 15 5 -72 58 -96 58 -9 0 -14 -5 -11 -10 4 -6 11 -7 17
-4 6 4 8 2 4 -4 -3 -6 -1 -14 5 -18 8 -4 9 -3 5 4 -10 16 16 15 39 -1 13 -10
15 -16 6 -21 -7 -5 -15 -5 -18 -2 -3 3 -14 1 -24 -4 -12 -7 -20 -6 -25 2 -4 7
-3 8 4 4 18 -11 14 0 -5 15 -11 10 -14 10 -9 2 4 -8 2 -13 -4 -13 -6 0 -8 -4
-5 -10 4 -6 -1 -7 -11 -3 -14 5 -16 3 -10 -13 6 -16 4 -15 -14 4 -21 23 -23
23 -43 5 -19 -16 -20 -16 -8 0 22 27 -6 21 -33 -8 -22 -23 -25 -24 -37 -8 -11
13 -11 17 -1 20 6 3 9 9 6 14 -3 6 -11 6 -18 2 -6 -4 3 5 21 20 21 19 30 34
26 45 -4 12 0 11 16 -5 25 -26 27 -27 37 -11 4 7 3 8 -4 4 -8 -5 -10 -1 -5 10
4 11 8 13 11 6 2 -8 14 -4 34 13 16 14 38 25 48 25 10 0 22 5 25 10 3 6 8 10
11 10 3 0 2 -4 -1 -10z m48 3 c-7 -2 -19 -2 -25 0 -7 3 -2 5 12 5 14 0 19 -2
13 -5z m-223 -62 c6 -2 -23 -21 -31 -21 -3 0 -6 6 -6 14 0 7 7 12 16 11 9 -2
18 -4 21 -4z m484 -12 l25 -12 -37 -19 c-20 -11 -44 -26 -52 -34 -12 -12 -11
-14 8 -14 13 0 22 -6 22 -16 0 -8 -4 -13 -9 -9 -5 3 -12 1 -16 -5 -3 -6 1 -13
10 -16 12 -5 13 -9 5 -14 -16 -10 -59 32 -47 47 4 6 9 23 11 37 1 14 13 34 27
45 29 24 23 23 53 10z m-90 -31 c-1 -13 -3 -29 -3 -36 -1 -7 -5 -11 -9 -8 -10
6 -9 -24 1 -40 3 -6 0 -11 -8 -11 -8 0 -12 4 -10 8 3 4 -2 10 -10 13 -11 4
-13 10 -6 23 5 10 14 30 20 46 13 33 29 36 25 5z m1052 3 c-8 -13 4 -42 14
-36 5 3 12 -5 16 -17 4 -13 10 -25 15 -28 10 -7 2 -17 -40 -55 -25 -22 -31
-25 -24 -10 18 36 25 96 12 111 -11 13 -7 44 6 44 4 0 4 -4 1 -9z m-1519 -34
c0 -8 -6 -14 -14 -14 -9 0 -10 4 -2 14 6 7 12 13 14 13 1 0 2 -6 2 -13z m1621
-9 c-8 -12 -21 -24 -29 -26 -8 -3 -3 7 10 22 30 32 39 34 19 4z m-1760 -18
c-7 -11 -17 -20 -22 -20 -5 0 -1 9 9 20 10 11 20 20 22 20 2 0 -2 -9 -9 -20z
m387 -10 c10 -11 16 -20 13 -20 -3 0 -13 9 -23 20 -10 11 -16 20 -13 20 3 0
13 -9 23 -20z m535 16 c0 -2 -7 -9 -15 -16 -13 -11 -14 -10 -9 4 5 14 24 23
24 12z m-110 -41 c0 -1 -10 -10 -22 -21 -13 -10 -17 -12 -10 -4 18 21 15 34
-5 19 -16 -13 -17 -12 -5 3 11 13 42 16 42 3z m-1040 -14 c37 -9 35 -11 -15
-15 -37 -3 -71 -21 -84 -44 -6 -9 -10 -12 -11 -7 0 15 12 29 40 48 18 12 20
17 8 17 -16 0 -68 -54 -68 -71 0 -4 -13 -15 -29 -23 -28 -15 -29 -15 -24 7 7
27 41 67 67 76 13 5 16 10 8 15 -7 4 -32 -13 -62 -45 -37 -39 -51 -48 -55 -37
-4 9 -25 24 -47 34 l-41 18 49 24 c44 21 58 23 139 17 50 -3 106 -10 125 -14z
m90 9 c9 5 25 3 43 -6 21 -11 32 -12 42 -4 9 8 15 8 20 0 3 -5 1 -10 -6 -10
-7 0 -4 -7 7 -15 13 -10 3 -8 -29 5 -33 13 -54 17 -65 11 -17 -9 -52 7 -52 24
0 4 6 3 13 -3 8 -7 18 -7 27 -2z m870 -30 c13 -8 13 -10 -2 -10 -9 0 -20 5
-23 10 -8 13 5 13 25 0z m-1285 -20 c-3 -5 -12 -10 -18 -10 -7 0 -6 4 3 10 19
12 23 12 15 0z m1332 -5 c0 -8 -4 -12 -9 -9 -5 3 -6 10 -3 15 9 13 12 11 12
-6z m-47 -31 c7 -19 10 -37 8 -40 -8 -8 -42 36 -43 56 -3 34 23 22 35 -16z
m-1327 9 c-4 -10 -2 -14 5 -9 6 3 14 1 17 -5 11 -17 -2 -21 -24 -7 -17 10 -23
10 -33 -1 -11 -12 -10 -13 5 -8 11 4 17 1 17 -8 0 -7 -9 -13 -19 -12 -11 0
-17 5 -15 9 8 12 -11 9 -24 -4 -7 -7 -12 -9 -12 -6 0 6 78 66 87 68 1 0 -1 -7
-4 -17z m332 -13 c3 -6 -1 -7 -9 -4 -18 7 -21 14 -7 14 6 0 13 -4 16 -10z
m1269 -12 c-5 -8 -2 -9 9 -5 11 4 20 -1 27 -13 14 -25 13 -27 -10 -33 -15 -4
-20 0 -20 13 0 11 -5 22 -10 25 -10 6 -5 25 6 25 3 0 2 -5 -2 -12z m554 -5
c-3 -19 -123 -149 -151 -164 -11 -7 -4 9 19 43 l37 53 -62 -65 c-35 -36 -58
-57 -51 -47 7 9 10 20 7 23 -3 3 -13 -8 -21 -24 -23 -45 -32 -45 -35 0 -1 22
-9 60 -17 85 -9 25 -14 46 -12 48 4 3 159 53 183 58 11 3 39 5 63 6 35 1 42
-2 40 -16z m-2503 -23 l30 -12 -35 -16 c-19 -10 -35 -23 -35 -31 0 -8 16 -20
35 -28 31 -12 32 -13 7 -9 -20 2 -25 0 -18 -7 7 -7 7 -15 0 -24 -8 -9 -8 -13
-1 -13 14 0 76 33 80 43 2 4 8 7 13 7 5 0 2 -11 -7 -25 -9 -14 -20 -22 -25
-20 -5 3 -22 -1 -38 -10 -37 -19 -36 -19 -38 5 -1 11 4 20 10 21 7 0 3 4 -8 9
-29 11 -39 -4 -23 -36 8 -16 13 -35 12 -41 -1 -7 -2 -19 -3 -25 0 -7 -8 -2
-17 10 -9 13 -13 30 -10 38 4 10 2 13 -6 8 -8 -5 -9 -2 -5 10 4 9 3 15 -2 11
-10 -6 -41 48 -42 74 0 12 -3 11 -9 -4 -6 -15 -9 -16 -9 -4 -1 8 10 26 24 39
14 13 25 30 25 38 0 16 42 13 95 -8z m305 -24 c0 -3 -4 -8 -10 -11 -5 -3 -10
-1 -10 4 0 6 5 11 10 11 6 0 10 -2 10 -4z m1680 -42 c0 -8 -4 -12 -10 -9 -5 3
-10 13 -10 21 0 8 5 12 10 9 6 -3 10 -13 10 -21z m-2140 -13 c0 -4 -6 -8 -12
-9 -25 -2 -48 -8 -54 -15 -13 -12 -24 -7 -18 8 4 8 9 13 13 11 4 -3 12 -1 19
3 16 10 52 11 52 2z m2246 -48 c-4 -4 -76 37 -76 44 0 2 18 -6 40 -18 22 -12
38 -24 36 -26z m81 -4 c2 -23 -7 -20 -11 4 -1 8 -8 23 -16 33 -14 18 -14 18 6
2 11 -9 20 -27 21 -39z m-2047 33 c0 -16 -41 -92 -49 -92 -5 0 -14 7 -21 16
-8 8 -9 14 -4 12 5 -2 11 2 12 7 11 30 24 44 37 39 8 -4 15 -2 15 4 0 6 -6 13
-12 15 -8 3 -6 6 5 6 9 1 17 -3 17 -7z m-309 -34 c9 -19 9 -21 -2 -10 -7 6
-22 12 -33 11 -20 0 -20 0 0 -9 33 -13 37 -27 9 -34 -14 -4 -23 -11 -20 -16 9
-15 -12 -12 -46 6 -25 12 -28 18 -18 30 6 8 19 14 29 14 10 0 23 7 30 15 18
21 37 19 51 -7z m343 14 c3 -5 -1 -9 -9 -9 -8 0 -12 4 -9 9 3 4 7 8 9 8 2 0 6
-4 9 -8z m-596 -58 c39 -11 24 -22 -20 -13 -75 14 -200 10 -270 -9 -124 -35
-203 -103 -254 -219 -23 -50 -26 -68 -22 -135 5 -91 46 -184 112 -257 37 -41
38 -43 10 -23 -17 12 -35 18 -39 14 -5 -4 -5 -2 -2 5 4 6 -8 34 -27 62 -49 72
-71 143 -71 231 0 65 4 84 33 142 50 102 146 176 271 208 38 10 239 6 279 -6z
m250 -29 c-3 -3 -9 2 -12 12 -6 14 -5 15 5 6 7 -7 10 -15 7 -18z m-178 5 c18
-12 2 -12 -25 0 -13 6 -15 9 -5 9 8 0 22 -4 30 -9z m258 -25 c-3 -3 -9 2 -12
12 -6 14 -5 15 5 6 7 -7 10 -15 7 -18z m-154 -44 c-7 -7 -34 21 -28 31 3 5 12
1 19 -9 7 -10 12 -20 9 -22z m-244 18 c0 -5 -3 -9 -7 -9 -5 0 -28 -18 -52 -41
-25 -23 -49 -38 -58 -35 -8 3 -12 2 -8 -3 8 -14 -5 -41 -20 -41 -7 0 -15 -6
-17 -12 -3 -7 -18 -11 -36 -10 -17 1 -34 -3 -38 -9 -4 -7 0 -9 13 -5 11 4 31
2 44 -3 21 -8 17 -10 -23 -10 -27 -1 -48 -5 -48 -9 0 -9 17 -13 65 -13 l30 -1
-29 -13 c-19 -8 -24 -14 -15 -17 8 -3 25 2 39 10 18 11 14 4 -13 -23 -45 -45
-120 -196 -103 -207 10 -7 -4 -12 -25 -10 -4 1 -5 -7 -2 -18 3 -10 0 -27 -6
-37 -6 -10 -11 -13 -11 -5 0 7 -15 19 -32 27 -27 11 -38 25 -58 77 -50 127
-21 266 71 339 38 30 40 30 57 12 9 -10 14 -14 10 -9 -5 6 -8 18 -8 27 0 23
39 36 52 18 8 -11 9 -10 4 3 -4 13 4 19 37 27 51 11 187 11 187 0z m3079 -54
c17 -15 31 -32 31 -38 0 -8 -4 -7 -9 2 -6 9 -18 12 -37 7 -16 -4 -36 -8 -44
-9 -15 -2 -49 56 -50 86 0 16 2 16 39 -2 21 -11 52 -32 70 -46z m-2941 25 c1
0 2 -4 2 -9 0 -6 -12 -4 -27 4 -30 16 -45 12 -36 -10 4 -13 -6 -19 -29 -17 -3
1 -12 -6 -20 -15 -9 -12 -9 -15 0 -9 14 8 16 -3 2 -24 -6 -10 -4 -21 8 -34 14
-16 10 -15 -25 5 l-42 24 22 35 c52 86 43 80 95 64 26 -7 48 -14 50 -14z
m2686 16 c-21 -15 -30 -14 -19 3 3 6 14 11 23 11 13 0 13 -2 -4 -14z m145 -51
c0 -5 -6 1 -13 14 l-14 24 -7 -23 c-5 -17 -9 -19 -16 -9 -5 8 -2 20 8 32 16
17 17 17 30 -5 7 -13 12 -27 12 -33z m-2864 15 c3 -5 1 -10 -4 -10 -6 0 -11 5
-11 10 0 6 2 10 4 10 3 0 8 -4 11 -10z m2725 -5 c0 -9 -6 -12 -16 -8 -13 5
-13 7 -2 14 17 11 18 11 18 -6z m-2869 -9 c-8 -9 -8 -15 -2 -18 7 -2 7 -8 1
-18 -8 -13 -10 -13 -10 2 0 12 -5 15 -17 11 -16 -6 -16 -4 1 15 21 24 46 31
27 8z m201 -30 c8 -12 -29 -66 -45 -66 -7 0 -4 7 6 14 34 26 17 65 -19 41 -17
-11 -24 -12 -28 -2 -4 6 -4 2 -2 -10 5 -29 -10 -30 -17 -1 -8 31 1 40 36 36
23 -2 31 2 29 12 -3 11 0 11 15 -1 10 -8 21 -18 25 -23z m2732 8 c3 -8 2 -12
-4 -9 -6 3 -10 10 -10 16 0 14 7 11 14 -7z m81 4 c5 4 5 1 1 -6 -6 -9 -11 -10
-20 -3 -7 6 -17 7 -21 3 -5 -4 -5 -1 -1 6 6 9 11 10 20 3 7 -6 17 -7 21 -3z
m-2845 -28 c0 -5 -10 -15 -22 -21 l-23 -12 20 21 c23 24 25 25 25 12z m2969 1
c8 -5 10 -14 6 -21 -5 -9 -4 -11 3 -6 13 8 15 -4 6 -28 -3 -9 -10 -13 -15 -10
-5 3 -10 0 -10 -5 -1 -6 -2 -15 -3 -21 -3 -23 -21 -13 -24 13 -3 24 0 27 25
28 l28 1 -25 7 c-14 4 -31 3 -38 -2 -7 -5 -15 -7 -19 -3 -3 3 -1 6 4 6 6 0 10
8 8 18 -1 9 0 20 2 25 6 10 35 9 52 -2z m-3195 -19 c3 -5 -1 -9 -9 -9 -8 0
-12 4 -9 9 3 4 7 8 9 8 2 0 6 -4 9 -8z m3263 -21 c0 -11 -5 -17 -9 -15 -4 3
-8 -1 -8 -8 0 -9 -3 -9 -10 2 -14 22 -12 33 5 26 8 -3 15 -1 15 4 0 6 2 10 4
10 3 0 4 -9 3 -19z m731 13 c13 -4 22 -12 20 -19 -2 -7 -72 -72 -155 -144
-128 -109 -158 -130 -181 -128 -15 2 -33 7 -40 11 -8 5 -11 2 -10 -6 2 -7 -4
-12 -12 -10 -10 1 -9 -2 4 -13 19 -15 19 -15 -5 -15 -17 0 -20 -3 -11 -9 11
-7 9 -16 -11 -49 -14 -22 -23 -43 -19 -47 4 -4 2 -5 -5 -3 -6 1 -18 -6 -26
-17 -15 -19 -16 -19 -28 8 -7 15 -18 26 -25 23 -6 -2 -24 9 -40 25 -15 16 -30
27 -32 24 -5 -5 -72 73 -72 84 0 5 -10 13 -22 20 -13 6 -16 10 -7 7 9 -2 22 0
30 4 8 6 17 4 22 -3 5 -7 6 -4 2 9 -4 16 3 27 35 49 22 15 40 32 40 37 0 5 6
8 13 5 6 -2 28 6 48 19 63 39 202 107 259 125 55 18 182 25 228 13z m-3931
-34 c-1 -11 -5 -20 -9 -20 -11 0 -20 19 -13 30 11 17 24 11 22 -10z m123 5 c0
-2 -6 -5 -13 -8 -8 -3 -14 1 -14 8 0 7 6 11 14 8 7 -3 13 -6 13 -8z m-85 -13
c-3 -3 -11 0 -18 7 -9 10 -8 11 6 5 10 -3 15 -9 12 -12z m3939 -59 c-21 -40
-160 -167 -202 -186 -15 -6 -30 -16 -34 -22 -5 -6 -8 -3 -8 8 0 12 -8 17 -27
17 l-26 0 24 26 c13 15 80 73 149 131 116 96 126 102 134 82 7 -15 5 -30 -10
-56z m-743 14 c-10 -9 -11 -8 -5 6 3 10 9 15 12 12 3 -3 0 -11 -7 -18z m-3247
-19 c-25 -41 -52 -77 -55 -73 -10 9 -6 -52 4 -65 10 -13 10 -13 -5 -2 -15 12
-17 8 -23 -43 -4 -30 -11 -58 -16 -61 -5 -3 -6 2 -3 10 4 12 -1 13 -29 6 -19
-4 -40 -10 -46 -14 -7 -5 -11 4 -11 26 0 81 36 143 114 199 40 30 84 40 70 17z
m134 -15 c-11 -3 -15 -10 -11 -21 5 -13 3 -14 -7 -5 -15 14 -5 33 18 32 16 -1
16 -2 0 -6z m3119 -15 c-3 -8 -6 -5 -6 6 -1 11 2 17 5 13 3 -3 4 -12 1 -19z
m-3165 -40 c-8 -8 -9 -5 -6 13 5 23 5 23 -13 -3 -10 -16 -21 -28 -25 -28 -5 0
2 16 14 35 21 32 24 33 32 14 6 -13 6 -23 -2 -31z m3134 24 c-17 -34 -46 -60
-46 -43 0 6 7 14 15 17 8 4 15 12 15 18 0 11 19 36 27 36 2 0 -3 -13 -11 -28z
m-103 -77 c-3 -9 -8 -14 -10 -11 -3 3 -2 9 2 15 9 16 15 13 8 -4z m124 -54
c-1 -11 -6 -17 -14 -14 -10 4 -11 9 -2 19 15 19 18 18 16 -5z m-33 -27 c3 -8
2 -12 -4 -9 -6 3 -10 10 -10 16 0 14 7 11 14 -7z m526 11 c0 -3 -9 -16 -21
-28 l-21 -22 13 28 c11 23 29 37 29 22z m-2241 -22 c-13 -15 -12 -15 8 -5 26
14 36 15 28 3 -3 -6 12 -8 35 -6 23 2 38 0 35 -6 -8 -12 1 -11 24 2 11 8 29 9
47 4 36 -10 79 -7 120 7 18 6 40 8 50 3 11 -4 24 -9 29 -9 6 -1 39 -5 75 -10
107 -14 185 -42 198 -71 24 -52 14 -61 -24 -24 l-37 34 43 -57 c25 -35 40 -64
36 -73 -3 -9 1 -18 9 -21 26 -10 19 -70 -11 -93 -38 -30 -61 -26 -101 14 -20
20 -38 34 -40 31 -8 -8 122 -136 137 -136 8 0 -1 10 -20 23 -34 21 -34 22 -10
25 49 5 66 11 88 32 24 23 30 77 11 112 -8 14 8 7 53 -24 l63 -45 -3 -49 c-2
-27 -8 -54 -13 -59 -4 -6 -6 -25 -4 -42 8 -60 44 -184 57 -193 4 -3 9 -21 11
-41 2 -19 7 -41 12 -49 5 -7 -9 1 -31 18 -55 44 -160 74 -211 60 -21 -5 -42
-13 -48 -18 -5 -4 -17 -7 -25 -7 -8 -1 -26 -3 -40 -6 -73 -16 -120 -24 -124
-20 -2 3 -17 -2 -33 -10 -15 -8 -42 -17 -60 -20 -27 -5 -31 -4 -26 11 4 9 -5
4 -19 -13 -21 -24 -33 -29 -66 -28 l-40 2 3 -57 c2 -31 4 -57 5 -57 1 0 3 -67
4 -150 l3 -150 42 -68 c31 -50 39 -72 32 -81 -6 -7 -8 -16 -4 -19 11 -11 -37
-56 -112 -105 -74 -49 -108 -55 -213 -37 -30 6 -55 3 -88 -10 -39 -15 -48 -15
-56 -4 -7 10 -8 5 -3 -16 3 -16 13 -39 21 -50 8 -11 25 -34 38 -51 21 -30 23
-31 34 -13 7 10 23 26 37 35 29 19 61 11 141 -38 36 -22 57 -43 72 -74 13 -26
38 -54 63 -71 l41 -27 -50 -11 c-55 -13 -100 -38 -109 -61 -3 -8 -13 -12 -27
-8 -11 3 -49 -4 -84 -15 -67 -20 -99 -18 -104 7 -2 11 -24 -8 -67 -56 -35 -40
-70 -72 -77 -72 -26 0 -14 -18 15 -25 21 -4 42 0 73 17 41 21 53 22 258 22
172 -1 222 -4 253 -17 42 -18 49 -36 12 -32 -14 2 -25 -1 -25 -6 0 -6 -5 -7
-11 -3 -8 4 -8 1 -1 -13 15 -28 -50 -87 -118 -107 -57 -17 -187 -21 -257 -7
-23 5 -40 5 -38 0 3 -4 -9 -19 -27 -33 -30 -23 -31 -27 -19 -49 7 -14 10 -30
7 -36 -8 -12 57 -26 76 -16 7 4 0 -5 -15 -19 -31 -29 -26 -33 13 -11 14 8 33
14 43 15 18 0 147 -46 225 -81 49 -22 52 -23 52 -8 0 5 -3 8 -8 5 -4 -2 -18 2
-32 10 -16 8 -20 14 -10 15 28 3 54 -3 74 -17 14 -9 26 -10 36 -4 24 16 30 12
30 -19 0 -36 -9 -61 -21 -61 -6 0 -4 10 2 23 11 21 11 21 -7 6 -10 -9 -28 -19
-39 -23 -11 -3 -40 -26 -65 -50 -40 -39 -47 -43 -70 -32 -14 6 -31 16 -38 23
-7 7 -22 13 -33 13 -10 0 -19 5 -19 12 0 6 -7 3 -15 -8 -10 -13 -14 -14 -15
-5 0 10 -3 11 -14 2 -11 -9 -16 -9 -22 0 -5 9 -10 5 -16 -10 -6 -19 -11 -21
-22 -12 -11 10 -16 8 -21 -11 -8 -22 -8 -22 -31 7 l-24 30 0 -27 c0 -16 -4
-28 -9 -28 -10 0 -25 30 -22 44 1 5 -5 4 -13 -4 -9 -7 -16 -8 -16 -3 0 6 -9
20 -20 33 -11 13 -20 39 -21 59 l-1 36 -10 -37 c-6 -21 -14 -38 -18 -38 -5 0
-21 15 -36 33 -15 17 -31 31 -36 29 -4 -1 -8 5 -8 13 0 8 -4 15 -10 15 -5 0
-10 6 -10 13 0 8 -9 22 -20 32 -11 10 -20 26 -20 36 0 11 -5 16 -12 14 -17 -6
-28 3 -62 47 -15 21 -26 43 -23 50 2 7 0 23 -4 36 -6 14 -5 22 2 22 8 0 9 16
5 48 -10 67 -16 83 -28 76 -7 -5 -9 -1 -5 9 3 10 2 17 -3 17 -15 0 -22 38 -10
61 7 13 8 19 2 15 -6 -3 -18 4 -27 16 -8 13 -19 23 -23 23 -4 0 -6 9 -4 20 1
14 -1 16 -6 7 -11 -16 -32 27 -32 66 -1 27 -1 27 -15 -5 -8 -18 -17 -33 -20
-33 -3 0 -4 4 -1 9 3 4 -4 26 -15 47 -11 21 -17 48 -15 60 4 14 1 21 -9 21
-10 0 -12 -9 -9 -31 5 -26 1 -23 -20 19 -14 28 -26 56 -26 63 0 6 -3 12 -8 12
-15 0 -64 119 -57 141 5 15 4 19 -4 15 -10 -7 -14 18 -15 91 0 12 -4 19 -8 17
-7 -5 -10 59 -8 161 1 61 22 188 61 364 23 106 38 150 74 216 l45 83 3 136 c2
74 7 139 11 143 4 5 16 -2 26 -14 9 -12 20 -20 23 -17 3 3 8 1 11 -5 4 -5 -3
-12 -14 -16 -11 -3 -20 -11 -20 -16 0 -14 9 -11 32 11 25 23 43 8 27 -21 -8
-16 -3 -17 69 -12 101 7 145 18 168 45 l19 21 -30 -21 c-16 -11 -48 -24 -70
-28 -47 -8 -43 -1 17 31 52 27 70 61 76 138 l4 57 42 2 41 1 -42 4 c-34 3 -43
8 -43 22 0 13 12 22 40 29 41 10 49 5 28 -17 -7 -6 14 2 47 18 33 17 77 32 97
34 20 2 44 9 52 16 9 8 25 11 36 8 11 -3 23 -1 26 4 3 5 10 9 16 9 6 0 5 -7
-3 -17z m-174 -13 c-3 -5 -12 -10 -18 -10 -7 0 -6 4 3 10 19 12 23 12 15 0z
m2346 -9 c-6 -10 -7 -21 -3 -25 3 -4 -1 -4 -10 -1 -14 6 -15 10 -5 26 15 25
31 25 18 0z m-3901 -27 c0 -14 -4 -23 -9 -20 -5 3 -7 15 -4 26 7 28 13 25 13
-6z m180 11 c-6 -8 -9 -19 -5 -25 3 -5 4 -10 1 -10 -3 0 -10 10 -17 21 -7 13
-7 19 -1 15 6 -3 13 -2 17 4 3 5 9 10 12 10 3 0 0 -7 -7 -15z m-163 -17 c-3
-8 -6 -5 -6 6 -1 11 2 17 5 13 3 -3 4 -12 1 -19z m243 8 c0 -3 -4 -8 -10 -11
-5 -3 -10 -1 -10 4 0 6 5 11 10 11 6 0 10 -2 10 -4z m-152 -15 c15 13 16 12 3
-3 -17 -22 -37 -23 -45 -2 -5 14 -4 15 9 4 12 -10 18 -10 33 1z m47 -31 c-3
-4 4 -10 15 -13 13 -3 25 2 35 16 12 17 17 18 30 7 8 -7 15 -19 15 -27 0 -12
-3 -13 -15 -3 -15 12 -39 5 -30 -10 3 -5 1 -11 -5 -15 -5 -3 -10 -3 -10 2 0 4
-11 13 -24 19 -22 10 -25 9 -29 -12 -7 -38 13 -45 62 -23 64 28 64 22 1 -11
-63 -33 -82 -36 -100 -15 -9 11 -15 13 -20 5 -11 -18 -50 38 -49 69 1 25 1 24
8 -5 10 -38 19 -54 33 -54 7 0 8 14 5 38 -4 25 -3 32 3 22 7 -12 12 -12 22 -2
6 6 21 12 32 12 16 0 17 3 8 12 -7 7 -12 17 -12 23 0 5 7 1 15 -9 8 -10 12
-22 10 -26z m3760 13 c-12 -18 -14 -28 -7 -31 7 -2 12 -8 12 -14 0 -7 -5 -7
-13 1 -8 6 -17 7 -21 3 -4 -4 -2 7 5 23 12 27 27 44 38 45 2 0 -5 -12 -14 -27z
m-2577 -51 c-7 -97 -29 -136 -92 -167 -40 -20 -58 -24 -77 -17 -22 9 -19 12
44 41 37 18 67 37 67 42 0 5 5 8 12 7 14 -3 36 70 37 125 1 20 4 37 7 37 4 0
5 -31 2 -68z m2542 39 c0 -10 -41 -75 -64 -99 -32 -36 -76 -65 -76 -52 0 18
68 82 80 75 5 -3 10 -1 10 5 0 7 9 23 20 37 16 20 17 29 9 40 -9 11 -8 12 5 7
9 -3 16 -9 16 -13z m77 -23 c-3 -7 -5 -2 -5 12 0 14 2 19 5 13 2 -7 2 -19 0
-25z m-3976 -15 c6 -21 28 -58 48 -83 l36 -45 -63 53 c-34 30 -62 59 -62 65 0
5 10 2 22 -9 13 -12 18 -13 12 -4 -10 17 -17 60 -10 60 2 0 10 -17 17 -37z
m2536 -15 c57 -34 64 -44 61 -87 l-3 -39 -55 42 c-38 30 -54 49 -52 62 2 10 4
25 4 32 2 16 0 16 45 -10z m1247 -17 c-2 -34 -31 -78 -56 -84 -20 -6 -34 8
-18 18 5 3 10 12 10 18 0 7 -4 6 -11 -3 -9 -13 -10 -13 -6 0 2 8 10 14 16 12
7 -1 17 11 22 27 6 17 18 32 27 34 9 3 17 5 18 6 0 0 -1 -12 -2 -28z m232 -8
c-10 -10 -19 5 -10 18 6 11 8 11 12 0 2 -7 1 -15 -2 -18z m-61 -3 c-3 -5 -11
-10 -16 -10 -6 0 -7 5 -4 10 3 6 11 10 16 10 6 0 7 -4 4 -10z m-2652 -19 c-3
-10 -19 -32 -36 -47 -27 -24 -28 -25 -11 -4 12 14 27 35 33 48 14 27 21 29 14
3z m77 -36 c-6 -19 -25 -44 -41 -56 l-30 -21 26 39 c13 21 29 43 35 50 5 7 10
20 11 30 0 10 3 13 6 6 2 -7 -1 -29 -7 -48z m2267 -37 c0 -15 -5 -24 -9 -22
-5 3 -6 10 -3 15 4 5 -2 9 -11 9 -10 0 -14 3 -11 6 4 4 -3 20 -14 35 l-20 29
35 -23 c27 -17 35 -28 33 -49z m20 50 c-3 -8 -6 -5 -6 6 -1 11 2 17 5 13 3 -3
4 -12 1 -19z m-1198 -38 c11 -24 11 -24 -3 -6 -9 11 -16 24 -16 30 0 12 5 7
19 -24z m1119 5 c-3 -3 -9 2 -12 12 -6 14 -5 15 5 6 7 -7 10 -15 7 -18z
m-3648 0 c-7 -9 -15 -13 -19 -10 -3 3 1 10 9 15 21 14 24 12 10 -5z m1175 5
c3 -6 -1 -7 -9 -4 -18 7 -21 14 -7 14 6 0 13 -4 16 -10z m40 -20 c-3 -5 -12
-10 -18 -10 -7 0 -6 4 3 10 19 12 23 12 15 0z m-1060 -10 c3 -5 1 -10 -4 -10
-6 0 -11 5 -11 10 0 6 2 10 4 10 3 0 8 -4 11 -10z m-95 -34 c24 6 24 6 5 -9
-11 -8 -23 -13 -28 -10 -4 2 -10 -9 -13 -26 -4 -17 -10 -31 -15 -31 -5 0 -9
-10 -9 -21 0 -17 5 -20 25 -17 30 6 30 5 8 -32 -15 -27 -15 -30 2 -57 l17 -28
-27 26 c-20 20 -25 32 -20 48 3 12 11 19 16 16 5 -4 9 -4 9 -1 0 3 -8 10 -17
15 -31 16 -24 -52 10 -86 15 -16 27 -35 27 -42 0 -8 9 -2 21 13 11 14 25 23
31 20 6 -4 6 2 -1 14 -10 18 -8 20 8 17 14 -2 18 1 14 11 -3 7 2 17 11 20 9 3
14 10 11 14 -3 5 -1 11 5 15 12 7 14 26 3 24 -24 -4 -30 4 -27 34 2 17 0 27
-4 21 -4 -6 -15 -10 -24 -9 -9 2 -22 -3 -29 -11 -16 -20 -26 -17 -24 6 1 13
16 28 40 40 41 21 61 27 35 10 -8 -5 -11 -12 -7 -16 3 -4 13 -1 21 5 8 7 23
11 33 8 14 -4 13 -5 -4 -6 -13 0 -23 -5 -23 -10 0 -18 50 -21 89 -5 39 15 41
15 90 -11 63 -35 115 -103 103 -137 -5 -13 -12 -36 -16 -53 -6 -24 -5 -28 5
-17 20 19 51 15 45 -5 -3 -10 -10 -40 -16 -68 -17 -80 -18 -81 -71 -108 -27
-15 -47 -21 -43 -14 3 6 -6 -2 -20 -19 -33 -41 -68 -50 -106 -27 -32 19 -37
32 -18 51 9 9 9 12 1 12 -7 0 -15 -5 -18 -10 -9 -14 -68 -5 -98 14 -18 12 -26
29 -30 61 -4 25 -4 51 -1 60 7 18 0 19 -26 5 -16 -9 -22 -5 -35 19 -17 34 -20
107 -5 116 6 4 10 14 9 23 -1 10 0 19 1 22 1 3 4 16 6 30 2 13 11 35 20 48 11
17 12 27 5 36 -6 7 -8 16 -4 19 3 4 -2 7 -13 7 -16 0 -17 2 -4 10 11 7 19 4
30 -10 11 -14 22 -18 40 -14z m3783 1 c-5 -8 -8 -7 -11 1 -2 7 -9 9 -14 6 -7
-4 -8 -2 -4 4 4 6 13 9 21 6 8 -4 12 -11 8 -17z m-1309 -2 c-4 -9 -15 -20 -25
-25 -30 -17 -31 -11 -3 15 31 29 36 31 28 10z m-2549 -16 c-4 -5 -12 -9 -18
-8 -9 0 -8 2 1 6 6 2 9 10 6 15 -4 7 -2 8 5 4 6 -4 9 -12 6 -17z m235 -4 c0
-12 -19 -12 -23 0 -4 9 -1 12 9 8 7 -3 14 -7 14 -8z m1073 -12 c-7 -2 -21 -2
-30 0 -10 3 -4 5 12 5 17 0 24 -2 18 -5z m-1436 -15 c6 14 33 16 33 2 0 -5 -6
-9 -12 -7 -8 1 -12 -6 -10 -18 2 -17 1 -17 -8 -5 -9 13 -11 13 -20 0 -13 -20
-13 -31 1 -27 6 1 21 -27 35 -62 13 -35 29 -70 35 -77 5 -6 12 -22 14 -35 3
-12 10 -26 17 -31 10 -6 10 -8 1 -8 -26 0 -111 151 -128 229 -8 36 11 62 28
38 7 -9 10 -9 14 1z m87 -3 c-4 -8 -8 -15 -10 -15 -2 0 -4 7 -4 15 0 8 4 15
10 15 5 0 7 -7 4 -15z m-37 -27 c-3 -8 -6 -5 -6 6 -1 11 2 17 5 13 3 -3 4 -12
1 -19z m4060 -58 c2 -13 9 -28 16 -32 6 -4 8 -8 2 -8 -21 1 -45 28 -39 44 4
12 0 16 -15 16 -12 0 -21 4 -21 9 0 5 12 6 27 2 17 -5 27 -15 30 -31z m-4068
3 c-9 -10 -9 -14 -2 -10 7 5 16 0 22 -11 11 -20 6 -32 -13 -32 -6 0 -4 5 4 10
13 8 13 10 -1 10 -18 0 -33 26 -23 41 3 5 10 9 16 9 6 0 5 -7 -3 -17z m231 7
c0 -5 -5 -10 -11 -10 -5 0 -7 5 -4 10 3 6 8 10 11 10 2 0 4 -4 4 -10z m3883
-18 c15 -16 15 -19 2 -19 -8 0 -22 9 -32 19 -14 15 -14 18 -1 18 8 0 22 -8 31
-18z m81 -81 c15 -28 15 -29 -13 -33 -18 -3 -28 0 -28 9 0 7 6 13 14 13 16 0
17 12 1 28 -9 9 -9 12 0 12 6 0 18 -13 26 -29z m31 -47 c9 -4 13 -10 8 -13 -5
-3 -16 -17 -25 -29 l-16 -24 -7 22 c-4 12 -1 27 5 35 14 17 13 17 35 9z m-74
-47 c-10 -9 -11 -8 -5 6 3 10 9 15 12 12 3 -3 0 -11 -7 -18z m-4091 -17 c0 -5
-2 -10 -4 -10 -3 0 -8 5 -11 10 -3 6 -1 10 4 10 6 0 11 -4 11 -10z m3595 -51
c4 -6 13 -8 20 -5 7 2 12 -3 11 -12 -1 -11 7 -17 19 -17 13 0 19 -6 17 -18 -2
-9 2 -17 8 -17 6 0 8 -5 4 -12 -5 -8 -2 -9 10 -5 14 6 17 3 12 -10 -6 -15 -5
-16 5 -5 21 20 34 14 15 -7 -17 -19 -17 -19 4 -14 21 6 22 3 18 -35 -2 -23 1
-44 7 -46 5 -2 2 -5 -9 -5 -16 -1 -15 -4 8 -22 34 -27 33 -53 -6 -105 -37 -49
-56 -53 -111 -25 -21 10 -47 17 -60 14 -12 -2 -3 5 19 16 23 11 44 28 48 36 3
10 11 13 18 9 7 -4 10 -4 6 1 -9 9 9 35 24 35 6 0 7 -7 4 -16 -6 -15 -4 -15
10 -3 11 9 12 15 5 17 -9 3 -9 7 0 18 17 21 -6 18 -28 -4 -10 -9 -29 -26 -43
-37 -25 -20 -25 -20 -10 0 8 11 21 24 28 28 13 8 16 45 6 71 -3 9 -10 13 -15
10 -17 -10 -9 10 14 34 l22 25 -30 -19 c-24 -15 -27 -15 -17 -3 10 14 9 17 -9
22 -15 4 -19 2 -15 -9 3 -9 -5 -6 -24 8 -33 24 -37 30 -15 22 8 -4 15 -2 15 3
0 5 -9 9 -20 10 -11 1 -20 -4 -20 -12 0 -7 -9 -17 -21 -20 -12 -4 -39 -25 -62
-48 -43 -43 -41 -34 7 26 16 20 38 37 48 37 10 0 18 4 18 9 0 18 -12 41 -22
41 -5 0 -7 -4 -4 -9 3 -5 -1 -14 -8 -20 -12 -10 -13 -8 -8 11 5 19 0 17 -30
-14 -19 -21 -38 -35 -42 -31 -9 9 -7 41 3 47 4 3 6 -7 4 -22 -4 -23 -2 -24 7
-10 6 10 24 32 40 50 17 18 30 36 30 40 0 12 88 9 95 -3z m-136 -12 c-2 -1
-13 -9 -24 -17 -19 -14 -19 -14 -6 3 7 9 18 17 24 17 6 0 8 -1 6 -3z m-3409
-18 c0 -4 -11 -6 -25 -6 -13 0 -22 3 -20 8 6 9 45 8 45 -2z m3662 -31 c-7 -7
-12 -8 -12 -2 0 6 3 14 7 17 3 4 9 5 12 2 2 -3 -1 -11 -7 -17z m-1126 -35 c-3
-8 -6 -19 -6 -24 0 -5 -15 -9 -32 -9 -23 0 -29 3 -19 9 11 7 11 9 0 14 -11 5
-10 9 4 20 22 18 60 11 53 -10z m1443 -17 c-3 -3 -11 5 -18 17 -13 21 -12 21
5 5 10 -10 16 -20 13 -22z m-629 -33 c-11 -17 -11 -17 -6 0 3 10 6 24 7 30 0
9 2 9 5 0 3 -7 0 -20 -6 -30z m-29 -6 c-10 -9 -11 -8 -5 6 3 10 9 15 12 12 3
-3 0 -11 -7 -18z m403 7 c3 -8 2 -12 -4 -9 -6 3 -10 -2 -10 -11 0 -10 -3 -15
-6 -11 -6 5 4 47 11 47 1 0 6 -7 9 -16z m-1213 -10 c12 -15 9 -16 -31 -9 -76
13 -91 24 -34 24 36 1 56 -4 65 -15z m814 -43 c-6 -5 -25 10 -25 20 0 5 6 4
14 -3 8 -7 12 -15 11 -17z m-3435 -22 c-7 -11 -14 -18 -17 -15 -3 3 0 12 7 21
18 21 23 19 10 -6z m77 1 c-1 -11 -5 -20 -9 -20 -4 0 -8 9 -8 20 0 11 4 20 9
20 6 0 9 -9 8 -20z m3417 -65 c1 -11 9 -20 16 -20 7 0 14 -8 16 -17 1 -12 -4
-17 -14 -15 -25 4 -43 17 -37 27 3 4 -2 13 -10 20 -17 14 -21 35 -5 25 6 -4
10 9 11 32 l1 38 10 -35 c5 -19 10 -44 12 -55z m207 52 c-10 -9 -11 -8 -5 6 3
10 9 15 12 12 3 -3 0 -11 -7 -18z m-81 -8 c0 -11 -3 -11 -24 -3 -23 9 -20 23
4 17 11 -3 20 -9 20 -14z m30 0 c0 -5 -4 -9 -10 -9 -5 0 -10 7 -10 16 0 8 5
12 10 9 6 -3 10 -10 10 -16z m-1140 -79 c28 -7 23 -8 -20 -3 -30 3 -65 11 -77
17 -21 11 -22 13 -8 34 l16 21 27 -30 c15 -17 43 -35 62 -39z m1021 53 c13
-16 12 -17 -3 -4 -17 13 -22 21 -14 21 2 0 10 -8 17 -17z m-3658 -10 c-4 -11
-3 -14 5 -9 16 9 10 -30 -6 -46 -9 -9 -12 -9 -12 2 0 7 -3 10 -7 7 -3 -4 2
-16 12 -27 14 -16 15 -23 6 -34 -7 -8 -9 -21 -5 -28 6 -11 4 -11 -7 0 -20 19
-19 129 1 142 20 13 20 13 13 -7z m1054 -20 c37 -22 65 -46 68 -58 2 -11 6
-65 8 -121 l4 -101 -24 45 c-37 70 -112 184 -142 215 -25 28 -26 29 -7 43 26
18 20 20 93 -23z m2523 -16 c0 -5 -4 -5 -10 -2 -14 9 -13 -8 2 -23 7 -7 8 -12
2 -12 -5 0 -18 15 -29 33 -16 27 -16 30 -2 18 15 -12 17 -11 17 5 0 16 2 17
10 4 5 -8 10 -19 10 -23z m145 23 c3 -6 -1 -7 -9 -4 -18 7 -21 14 -7 14 6 0
13 -4 16 -10z m-1234 -29 c-19 -13 -8 -26 54 -61 63 -36 72 -47 18 -23 -54 25
-91 51 -103 74 -9 17 -7 19 17 19 20 0 24 -3 14 -9z m68 -7 c17 -4 31 -10 31
-14 0 -9 -20 -8 -37 3 -6 4 -18 4 -27 1 -9 -3 -16 -1 -16 5 0 13 6 13 49 5z
m1170 -10 c10 -9 -35 -3 -49 6 -11 8 -7 9 15 4 17 -4 32 -8 34 -10z m-1143
-97 c63 -32 246 -88 294 -91 46 -3 80 -15 80 -28 0 -6 3 -8 6 -5 4 3 15 2 26
-4 15 -8 17 -13 8 -25 -7 -7 -10 -21 -6 -29 3 -8 1 -15 -5 -15 -5 0 -9 -6 -8
-12 3 -25 -1 -39 -10 -34 -11 7 -35 -30 -46 -69 -4 -16 -10 -24 -12 -17 -6 16
-23 5 -23 -16 -1 -25 -36 -63 -53 -56 -10 4 -15 -1 -14 -13 1 -10 5 -21 10
-24 4 -3 -2 -14 -14 -25 -20 -17 -22 -17 -16 -1 4 9 2 17 -3 17 -4 0 -14 -17
-20 -37 -11 -36 -21 -58 -76 -180 -13 -28 -24 -59 -24 -67 0 -9 -2 -16 -5 -16
-5 0 -109 72 -153 107 l-24 18 39 25 c63 41 59 68 -37 255 -69 134 -81 165
-80 204 1 25 -3 73 -8 106 -5 33 -8 63 -5 68 2 4 23 -7 46 -25 l42 -33 -27 33
c-17 20 -28 46 -28 63 l0 30 48 -39 c26 -22 70 -51 98 -65z m1025 86 c13 -16
12 -17 -3 -4 -17 13 -22 21 -14 21 2 0 10 -8 17 -17z m-3551 1 c0 -8 -19 -13
-24 -6 -3 5 1 9 9 9 8 0 15 -2 15 -3z m877 -31 c-3 -10 -5 -4 -5 12 0 17 2 24
5 18 2 -7 2 -21 0 -30z m2743 18 c0 -5 7 -12 16 -15 8 -3 12 -2 9 4 -12 20 49
10 72 -12 20 -18 23 -19 23 -5 0 20 13 22 29 4 8 -11 6 -18 -9 -32 -18 -17
-21 -17 -45 -1 -14 10 -29 24 -32 32 -3 8 -10 14 -16 14 -7 0 -7 -4 1 -12 7
-7 12 -25 12 -41 0 -29 -1 -29 -37 -24 -21 4 -42 13 -48 20 -10 14 -16 17 -34
17 -11 0 -8 26 4 37 4 4 5 2 1 -4 -4 -7 -3 -13 3 -13 6 0 15 9 21 20 11 20 30
27 30 11z m-3649 -64 c-13 -13 -26 -3 -16 12 3 6 11 8 17 5 6 -4 6 -10 -1 -17z
m912 -20 c-2 -4 -6 -29 -9 -55 l-4 -47 37 73 c20 39 40 72 44 72 8 0 89 -125
89 -138 0 -4 -16 -14 -35 -21 -60 -21 -95 -92 -59 -122 12 -10 20 -10 35 -1
25 16 69 5 70 -17 0 -9 8 3 17 26 28 68 34 63 30 -24 -3 -46 -8 -86 -11 -90
-4 -3 -7 0 -8 8 0 8 -5 3 -10 -11 -7 -17 -7 -26 1 -28 5 -2 8 -7 6 -11 -3 -4
-1 -24 4 -44 5 -25 5 -35 -3 -30 -6 4 -8 0 -4 -10 3 -9 1 -17 -5 -19 -8 -3 -7
-11 2 -27 7 -15 8 -21 1 -17 -15 10 -14 -1 4 -28 15 -23 11 -56 -6 -56 -11 0
-136 192 -162 250 -12 25 -31 90 -43 144 -19 86 -20 108 -11 163 6 34 16 63
22 63 5 0 4 4 -4 9 -8 5 -10 14 -6 22 6 9 10 8 15 -7 4 -10 5 -22 3 -27z
m-856 -3 c0 -21 -49 -44 -55 -26 -2 7 -7 10 -12 7 -4 -3 -10 1 -13 9 -4 9 3
13 21 12 15 -1 26 -6 25 -13 -2 -7 4 -10 12 -7 8 3 14 9 13 12 -1 11 2 22 5
22 2 0 4 -7 4 -16z m-83 -45 c-6 -10 -44 -12 -44 -3 0 3 5 15 11 26 11 21 12
21 25 3 7 -10 11 -22 8 -26z m86 -19 c0 -5 -2 -10 -4 -10 -3 0 -8 5 -11 10 -3
6 -1 10 4 10 6 0 11 -4 11 -10z m4224 -59 c34 -37 12 -30 -34 11 -37 34 -40
38 -15 25 17 -8 39 -24 49 -36z m-15 -22 c13 -11 27 -17 31 -14 11 7 30 -43
29 -78 l-1 -32 -8 30 c-4 17 -8 23 -9 15 -1 -9 -16 0 -43 25 -31 30 -38 34
-26 14 16 -26 16 -26 -13 -27 -19 0 -34 7 -44 21 -20 28 -19 47 3 48 12 0 13
2 3 6 -10 4 -10 7 -1 13 16 10 50 1 79 -21z m-4049 -39 c6 -11 8 -20 6 -20 -3
0 -10 9 -16 20 -6 11 -8 20 -6 20 3 0 10 -9 16 -20z m-103 -7 c-4 -3 -2 -12 5
-20 8 -11 7 -12 -6 -7 -9 3 -16 9 -16 13 0 9 11 21 18 21 3 0 2 -3 -1 -7z
m2211 -28 c27 -38 22 -65 -7 -37 -18 16 -35 72 -22 72 3 0 17 -16 29 -35z
m-2144 17 c2 -4 -4 -9 -15 -9 -10 -1 -19 2 -19 8 0 11 27 12 34 1z m4066 -38
c0 -8 -4 -12 -10 -9 -5 3 -10 13 -10 21 0 8 5 12 10 9 6 -3 10 -13 10 -21z
m29 -7 c0 -21 -1 -21 -9 -2 -12 28 -12 37 0 30 6 -3 10 -16 9 -28z m-146 -74
c3 -5 8 -23 12 -42 7 -34 7 -34 -11 -17 -9 10 -18 29 -19 42 -1 23 9 32 18 17z
m33 -21 c-18 -16 -18 -16 -6 6 6 13 14 21 18 18 3 -4 -2 -14 -12 -24z m-51
-118 c-8 -6 -13 -14 -10 -17 3 -4 2 -5 -2 -2 -12 10 -12 39 0 47 17 11 29 -15
12 -28z m44 27 c7 -5 10 -14 7 -20 -4 -6 -12 -9 -17 -6 -5 4 -9 1 -9 -4 0 -6
-5 -11 -11 -11 -8 0 -8 4 1 15 6 8 9 19 5 25 -8 12 5 13 24 1z m51 -10 c0 -5
-15 -20 -32 -32 l-33 -22 29 31 c32 34 36 37 36 23z m-130 -30 c8 -17 7 -20
-10 -18 -10 1 -17 3 -15 6 3 2 0 10 -6 18 -9 10 -8 13 4 13 9 0 21 -9 27 -19z
m156 -19 c-10 -10 -29 15 -21 28 6 9 10 8 17 -4 6 -10 7 -20 4 -24z m-146 -30
c0 -15 -11 -21 -27 -15 -12 5 -12 7 -1 14 17 11 28 11 28 1z m33 -36 c-4 -27
-8 -34 -15 -24 -7 9 -9 8 -5 -7 3 -17 -1 -20 -28 -21 -31 0 -31 0 -19 25 7 13
11 28 8 33 -3 5 -2 7 3 6 15 -4 53 13 53 24 0 6 2 9 5 7 2 -3 2 -22 -2 -43z
m-79 -18 c-3 -4 -9 -8 -15 -8 -5 0 -9 4 -9 8 0 5 7 9 15 9 8 0 12 -4 9 -9z
m-3884 -61 c0 -16 3 -18 9 -8 5 8 11 9 15 3 3 -6 -4 -18 -16 -26 -25 -18 -17
-21 13 -5 15 8 27 6 53 -10 18 -12 44 -21 57 -21 21 -1 22 -2 7 -11 -19 -11
-25 -39 -8 -39 5 0 12 -11 16 -25 4 -14 9 -24 12 -21 3 3 11 1 18 -5 8 -7 14
-7 19 1 3 5 11 10 16 10 6 0 8 -4 5 -9 -3 -5 8 -14 25 -20 17 -6 29 -16 27
-22 -4 -11 -4 -11 -48 -3 -16 4 -30 10 -30 15 0 5 -4 9 -10 9 -5 0 -10 -8 -10
-17 0 -10 -4 -14 -8 -8 -16 22 -54 37 -65 26 -6 -6 -20 -11 -30 -11 -14 0 -18
5 -14 19 3 13 0 18 -7 15 -7 -3 -36 20 -65 51 -57 60 -59 77 -18 122 23 26 37
22 37 -10z m3943 -14 c-4 -10 -13 -29 -20 -43 l-13 -25 0 27 c0 15 5 30 10 33
6 4 8 11 5 16 -4 5 1 9 9 9 11 0 13 -6 9 -17z m-45 -13 c-7 -11 -19 -20 -27
-20 -8 0 -4 8 10 20 30 25 32 25 17 0z m-3280 -25 c0 -13 -9 -32 -19 -41 -24
-22 -24 -34 1 -34 11 0 20 -4 20 -8 0 -12 -32 -11 -47 0 -7 6 -14 4 -19 -3 -4
-7 -3 -9 3 -6 6 4 13 0 17 -8 8 -22 -7 -24 -26 -4 -14 15 -15 19 -2 30 8 7 12
20 9 30 -8 26 4 66 15 49 4 -7 13 -9 19 -6 6 4 9 12 6 17 -4 5 0 9 8 9 9 0 15
-10 15 -25z m-688 -25 c0 -5 -2 -10 -4 -10 -3 0 -8 5 -11 10 -3 6 -1 10 4 10
6 0 11 -4 11 -10z m3965 0 c-3 -5 -1 -10 4 -10 8 0 8 -5 0 -18 -13 -21 -49
-24 -49 -3 0 7 8 20 18 27 20 16 36 18 27 4z m-584 -72 c-14 -46 -39 -49 -53
-6 -8 24 -6 31 19 52 24 21 29 22 37 9 5 -9 4 -31 -3 -55z m-2100 21 c8 -37 2
-56 -13 -41 -13 13 -16 83 -3 79 5 -2 13 -19 16 -38z m2624 21 c3 -6 -4 -9
-19 -8 -13 1 -22 6 -20 10 7 11 32 10 39 -2z m-2665 -10 c0 -5 -2 -10 -4 -10
-3 0 -8 5 -11 10 -3 6 -1 10 4 10 6 0 11 -4 11 -10z m540 -3 c0 -2 -12 -14
-27 -28 l-28 -24 24 28 c23 25 31 32 31 24z m2101 -47 c17 -34 16 -35 -3 -38
-26 -5 -50 19 -53 53 -5 40 35 30 56 -15z m46 5 c-9 -7 -13 -16 -9 -20 4 -5 2
-5 -4 -2 -7 4 -14 16 -17 27 -3 11 -2 18 2 16 4 -3 13 -1 21 4 21 13 27 -10 7
-25z m-3574 -8 c4 3 7 1 7 -5 0 -14 -2 -14 -24 -6 -9 3 -16 11 -16 16 0 7 5 6
13 -1 8 -6 17 -8 20 -4z m982 -34 c-9 -37 -18 -20 -9 19 4 18 9 27 11 20 3 -7
2 -24 -2 -39z m2327 24 c14 -7 22 -19 20 -26 -3 -8 0 -11 7 -7 6 4 11 3 11 -3
0 -5 -9 -9 -19 -8 -11 0 -18 5 -15 9 3 4 -4 16 -16 28 -23 23 -21 25 12 7z
m158 -13 c0 -10 -6 -14 -15 -10 -9 3 -15 0 -15 -10 0 -8 -4 -12 -10 -9 -12 8
10 45 27 45 7 0 13 -7 13 -16z m-170 -14 c0 -5 -6 -12 -12 -16 -7 -4 -10 -4
-6 1 4 4 3 14 -4 22 -8 11 -7 12 6 7 9 -3 16 -10 16 -14z m-2340 6 c0 -2 -8
-10 -17 -17 -16 -13 -17 -12 -4 4 13 16 21 21 21 13z m2435 -5 c3 -5 0 -13 -6
-17 -7 -4 -9 -3 -5 4 3 6 -2 13 -11 15 -16 4 -16 5 -1 6 9 0 19 -3 23 -8z
m-2375 -32 c0 -5 -5 -7 -11 -3 -8 4 -9 -1 -4 -17 7 -23 7 -23 -8 -4 -11 15
-12 22 -4 27 17 11 27 10 27 -3z m-875 -117 c-3 -7 0 -10 5 -7 17 10 11 -17
-7 -38 -10 -11 -13 -17 -7 -14 7 4 14 -2 17 -13 6 -22 -12 -27 -31 -8 -9 9
-12 8 -13 -7 -1 -11 -1 -23 0 -27 2 -13 -7 -9 -34 16 -21 19 -24 29 -17 42 6
11 6 27 2 40 -8 19 -5 24 21 33 17 6 29 17 29 28 0 15 4 14 20 -7 11 -14 18
-31 15 -38z m3090 6 c5 4 5 1 1 -6 -4 -7 -11 -10 -16 -7 -4 3 -14 -3 -21 -12
-12 -14 -11 -15 11 -9 19 6 22 5 10 -4 -13 -9 -13 -12 3 -21 9 -5 17 -15 17
-22 0 -7 -4 -6 -10 3 -9 13 -12 12 -25 -4 -8 -11 -15 -16 -15 -12 0 5 -7 3
-15 -4 -13 -10 -15 -9 -15 9 0 17 4 21 19 16 11 -3 23 0 27 6 5 8 2 10 -9 6
-23 -9 -31 23 -10 39 15 11 15 13 3 14 -13 0 -13 1 0 10 9 5 19 5 26 0 6 -6
15 -6 19 -2z m25 -38 c-9 -6 -9 -9 1 -12 8 -3 11 -9 6 -13 -4 -5 -12 -4 -18 2
-14 14 -3 47 12 37 8 -5 8 -9 -1 -14z m-2380 -54 c0 -12 48 -75 54 -71 3 3 4
2 1 -1 -6 -9 23 -62 59 -109 17 -21 36 -50 43 -62 11 -22 9 -21 -25 7 -20 16
-65 62 -99 102 -59 67 -63 75 -63 120 0 44 2 48 15 34 8 -8 15 -17 15 -20z
m-443 8 c-3 -3 -12 -4 -19 -1 -8 3 -5 6 6 6 11 1 17 -2 13 -5z m3041 -12 c2
-7 -2 -10 -12 -6 -9 3 -16 11 -16 16 0 13 23 5 28 -10z m-3248 -18 c0 -8 5
-14 11 -14 5 0 8 4 5 8 -2 4 -1 14 5 22 7 13 9 12 9 -2 0 -10 8 -18 18 -18 14
0 15 -2 2 -10 -12 -8 -9 -10 13 -10 16 0 26 -4 22 -9 -3 -5 4 -12 15 -16 24
-8 25 -14 6 -50 -9 -17 -16 -22 -19 -13 -3 10 -9 8 -21 -7 -12 -15 -15 -16
-16 -5 0 13 -2 13 -9 1 -6 -9 -5 -24 2 -38 14 -31 -2 -48 -37 -39 -18 4 -31
18 -42 46 -10 26 -23 40 -37 42 -26 4 -37 38 -12 38 14 0 15 -3 5 -15 -10 -13
-9 -15 10 -15 16 0 20 4 16 16 -3 9 -6 20 -6 25 0 5 -5 9 -11 9 -7 0 -18 8
-25 18 -12 15 -13 12 -14 -23 0 -32 -3 -37 -11 -22 -19 32 -19 56 1 62 11 4
17 12 13 21 -7 19 0 18 28 -7 22 -19 24 -19 36 -4 6 10 16 14 22 10 7 -4 8 0
4 11 -4 12 -3 15 5 10 7 -4 12 -14 12 -22z m150 -14 c-9 -6 -9 -13 -1 -28 6
-11 11 -23 11 -26 0 -9 -30 -7 -31 2 0 4 -2 21 -3 39 -3 23 0 30 10 26 8 -3
14 1 15 8 0 12 1 12 6 0 3 -7 0 -17 -7 -21z m2894 19 c-3 -6 0 -15 7 -20 10
-6 10 -9 2 -9 -7 0 -10 -7 -7 -17 5 -15 4 -15 -4 -3 -6 8 -8 18 -6 22 3 4 -5
8 -18 8 l-23 0 25 14 c32 18 32 18 24 5z m-2873 -36 c-12 -20 -14 -14 -5 12 4
9 9 14 11 11 3 -2 0 -13 -6 -23z m2589 12 c7 -8 20 -15 29 -15 14 0 14 -2 1
-10 -13 -8 -13 -10 2 -10 9 0 21 8 27 17 5 10 13 14 17 10 11 -10 -11 -43 -26
-39 -6 1 -9 -2 -5 -8 4 -7 12 -7 25 0 20 11 76 -11 63 -24 -4 -4 -1 -12 7 -17
12 -9 11 -10 -4 -5 -10 4 -26 1 -34 -6 -9 -7 -13 -8 -10 -3 4 6 -2 16 -12 23
-15 9 -22 8 -35 -4 -15 -15 -18 -15 -39 5 -12 12 -24 20 -27 19 -2 -2 2 2 10
9 9 8 11 21 7 39 -7 26 -7 26 -28 8 -21 -19 -21 -19 -7 4 16 26 22 27 39 7z
m50 11 c0 -11 -19 -15 -25 -6 -3 5 1 10 9 10 9 0 16 -2 16 -4z m-60 -41 c0 -8
-7 -15 -16 -15 -14 0 -14 3 -4 15 7 8 14 15 16 15 2 0 4 -7 4 -15z m181 -28
c-13 -13 -26 -3 -16 12 3 6 11 8 17 5 6 -4 6 -10 -1 -17z m-3241 -48 c0 -6 -4
-7 -10 -4 -5 3 -10 11 -10 16 0 6 5 7 10 4 6 -3 10 -11 10 -16z m2173 -8 c4
-4 1 -13 -7 -20 -10 -8 -16 -9 -21 -1 -12 20 -27 10 -21 -15 6 -22 3 -25 -22
-25 -16 0 -42 12 -62 29 l-35 29 35 10 c36 11 119 6 133 -7z m972 9 c3 -5 -1
-10 -9 -10 -9 0 -16 5 -16 10 0 6 4 10 9 10 6 0 13 -4 16 -10z m205 -130 c-19
-16 -29 -30 -21 -30 16 0 -24 -33 -54 -44 -11 -4 4 17 35 48 30 31 59 56 65
56 5 0 -6 -14 -25 -30z m-3218 3 c2 -5 20 -23 41 -40 21 -18 36 -33 33 -33 -2
0 -11 -3 -19 -6 -16 -6 -77 52 -77 74 0 13 16 17 22 5z m1778 -53 c-6 -11 -13
-20 -16 -20 -2 0 0 9 6 20 6 11 13 20 16 20 2 0 0 -9 -6 -20z m-1629 -217 c13
-16 12 -17 -3 -4 -10 7 -18 15 -18 17 0 8 8 3 21 -13z m2919 -17 c0 -2 -8 -10
-17 -17 -16 -13 -17 -12 -4 4 13 16 21 21 21 13z m-2355 -426 c3 -5 -1 -10
-10 -10 -9 0 -13 5 -10 10 3 6 8 10 10 10 2 0 7 -4 10 -10z m1715 2 c0 -4 -10
-9 -22 -9 -18 -2 -20 0 -8 7 18 12 30 13 30 2z"/>
<path d="M2799 4543 c-8 -9 -4 -10 19 -4 20 6 34 5 42 -2 10 -9 11 -9 6 1 -10
17 4 15 28 -5 l21 -18 -19 23 c-21 25 -79 28 -97 5z"/>
<path d="M2765 4509 c-4 -6 -5 -12 -2 -15 2 -3 7 2 10 11 7 17 1 20 -8 4z"/>
<path d="M2684 4486 c-10 -8 -16 -18 -12 -22 4 -4 3 -13 -3 -20 -7 -9 -6 -14
3 -20 7 -4 10 -4 7 0 -4 4 3 17 15 30 15 16 26 20 38 14 13 -6 16 -5 12 7 -3
8 -10 12 -15 9 -5 -3 -9 0 -9 5 0 15 -13 14 -36 -3z m20 -11 c-4 -8 -11 -15
-16 -15 -6 0 -5 6 2 15 7 8 14 15 16 15 2 0 1 -7 -2 -15z"/>
<path d="M2780 4486 c0 -9 -4 -14 -10 -11 -5 3 -10 2 -10 -3 0 -6 7 -13 16
-16 10 -4 13 -2 8 6 -5 8 -2 9 11 4 16 -6 16 -4 4 11 -7 10 -15 20 -16 22 -2
2 -3 -3 -3 -13z"/>
<path d="M646 3854 c-21 -21 -22 -21 24 -44 43 -22 49 -21 24 4 -8 9 -11 16
-5 16 18 0 12 19 -8 30 -15 7 -23 6 -35 -6z"/>
<path d="M645 3723 c17 -8 39 -23 50 -32 19 -15 19 -15 6 2 -15 18 -63 47 -78
47 -4 -1 6 -8 22 -17z"/>
<path d="M788 3723 c7 -3 16 -2 19 1 4 3 -2 6 -13 5 -11 0 -14 -3 -6 -6z"/>
<path d="M767 3689 c7 -7 15 -10 18 -7 3 3 -2 9 -12 12 -14 6 -15 5 -6 -5z"/>
<path d="M720 3646 c0 -3 9 -10 20 -16 11 -6 20 -8 20 -6 0 3 -9 10 -20 16
-11 6 -20 8 -20 6z"/>
<path d="M671 3554 c0 -11 3 -14 6 -6 3 7 2 16 -1 19 -3 4 -6 -2 -5 -13z"/>
<path d="M711 3504 c0 -11 3 -14 6 -6 3 7 2 16 -1 19 -3 4 -6 -2 -5 -13z"/>
<path d="M4037 3935 c-4 -8 -2 -17 3 -20 6 -4 10 3 10 14 0 25 -6 27 -13 6z"/>
<path d="M4570 3767 c0 -2 15 -16 33 -33 l32 -29 -29 33 c-28 30 -36 37 -36
29z"/>
<path d="M4492 3690 c0 -14 2 -19 5 -12 2 6 2 18 0 25 -3 6 -5 1 -5 -13z"/>
<path d="M4480 3654 c0 -6 -6 -19 -14 -30 -15 -19 -15 -19 -31 1 -16 19 -16
19 -10 -9 8 -37 23 -50 60 -53 28 -2 28 -2 7 7 -13 5 -20 14 -17 20 3 5 1 10
-5 10 -6 0 -3 11 6 25 9 14 14 28 10 32 -3 3 -6 2 -6 -3z"/>
<path d="M4325 3630 c3 -5 11 -10 16 -10 6 0 7 5 4 10 -3 6 -11 10 -16 10 -6
0 -7 -4 -4 -10z"/>
<path d="M4564 3624 c-18 -14 -18 -15 4 -4 12 6 22 13 22 15 0 8 -5 6 -26 -11z"/>
<path d="M4603 3615 c0 -8 4 -15 9 -15 4 0 8 4 8 9 0 6 -4 12 -8 15 -5 3 -9
-1 -9 -9z"/>
<path d="M885 3680 c3 -5 8 -10 11 -10 2 0 4 5 4 10 0 6 -5 10 -11 10 -5 0 -7
-4 -4 -10z"/>
<path d="M2344 3498 l-19 -23 23 19 c21 18 27 26 19 26 -2 0 -12 -10 -23 -22z"/>
<path d="M2248 3443 c7 -3 16 -2 19 1 4 3 -2 6 -13 5 -11 0 -14 -3 -6 -6z"/>
<path d="M1883 2858 c-50 -32 -64 -46 -88 -90 -13 -23 -13 -27 1 -32 11 -4 18
1 21 14 3 11 10 20 16 20 5 0 16 8 23 18 11 14 13 14 14 2 0 -12 4 -10 15 4
15 19 15 19 15 -3 0 -20 4 -23 28 -17 75 17 89 18 103 4 8 -8 25 -21 38 -31
28 -19 29 -18 -67 -41 -72 -18 -130 -49 -185 -100 -32 -29 -37 -39 -31 -63 10
-43 29 -57 74 -56 33 2 43 -3 61 -28 32 -45 92 -72 142 -64 117 19 176 47 246
119 42 42 44 47 32 72 l-12 27 33 -25 34 -26 44 74 c25 40 55 92 68 116 22 43
30 112 13 123 -9 5 -32 -20 -56 -59 -13 -21 -35 -22 -110 -2 -33 8 -75 15 -93
16 -34 0 -224 35 -252 47 -41 16 -81 10 -127 -19z m105 -15 c-10 -2 -26 -2
-35 0 -10 3 -2 5 17 5 19 0 27 -2 18 -5z m142 -143 c-9 -5 -45 -15 -82 -24
-36 -8 -89 -24 -118 -35 l-52 -20 18 21 c38 41 110 65 199 67 34 0 45 -2 35
-9z m-12 -167 c29 5 33 4 18 -5 -23 -13 -132 -6 -148 10 -9 9 -6 16 11 31 21
19 22 19 52 -11 26 -26 35 -30 67 -25z m187 -3 c-3 -5 -14 -10 -23 -9 -14 0
-13 2 3 9 27 11 27 11 20 0z"/>
<path d="M2605 2820 c-3 -5 3 -10 14 -10 12 0 21 5 21 10 0 6 -6 10 -14 10 -8
0 -18 -4 -21 -10z"/>
<path d="M2398 1899 c-10 -5 -18 -17 -18 -25 0 -11 -4 -12 -19 -5 -16 9 -18 8
-15 -12 2 -12 2 -16 -2 -10 -4 8 -15 2 -34 -18 -17 -19 -30 -27 -34 -20 -10
16 -26 13 -20 -3 6 -15 -59 -81 -79 -81 -7 -1 -11 -6 -10 -13 2 -7 0 -11 -5
-11 -27 5 -42 -3 -42 -22 0 -16 -5 -20 -19 -16 -15 4 -23 -3 -34 -32 -8 -20
-12 -40 -9 -46 10 -16 11 -35 1 -41 -5 -3 -9 -12 -9 -19 0 -18 30 -8 48 16 7
10 19 16 27 13 8 -4 15 -1 15 5 0 6 6 8 14 5 14 -5 30 11 31 31 1 6 6 9 13 7
7 -1 15 5 18 13 4 8 11 15 18 15 6 0 29 16 51 36 21 20 55 43 74 51 20 9 44
25 54 36 11 13 30 22 50 22 27 0 33 5 46 38 16 43 2 93 -24 84 -7 -3 -16 -1
-18 6 -3 9 -9 8 -22 -3 -11 -9 -16 -10 -11 -2 9 15 -12 16 -36 1z m-305 -269
c-3 -10 -11 -24 -19 -31 -12 -9 -12 -6 -3 20 12 34 30 43 22 11z"/>
<path d="M1735 1869 c-4 -6 -5 -12 -2 -15 2 -3 7 2 10 11 7 17 1 20 -8 4z"/>
<path d="M2374 1689 c-19 -22 -19 -22 2 -11 12 6 24 8 28 5 3 -3 6 -1 6 5 0 6
8 13 18 15 11 3 8 5 -9 6 -15 1 -34 -8 -45 -20z"/>
<path d="M2211 1334 c0 -11 3 -14 6 -6 3 7 2 16 -1 19 -3 4 -6 -2 -5 -13z"/>
<path d="M830 3156 c0 -2 8 -10 18 -17 15 -13 16 -12 3 4 -13 16 -21 21 -21
13z"/>
<path d="M910 3150 c-8 -5 -10 -10 -5 -10 6 0 17 5 25 10 8 5 11 10 5 10 -5 0
-17 -5 -25 -10z"/>
<path d="M1007 3129 c4 -13 8 -18 11 -10 2 7 -1 18 -6 23 -8 8 -9 4 -5 -13z"/>
<path d="M910 3120 c0 -5 4 -10 9 -10 6 0 13 5 16 10 3 6 -1 10 -9 10 -9 0
-16 -4 -16 -10z"/>
<path d="M910 3091 c0 -6 -18 -22 -40 -36 -22 -14 -40 -32 -40 -41 0 -12 5
-11 20 7 l20 24 -11 -27 c-13 -29 -17 -31 -59 -29 -19 2 -22 0 -10 -8 8 -5 18
-7 22 -5 4 3 8 -1 8 -8 0 -10 2 -10 9 0 6 10 11 5 20 -20 10 -30 9 -31 -4 -14
-15 19 -15 19 -15 -2 0 -15 6 -22 19 -22 11 0 23 -4 26 -10 4 -6 -5 -10 -21
-10 -26 0 -26 -13 -1 -16 64 -6 64 -6 32 -14 l-30 -8 33 -1 c17 0 32 4 32 9 0
6 6 10 13 10 17 1 62 40 76 67 6 13 9 34 5 48 -7 30 -48 65 -75 65 -12 0 -19
7 -19 19 0 24 44 22 68 -4 16 -17 16 -17 -8 -2 -14 9 -30 13 -37 9 -7 -4 4
-14 28 -24 25 -11 39 -13 39 -5 0 13 29 -24 30 -37 0 -6 -7 -1 -16 10 -15 19
-16 19 -8 -1 20 -56 17 -76 -17 -112 -19 -19 -50 -43 -70 -53 -19 -10 -42 -27
-50 -36 -11 -14 -5 -13 26 6 22 13 44 27 49 32 15 13 48 10 40 -4 -4 -7 -3 -8
5 -4 6 4 9 11 6 16 -3 5 0 12 6 16 8 4 9 3 5 -4 -4 -7 -1 -12 9 -12 13 0 14 4
5 20 -12 23 -6 40 16 40 8 0 14 5 14 11 0 5 -3 8 -7 6 -5 -3 -6 17 -5 44 3 33
8 47 15 43 7 -3 1 3 -13 15 -14 11 -25 25 -25 32 0 7 -9 14 -20 16 -11 1 -37
6 -57 9 -25 4 -38 2 -38 -5z m-5 -41 c-3 -5 -12 -10 -18 -10 -7 0 -6 4 3 10
19 12 23 12 15 0z m15 -49 c0 -5 -7 -12 -16 -15 -14 -5 -15 -4 -4 9 14 17 20
19 20 6z m41 -8 c13 -16 12 -17 -3 -4 -10 7 -18 15 -18 17 0 8 8 3 21 -13z
m-39 -47 c7 4 10 4 6 -1 -4 -4 -3 -14 3 -22 6 -7 8 -13 5 -13 -12 0 -66 44
-66 53 0 6 9 2 19 -7 12 -11 25 -15 33 -10z m55 2 c-3 -8 -6 -5 -6 6 -1 11 2
17 5 13 3 -3 4 -12 1 -19z"/>
<path d="M1098 2966 c-10 -7 -15 -16 -11 -19 3 -4 1 -7 -4 -7 -6 0 -13 3 -16
8 -2 4 -2 1 0 -6 1 -7 -4 -24 -13 -37 -9 -13 -13 -28 -10 -33 3 -5 -6 -20 -19
-32 -14 -13 -25 -28 -25 -33 0 -15 48 33 63 62 14 28 27 52 46 89 13 25 12 26
-11 8z"/>
<path d="M662 2950 c0 -14 2 -19 5 -12 2 6 2 18 0 25 -3 6 -5 1 -5 -13z"/>
<path d="M740 2872 c0 -5 7 -15 15 -22 8 -7 15 -9 15 -6 0 4 -7 14 -15 22 -8
9 -15 11 -15 6z"/>
<path d="M790 2850 c-9 -6 -10 -10 -3 -10 6 0 15 5 18 10 8 12 4 12 -15 0z"/>
<path d="M940 2805 c-7 -9 -8 -15 -2 -15 5 0 12 7 16 15 3 8 4 15 2 15 -2 0
-9 -7 -16 -15z"/>
<path d="M3310 2310 c0 -5 5 -10 11 -10 5 0 7 5 4 10 -3 6 -8 10 -11 10 -2 0
-4 -4 -4 -10z"/>
<path d="M3375 2201 c-3 -5 -1 -12 5 -16 5 -3 10 1 10 9 0 18 -6 21 -15 7z"/>
<path d="M4115 2440 c-3 -5 -1 -10 4 -10 6 0 11 5 11 10 0 6 -2 10 -4 10 -3 0
-8 -4 -11 -10z"/>
<path d="M1481 1980 c13 -16 24 -28 27 -26 6 6 -29 56 -39 56 -5 0 0 -13 12
-30z"/>
<path d="M1001 1324 c0 -11 3 -14 6 -6 3 7 2 16 -1 19 -3 4 -6 -2 -5 -13z"/>
<path d="M1190 1236 c0 -9 5 -16 10 -16 6 0 10 4 10 9 0 6 -4 13 -10 16 -5 3
-10 -1 -10 -9z"/>
<path d="M3985 1210 c3 -5 11 -10 16 -10 6 0 7 5 4 10 -3 6 -11 10 -16 10 -6
0 -7 -4 -4 -10z"/>
<path d="M1816 4896 c21 -15 30 -14 19 3 -3 6 -14 11 -23 11 -13 0 -13 -2 4
-14z"/>
<path d="M2070 4860 c8 -5 20 -10 25 -10 6 0 3 5 -5 10 -8 5 -19 10 -25 10 -5
0 -3 -5 5 -10z"/>
<path d="M1773 4751 c-56 -40 -134 -140 -133 -168 1 -4 10 9 21 30 21 40 97
122 139 149 14 10 22 17 19 17 -3 1 -24 -12 -46 -28z"/>
<path d="M2531 4754 c-6 -15 -9 -29 -7 -32 3 -2 10 8 16 23 14 36 7 43 -9 9z"/>
<path d="M1930 4750 c-16 -5 -2 -6 35 -3 33 3 62 7 64 9 8 7 -74 2 -99 -6z"/>
<path d="M3081 4745 c-1 -23 14 -51 21 -39 3 5 8 18 12 28 5 16 4 17 -8 7 -11
-10 -15 -8 -19 6 -4 16 -5 16 -6 -2z"/>
<path d="M3132 4740 c0 -14 2 -19 5 -12 2 6 2 18 0 25 -3 6 -5 1 -5 -13z"/>
<path d="M3177 4753 c-4 -3 -7 -11 -7 -17 0 -6 5 -5 12 2 6 6 9 14 7 17 -3 3
-9 2 -12 -2z"/>
<path d="M1289 4677 c16 -20 47 -22 54 -4 3 8 -1 14 -9 14 -7 0 -11 -4 -8 -9
7 -11 -3 -10 -29 4 -20 10 -21 10 -8 -5z"/>
<path d="M2905 4640 c21 -22 41 -40 44 -40 3 0 -13 18 -34 40 -21 22 -41 40
-44 40 -3 0 13 -18 34 -40z"/>
<path d="M1375 4630 c-9 -16 -23 -30 -31 -30 -14 0 -14 3 -4 15 8 9 9 15 2 15
-23 0 -23 -22 1 -44 25 -23 26 -24 43 -5 23 25 30 24 65 -11 22 -22 29 -25 24
-11 -3 11 -1 22 5 26 8 5 5 12 -7 22 -11 9 -12 12 -3 8 8 -4 6 1 -4 9 -11 9
-26 16 -33 16 -7 0 -13 5 -13 10 0 22 -30 8 -45 -20z"/>
<path d="M1202 4625 c-11 -23 -10 -25 13 -25 27 0 33 21 12 39 -11 8 -16 5
-25 -14z"/>
<path d="M2520 4629 c-16 -30 -8 -31 13 -3 10 13 13 24 8 24 -6 0 -15 -9 -21
-21z"/>
<path d="M2981 4613 c7 -12 15 -20 18 -17 3 2 -3 12 -13 22 -17 16 -18 16 -5
-5z"/>
<path d="M1158 4585 c2 -15 0 -25 -7 -25 -6 0 -11 5 -11 12 0 15 -39 -21 -51
-47 -8 -16 -6 -16 7 3 19 26 34 29 34 6 0 -8 5 -12 11 -9 6 4 5 -2 -3 -14 -7
-12 -17 -21 -22 -21 -4 0 -3 6 3 14 8 10 9 16 1 21 -6 4 -9 1 -8 -7 2 -7 -7
-14 -19 -16 -13 -2 -23 -7 -23 -12 0 -5 6 -7 14 -4 8 3 17 1 21 -5 3 -6 1 -11
-5 -11 -6 0 -15 -11 -22 -25 l-11 -24 -19 24 c-11 14 -25 25 -33 25 -8 0 -11
7 -8 19 3 10 0 22 -6 25 -6 4 -9 1 -5 -7 3 -8 -6 -18 -22 -25 -17 -8 -24 -18
-20 -28 3 -8 2 -12 -4 -9 -6 3 -10 1 -10 -5 0 -7 15 -11 38 -10 62 3 65 2 48
-16 -17 -16 -20 -33 -10 -58 8 -20 28 -20 44 -1 11 13 17 10 48 -25 21 -25 40
-39 49 -36 8 3 11 1 8 -4 -3 -6 -1 -10 4 -10 10 0 15 20 13 41 -2 13 43 -3 56
-20 12 -14 12 -12 7 12 -6 22 -4 26 9 21 9 -3 16 -11 16 -17 0 -6 3 -7 6 -4 4
4 1 13 -5 21 -19 22 4 28 24 6 10 -11 25 -20 34 -19 10 0 7 4 -7 10 -33 13
-25 43 13 48 l30 4 -29 6 c-16 3 -31 12 -34 20 -3 8 0 11 7 7 7 -4 9 -2 5 7
-3 9 6 24 22 36 15 11 22 21 17 21 -5 0 -18 -9 -28 -20 -10 -11 -25 -20 -34
-20 -10 0 -12 3 -5 8 6 4 13 19 16 34 4 22 2 26 -14 23 -15 -3 -18 0 -14 12 4
11 2 14 -9 9 -9 -3 -15 0 -15 10 0 8 5 12 10 9 6 -3 10 -1 10 4 0 6 -12 11
-26 11 -14 0 -40 11 -58 25 l-33 25 5 -25z m62 -95 c0 -5 -2 -10 -4 -10 -3 0
-8 5 -11 10 -3 6 -1 10 4 10 6 0 11 -4 11 -10z m-135 -80 c-3 -5 -12 -10 -18
-10 -7 0 -6 4 3 10 19 12 23 12 15 0z m-35 -24 c0 -15 -14 -35 -21 -30 -15 9
-10 34 6 34 8 0 15 -2 15 -4z m165 -14 c-3 -3 -11 0 -18 7 -9 10 -8 11 6 5 10
-3 15 -9 12 -12z"/>
<path d="M2988 4553 c5 -21 7 -23 10 -9 2 10 0 22 -6 28 -6 6 -7 0 -4 -19z"/>
<path d="M3675 4570 c-3 -5 -1 -10 4 -10 6 0 11 5 11 10 0 6 -2 10 -4 10 -3 0
-8 -4 -11 -10z"/>
<path d="M3144 4554 c-18 -14 -18 -15 4 -4 12 6 22 13 22 15 0 8 -5 6 -26 -11z"/>
<path d="M3730 4549 c0 -5 5 -7 10 -4 6 3 10 8 10 11 0 2 -4 4 -10 4 -5 0 -10
-5 -10 -11z"/>
<path d="M3340 4535 c-7 -9 -11 -17 -9 -20 3 -2 10 5 17 15 14 24 10 26 -8 5z"/>
<path d="M3240 4520 c-9 -6 -10 -10 -3 -10 6 0 15 5 18 10 8 12 4 12 -15 0z"/>
<path d="M2510 4500 c-6 -11 -8 -20 -6 -20 3 0 10 9 16 20 6 11 8 20 6 20 -3
0 -10 -9 -16 -20z"/>
<path d="M2536 4498 c-9 -12 -16 -27 -16 -33 1 -5 7 1 15 15 16 29 20 9 4 -21
-9 -17 -13 -18 -26 -7 -15 12 -15 11 -2 -10 8 -12 16 -17 18 -11 2 8 6 7 12
-2 6 -10 8 -9 8 6 1 11 3 35 5 53 5 38 2 39 -18 10z"/>
<path d="M1403 4493 c9 -2 23 -2 30 0 6 3 -1 5 -18 5 -16 0 -22 -2 -12 -5z"/>
<path d="M2134 4473 c16 -20 36 -23 36 -6 0 4 -3 3 -7 0 -3 -4 -16 1 -27 10
-21 18 -21 18 -2 -4z"/>
<path d="M2454 4448 l-29 -33 33 29 c30 28 37 36 29 36 -2 0 -16 -15 -33 -32z"/>
<path d="M2429 4453 c-13 -16 -12 -17 4 -4 9 7 17 15 17 17 0 8 -8 3 -21 -13z"/>
<path d="M1830 4445 c-7 -9 -8 -15 -2 -15 5 0 12 7 16 15 3 8 4 15 2 15 -2 0
-9 -7 -16 -15z"/>
<path d="M3556 4437 c3 -10 9 -15 12 -12 3 3 0 11 -7 18 -10 9 -11 8 -5 -6z"/>
<path d="M2095 4430 c3 -5 8 -10 11 -10 2 0 4 5 4 10 0 6 -5 10 -11 10 -5 0
-7 -4 -4 -10z"/>
<path d="M3676 4407 c3 -10 9 -15 12 -12 3 3 0 11 -7 18 -10 9 -11 8 -5 -6z"/>
<path d="M1380 4376 c0 -2 7 -6 15 -10 8 -3 15 -1 15 4 0 6 -7 10 -15 10 -8 0
-15 -2 -15 -4z"/>
<path d="M1440 4359 c0 -5 9 -9 20 -9 11 0 20 2 20 4 0 2 -9 6 -20 9 -11 3
-20 1 -20 -4z"/>
<path d="M1560 4346 c0 -2 7 -7 16 -10 8 -3 12 -2 9 4 -6 10 -25 14 -25 6z"/>
<path d="M3393 4314 c0 -17 2 -22 7 -13 5 6 6 18 3 26 -8 19 -10 16 -10 -13z"/>
<path d="M1400 4320 c0 -5 5 -10 10 -10 6 0 10 5 10 10 0 6 -4 10 -10 10 -5 0
-10 -4 -10 -10z"/>
<path d="M979 4307 c-20 -15 -42 -57 -35 -65 3 -3 6 0 6 6 0 6 12 24 26 41 28
33 28 38 3 18z"/>
<path d="M1192 4290 c0 -14 2 -19 5 -12 2 6 2 18 0 25 -3 6 -5 1 -5 -13z"/>
<path d="M1360 4279 c-14 -12 -34 -27 -44 -35 -11 -7 -18 -16 -15 -18 2 -2 24
13 49 35 46 39 55 55 10 18z"/>
<path d="M1260 4234 c0 -10 5 -26 10 -34 8 -11 9 -7 4 15 -8 37 -14 45 -14 19z"/>
<path d="M560 4205 c0 -8 5 -15 10 -15 6 0 10 7 10 15 0 8 -4 15 -10 15 -5 0
-10 -7 -10 -15z"/>
<path d="M408 4173 c7 -3 16 -2 19 1 4 3 -2 6 -13 5 -11 0 -14 -3 -6 -6z"/>
<path d="M588 4163 c7 -3 16 -2 19 1 4 3 -2 6 -13 5 -11 0 -14 -3 -6 -6z"/>
<path d="M4400 4093 c13 -18 25 -33 27 -33 8 0 -17 38 -33 51 -11 9 -9 2 6
-18z"/>
<path d="M586 4101 c-4 -7 -5 -15 -2 -18 9 -9 19 4 14 18 -4 11 -6 11 -12 0z"/>
<path d="M185 4048 l-50 -53 53 50 c48 46 57 55 49 55 -1 0 -25 -24 -52 -52z"/>
<path d="M4165 4079 c-4 -6 -5 -12 -2 -15 2 -3 7 2 10 11 7 17 1 20 -8 4z"/>
<path d="M4034 4048 l-19 -23 23 19 c12 11 22 21 22 23 0 8 -8 2 -26 -19z"/>
<path d="M220 4031 c0 -12 5 -21 10 -21 6 0 10 6 10 14 0 8 -4 18 -10 21 -5 3
-10 -3 -10 -14z"/>
<path d="M109 3963 c-13 -16 -12 -17 4 -4 9 7 17 15 17 17 0 8 -8 3 -21 -13z"/>
<path d="M4414 3964 c-18 -14 -18 -15 4 -4 12 6 22 13 22 15 0 8 -5 6 -26 -11z"/>
<path d="M79 3913 c-5 -14 -8 -30 -6 -36 1 -5 8 7 14 27 13 42 7 49 -8 9z"/>
<path d="M4319 3863 c-13 -16 -12 -17 4 -4 16 13 21 21 13 21 -2 0 -10 -8 -17
-17z"/>
<path d="M85 3840 c3 -5 8 -10 11 -10 2 0 4 5 4 10 0 6 -5 10 -11 10 -5 0 -7
-4 -4 -10z"/>
<path d="M4366 3773 c-6 -14 -5 -15 5 -6 7 7 10 15 7 18 -3 3 -9 -2 -12 -12z"/>
<path d="M4339 3733 c-13 -16 -12 -17 4 -4 16 13 21 21 13 21 -2 0 -10 -8 -17
-17z"/>
<path d="M515 3440 c-3 -6 1 -7 9 -4 18 7 21 14 7 14 -6 0 -13 -4 -16 -10z"/>
<path d="M265 3411 c-3 -5 -1 -12 5 -16 5 -3 10 1 10 9 0 18 -6 21 -15 7z"/>
<path d="M469 3403 c-13 -16 -12 -17 4 -4 9 7 17 15 17 17 0 8 -8 3 -21 -13z"/>
<path d="M419 3363 c-26 -29 -69 -105 -69 -119 1 -5 11 9 23 31 l22 40 6 -90
c7 -92 48 -238 76 -272 17 -21 20 -32 -30 102 -31 84 -44 208 -25 232 12 15 2
47 -12 38 -19 -12 -10 9 17 37 15 15 24 28 22 28 -3 0 -16 -12 -30 -27z m-2
-65 c-3 -8 -6 -5 -6 6 -1 11 2 17 5 13 3 -3 4 -12 1 -19z"/>
<path d="M466 3371 c-3 -5 1 -14 8 -20 12 -10 13 -8 9 8 -6 23 -9 25 -17 12z"/>
<path d="M430 3339 c0 -5 5 -7 10 -4 6 3 10 8 10 11 0 2 -4 4 -10 4 -5 0 -10
-5 -10 -11z"/>
<path d="M470 3291 c0 -6 4 -13 10 -16 6 -3 7 1 4 9 -7 18 -14 21 -14 7z"/>
<path d="M336 3215 c-9 -26 -7 -32 5 -12 6 10 9 21 6 23 -2 3 -7 -2 -11 -11z"/>
<path d="M362 3185 c0 -16 2 -22 5 -12 2 9 2 23 0 30 -3 6 -5 -1 -5 -18z"/>
<path d="M4820 3188 c0 -4 7 -8 15 -8 8 0 15 4 15 8 0 5 -7 9 -15 9 -8 0 -15
-4 -15 -9z"/>
<path d="M4670 3173 c0 -27 12 -29 31 -6 12 14 12 15 0 9 -8 -5 -17 -3 -22 5
-6 10 -9 8 -9 -8z"/>
<path d="M4801 3174 c0 -11 3 -14 6 -6 3 7 2 16 -1 19 -3 4 -6 -2 -5 -13z"/>
<path d="M311 3134 c0 -11 3 -14 6 -6 3 7 2 16 -1 19 -3 4 -6 -2 -5 -13z"/>
<path d="M302 3070 c0 -14 2 -19 5 -12 2 6 2 18 0 25 -3 6 -5 1 -5 -13z"/>
<path d="M456 3055 c4 -8 8 -15 10 -15 2 0 4 7 4 15 0 8 -4 15 -10 15 -5 0 -7
-7 -4 -15z"/>
<path d="M376 3027 c3 -10 9 -15 12 -12 3 3 0 11 -7 18 -10 9 -11 8 -5 -6z"/>
<path d="M480 3004 c0 -6 7 -19 16 -30 14 -18 14 -18 3 6 -14 31 -19 36 -19
24z"/>
<path d="M412 2959 c12 -22 28 -45 36 -51 7 -7 -1 12 -19 40 -38 62 -50 69
-17 11z"/>
<path d="M340 2900 c14 -9 99 -15 89 -6 -2 2 -26 7 -54 10 -35 5 -46 3 -35 -4z"/>
<path d="M440 2886 c0 -2 9 -6 20 -9 11 -3 18 -1 14 4 -5 9 -34 13 -34 5z"/>
<path d="M438 2804 c40 -18 34 -32 -18 -40 -22 -4 -37 -10 -34 -15 8 -13 104
26 104 43 0 4 -3 7 -7 6 -5 -1 -21 4 -36 10 -41 17 -48 13 -9 -4z"/>
<path d="M526 2785 c4 -8 8 -15 10 -15 2 0 4 7 4 15 0 8 -4 15 -10 15 -5 0 -7
-7 -4 -15z"/>
<path d="M480 2746 c0 -2 7 -7 16 -10 8 -3 12 -2 9 4 -6 10 -25 14 -25 6z"/>
<path d="M329 2685 c17 -34 31 -51 31 -39 0 7 -9 22 -21 35 -16 19 -18 20 -10
4z"/>
<path d="M230 2620 c-9 -6 -10 -10 -3 -10 6 0 15 5 18 10 8 12 4 12 -15 0z"/>
<path d="M133 2498 c-30 -38 -33 -57 -17 -99 16 -39 81 -99 108 -99 6 0 -3 8
-19 19 -75 45 -106 121 -68 163 9 10 14 20 11 23 -3 3 -10 0 -15 -7z"/>
<path d="M200 2275 c-6 -8 -10 -19 -8 -24 1 -6 8 1 15 14 13 28 11 31 -7 10z"/>
<path d="M173 2193 c-1 -17 2 -22 7 -13 7 11 12 11 27 0 10 -8 7 -2 -6 13 -14
15 -25 27 -25 27 -1 0 -2 -12 -3 -27z"/>
<path d="M290 2149 c-7 -11 -9 -23 -6 -27 3 -3 6 -2 6 3 0 4 8 1 18 -6 15 -13
16 -12 3 3 -7 10 -11 25 -7 33 8 22 -2 18 -14 -6z"/>
<path d="M609 2143 c-13 -16 -12 -17 4 -4 9 7 17 15 17 17 0 8 -8 3 -21 -13z"/>
<path d="M131 2064 c0 -12 7 -28 17 -35 15 -12 16 -12 6 1 -7 8 -14 24 -17 35
-4 19 -5 19 -6 -1z"/>
<path d="M478 2002 c-16 -9 -28 -20 -28 -25 0 -5 14 1 30 13 17 12 30 23 30
26 0 6 -2 5 -32 -14z"/>
<path d="M222 1962 c-7 -29 -12 -63 -11 -75 1 -12 7 7 15 43 8 35 13 69 11 75
-2 5 -9 -14 -15 -43z"/>
<path d="M131 1991 c-15 -10 -8 -75 9 -86 5 -3 4 8 -1 25 -16 44 -6 58 43 63
l43 4 -40 1 c-22 1 -46 -2 -54 -7z"/>
<path d="M408 1970 c2 -8 8 -27 12 -42 5 -14 6 -29 4 -31 -3 -2 2 -7 11 -11
10 -3 13 -2 10 4 -4 6 -3 10 2 9 27 -5 31 3 13 21 -11 11 -20 25 -20 31 0 5
-4 7 -10 4 -5 -3 -10 -2 -10 4 0 5 3 11 8 14 4 2 2 2 -5 1 -6 -2 -14 0 -16 4
-2 4 -2 0 1 -8z"/>
<path d="M122 1874 c-28 -19 -28 -46 -1 -70 22 -19 22 -19 9 3 -12 18 -11 25
4 48 21 33 17 40 -12 19z"/>
<path d="M457 1883 c-13 -13 -7 -23 26 -38 23 -12 27 -12 15 -2 -10 8 -18 22
-18 31 0 16 -11 21 -23 9z"/>
<path d="M203 1810 c0 -30 2 -43 4 -27 2 15 2 39 0 55 -2 15 -4 2 -4 -28z"/>
<path d="M351 1836 c-8 -9 -11 -19 -7 -23 9 -9 29 13 24 27 -2 8 -8 7 -17 -4z"/>
<path d="M470 1781 c0 -5 11 -16 25 -25 16 -11 23 -12 20 -3 -7 16 -45 40 -45
28z"/>
<path d="M211 1734 c-1 -33 36 -133 69 -183 27 -42 130 -153 130 -140 0 4 -27
34 -59 67 -63 66 -102 134 -125 222 -8 30 -15 46 -15 34z"/>
<path d="M429 1637 c-22 -14 -34 -28 -31 -39 2 -9 -1 -25 -6 -35 -5 -10 -6
-27 -1 -38 8 -19 8 -19 15 2 3 13 10 20 15 17 5 -3 16 -1 25 4 11 6 13 11 5
16 -20 13 -12 52 14 66 14 7 25 17 25 22 0 14 -24 9 -61 -15z"/>
<path d="M4657 1557 l-18 -32 21 21 c13 12 21 27 19 33 -2 6 -12 -4 -22 -22z"/>
<path d="M500 1535 c0 -8 4 -15 10 -15 5 0 7 7 4 15 -4 8 -8 15 -10 15 -2 0
-4 -7 -4 -15z"/>
<path d="M4500 1546 c0 -2 7 -7 16 -10 8 -3 12 -2 9 4 -6 10 -25 14 -25 6z"/>
<path d="M616 1531 c-3 -4 4 -7 14 -8 11 -1 22 2 24 6 3 4 -4 7 -14 8 -11 1
-22 -2 -24 -6z"/>
<path d="M4771 1449 c-35 -34 -38 -47 -16 -55 26 -11 65 23 65 56 0 38 -11 38
-49 -1z"/>
<path d="M585 1435 c-23 -11 -26 -14 -10 -15 11 0 31 -3 45 -6 18 -4 21 -3 11
4 -7 5 -10 15 -7 21 9 14 -1 13 -39 -4z"/>
<path d="M785 1100 c3 -5 11 -10 16 -10 6 0 7 5 4 10 -3 6 -11 10 -16 10 -6 0
-7 -4 -4 -10z"/>
<path d="M870 1031 c0 -10 19 -25 25 -20 1 2 -3 10 -11 17 -8 7 -14 8 -14 3z"/>
<path d="M4305 940 c-3 -5 -1 -10 4 -10 6 0 11 5 11 10 0 6 -2 10 -4 10 -3 0
-8 -4 -11 -10z"/>
<path d="M4216 904 c-5 -14 -4 -15 9 -4 17 14 19 20 6 20 -5 0 -12 -7 -15 -16z"/>
<path d="M908 883 c7 -3 16 -2 19 1 4 3 -2 6 -13 5 -11 0 -14 -3 -6 -6z"/>
<path d="M4170 855 c-13 -14 -19 -25 -13 -25 6 0 13 7 17 15 3 8 12 15 21 15
8 0 15 5 15 10 0 17 -15 11 -40 -15z"/>
<path d="M3924 668 l-19 -23 23 19 c21 18 27 26 19 26 -2 0 -12 -10 -23 -22z"/>
<path d="M3869 623 l-24 -28 28 24 c15 14 27 26 27 28 0 8 -8 1 -31 -24z"/>
<path d="M1430 516 c0 -2 8 -10 18 -17 15 -13 16 -12 3 4 -13 16 -21 21 -21
13z"/>
<path d="M3692 508 c-19 -19 -14 -30 8 -18 11 6 20 15 20 20 0 14 -14 12 -28
-2z"/>
<path d="M1260 503 c0 -4 5 -15 10 -23 8 -13 10 -13 10 2 0 9 -4 20 -10 23 -5
3 -10 3 -10 -2z"/>
<path d="M3590 346 c0 -2 7 -7 16 -10 8 -3 12 -2 9 4 -6 10 -25 14 -25 6z"/>
<path d="M2695 130 c-3 -5 -2 -10 4 -10 5 0 13 5 16 10 3 6 2 10 -4 10 -5 0
-13 -4 -16 -10z"/>
</g>
</svg>
