<?xml version="1.0" standalone="no"?>
<!DOCTYPE svg PUBLIC "-//W3C//DTD SVG 20010904//EN"
 "http://www.w3.org/TR/2001/REC-SVG-20010904/DTD/svg10.dtd">
<svg version="1.0" xmlns="http://www.w3.org/2000/svg"
 width="512.000000pt" height="512.000000pt" viewBox="0 0 512.000000 512.000000"
 preserveAspectRatio="xMidYMid meet">

<g transform="translate(0.000000,512.000000) scale(0.100000,-0.100000)"
fill="#000000" stroke="none">
<path d="M2806 5014 c-14 -15 -26 -30 -26 -34 0 -5 -10 -6 -22 -3 -20 4 -21 3
-5 -7 22 -14 22 -31 0 -23 -11 4 -14 3 -9 -6 7 -11 -2 -11 -64 5 -8 2 -36 -7
-62 -20 -27 -13 -48 -20 -48 -17 0 9 -72 7 -87 -2 -7 -4 -18 -26 -24 -47 -10
-32 -17 -40 -35 -40 -13 0 -26 5 -29 11 -4 6 -14 8 -22 5 -8 -3 -12 -2 -9 3 5
7 -53 14 -112 13 -26 0 -62 -28 -62 -48 0 -8 -6 -11 -15 -8 -8 4 -15 1 -15 -7
0 -7 -3 -9 -7 -6 -3 4 -16 -2 -29 -14 -12 -11 -29 -21 -38 -23 -8 -1 -24 -13
-36 -26 -11 -12 -20 -19 -20 -14 0 6 5 15 12 22 9 9 4 9 -22 2 -46 -13 -49 -6
-14 33 16 18 10 14 -13 -10 -23 -24 -44 -43 -47 -43 -14 0 -46 36 -46 53 0 33
-29 74 -62 88 -74 31 -190 -3 -253 -72 -29 -32 -35 -47 -35 -82 0 -45 12 -62
58 -86 19 -10 27 -8 56 14 18 14 36 25 39 25 4 0 8 -17 8 -37 2 -33 2 -34 6
-8 9 73 10 75 57 75 56 0 106 -10 106 -21 0 -5 -9 -9 -20 -9 -37 0 -88 -28
-95 -51 -11 -34 -35 -55 -45 -40 -10 17 -21 -12 -14 -36 5 -15 4 -16 -5 -3 -7
10 -11 11 -11 3 0 -8 -13 -13 -30 -13 -46 0 -80 -20 -80 -47 0 -21 -3 -23 -32
-18 -43 8 -90 55 -95 95 -1 17 -10 44 -18 60 -13 25 -22 30 -53 30 -45 0 -75
-19 -92 -59 -10 -26 -9 -34 14 -74 20 -34 25 -51 20 -77 -6 -26 -3 -36 13 -49
11 -9 31 -45 43 -81 25 -76 37 -93 59 -85 11 3 11 1 -3 -9 -13 -11 -17 -23
-13 -43 3 -18 0 -31 -11 -40 -16 -12 -16 -14 1 -27 17 -13 14 -51 -4 -40 -5 3
-9 -2 -9 -11 0 -26 -28 -28 -67 -5 -28 16 -49 21 -87 18 -49 -3 -51 -2 -57 27
l-7 30 -1 -27 c-1 -27 -4 -28 -49 -28 -26 0 -53 5 -60 12 -9 9 -16 7 -31 -7
-15 -12 -29 -16 -51 -12 -24 5 -33 2 -46 -18 -9 -14 -21 -22 -27 -18 -5 3 -7
2 -4 -4 4 -6 -4 -20 -18 -33 -26 -25 -23 -54 6 -47 17 5 17 3 2 -19 -20 -30
-27 -30 -52 3 -12 14 -24 24 -27 21 -2 -3 8 -21 23 -39 15 -19 20 -28 10 -20
-15 12 -20 10 -43 -14 -14 -15 -22 -30 -19 -34 4 -3 11 2 16 12 11 20 63 24
56 5 -2 -7 2 -30 10 -50 20 -51 14 -82 -17 -86 -14 -2 -29 -10 -33 -18 -10
-18 -37 -18 -37 1 0 7 8 18 17 24 21 11 11 25 -26 36 -18 5 -22 4 -17 -6 4 -8
0 -5 -8 5 -18 23 -47 31 -40 11 3 -7 -8 -28 -24 -46 -16 -19 -33 -41 -38 -51
-5 -9 -26 -34 -46 -57 -21 -22 -38 -46 -38 -53 1 -7 14 2 30 21 33 39 92 52
87 20 -4 -21 -26 -49 -39 -49 -6 0 0 9 13 20 13 10 19 19 13 20 -6 0 -17 -7
-24 -15 -7 -8 -16 -12 -21 -9 -5 3 -9 1 -9 -4 0 -5 14 -15 30 -22 24 -10 33
-22 42 -55 10 -36 17 -44 41 -49 23 -5 28 -10 24 -26 -3 -11 -1 -20 5 -20 5 0
7 -4 3 -9 -3 -5 -1 -12 5 -16 21 -13 9 -25 -24 -25 -21 0 -36 -6 -40 -15 -7
-20 3 -45 18 -45 25 0 66 -26 66 -42 0 -9 5 -20 10 -23 14 -9 8 -37 -10 -52
-13 -10 -13 -12 3 -18 9 -4 17 -11 17 -17 0 -5 -5 -6 -12 -2 -7 5 -9 2 -5 -8
9 -24 -27 -51 -58 -46 -19 4 -25 2 -21 -8 3 -8 1 -14 -4 -14 -10 0 -7 -55 5
-109 8 -32 7 -33 -14 -22 -11 7 -21 8 -21 4 0 -4 -4 -2 -9 6 -5 8 -7 25 -5 38
3 14 1 22 -4 19 -5 -3 -12 8 -16 26 -6 30 -7 31 -26 13 -32 -29 -46 -88 -29
-127 8 -18 14 -36 15 -40 1 -5 3 -11 4 -15 2 -5 4 -21 4 -37 l2 -28 -32 37
c-25 31 -32 34 -37 21 -7 -18 19 -93 29 -83 3 3 0 16 -7 29 l-12 23 22 -19
c12 -11 19 -26 17 -33 -3 -7 0 -12 6 -10 22 5 17 -20 -6 -31 -18 -8 -27 -22
-32 -49 -4 -21 -9 -42 -13 -48 -3 -5 -4 -20 -2 -32 1 -13 -2 -23 -8 -23 -6 0
-11 -5 -11 -11 0 -5 4 -7 10 -4 6 3 7 -1 4 -9 -3 -9 -11 -14 -16 -13 -26 5
-30 -189 -5 -227 18 -27 19 -66 2 -60 -6 3 -22 1 -36 -5 l-24 -9 27 -10 c37
-15 41 -26 21 -61 -27 -46 -54 -57 -89 -35 l-29 18 22 -22 c12 -12 27 -22 32
-22 13 0 1 -32 -17 -46 -11 -8 -8 -15 20 -36 18 -14 42 -28 54 -32 13 -4 25
-21 33 -46 14 -49 50 -128 52 -115 0 6 2 21 4 35 1 14 -6 44 -17 66 -11 23
-18 48 -15 55 4 10 6 8 6 -4 2 -33 21 -59 35 -48 8 7 22 7 42 1 l29 -10 -32 3
c-26 3 -30 1 -22 -9 6 -8 21 -12 32 -11 38 4 34 -39 -5 -63 -18 -11 -28 -20
-22 -20 5 0 19 7 30 15 25 19 25 19 72 -15 l41 -29 -26 -30 c-18 -21 -30 -27
-38 -21 -7 6 -15 7 -19 3 -4 -4 -9 2 -12 13 -3 11 -15 26 -27 33 -22 14 -22
14 -3 -8 27 -30 7 -26 -26 6 -15 15 -28 22 -28 16 0 -14 109 -98 140 -108 14
-4 35 -15 48 -23 21 -13 21 -16 7 -32 -8 -9 -15 -28 -15 -43 0 -21 4 -25 17
-20 14 4 14 2 -2 -9 -11 -8 -43 -23 -72 -32 -68 -23 -132 -70 -145 -107 -8
-22 -23 -36 -52 -49 -42 -17 -186 -110 -173 -110 4 0 19 7 33 16 13 9 27 14
30 11 5 -5 -107 -67 -121 -67 -4 0 -3 5 1 11 5 8 1 8 -14 0 -12 -6 -24 -17
-28 -24 -5 -8 -2 -7 9 2 10 8 19 12 21 10 2 -2 -42 -47 -98 -100 l-102 -95 56
4 c30 3 64 8 75 12 11 4 37 1 59 -7 22 -7 87 -14 144 -16 l105 -2 39 -62 c27
-43 44 -60 54 -56 8 3 25 -3 37 -14 39 -36 46 -36 40 -1 -2 18 -11 43 -19 55
-16 25 -19 47 -5 39 5 -4 11 0 14 6 4 10 7 11 18 1 7 -7 21 -13 31 -13 10 0
27 -17 40 -40 26 -45 48 -56 78 -40 27 14 26 15 33 -40 3 -25 9 -54 13 -65 7
-18 6 -19 -9 -6 -15 12 -17 12 -12 -1 4 -11 -8 -21 -44 -37 -61 -26 -68 -26
-128 0 -51 22 -347 121 -398 133 -64 16 -7 -13 80 -39 107 -33 111 -35 94 -47
-9 -6 -3 -7 17 -3 45 9 221 -67 387 -167 153 -92 159 -97 150 -111 -3 -6 -1
-7 5 -3 13 8 238 -143 234 -156 -1 -5 2 -7 7 -4 5 3 59 -44 119 -105 95 -95
115 -110 139 -107 l28 3 -21 20 c-53 50 -159 142 -182 157 -14 9 -30 24 -35
33 -13 25 90 -30 133 -70 19 -18 69 -63 110 -101 41 -37 99 -89 128 -116 l52
-48 611 0 610 0 -21 33 -22 32 32 -33 c17 -19 34 -32 36 -29 11 11 -115 131
-190 182 -44 30 -92 63 -106 74 -14 11 -37 21 -52 21 -19 0 -26 4 -22 13 3 8
-14 30 -41 51 -47 39 -54 58 -30 82 11 12 22 13 59 3 58 -14 105 0 170 55 50
41 136 150 136 172 0 6 11 31 25 56 45 81 76 188 53 188 -6 0 -8 3 -5 7 4 3 2
12 -5 20 -8 10 -7 17 8 29 10 9 13 13 7 9 -9 -4 -11 -1 -7 9 3 9 11 16 18 16
6 0 31 32 56 71 25 39 53 75 64 81 15 8 18 7 14 -3 -3 -8 -35 -99 -71 -204
-36 -104 -80 -227 -96 -273 -17 -46 -27 -81 -23 -78 5 3 19 -16 31 -43 12 -26
51 -93 88 -147 108 -162 115 -195 56 -258 -36 -37 -36 -38 -7 -18 17 12 37 28
44 37 11 14 14 13 27 -2 13 -17 14 -16 8 5 -4 13 -2 22 5 22 6 0 8 5 3 13 -11
18 -12 37 -2 37 6 0 7 4 4 10 -10 15 28 12 52 -5 12 -8 27 -32 34 -53 7 -20
14 -31 16 -24 8 21 23 2 23 -29 0 -16 4 -29 10 -29 5 0 9 -3 8 -8 -4 -18 16
-84 26 -88 6 -2 101 -3 210 -2 l198 3 -43 65 c-23 36 -60 92 -82 124 -21 32
-40 70 -42 85 -2 23 1 21 36 -19 21 -25 39 -41 39 -37 0 5 -21 51 -46 101 -51
101 -52 119 -10 171 20 25 26 28 40 16 9 -7 16 -10 16 -6 0 4 7 2 15 -5 8 -7
15 -8 15 -3 0 5 -11 16 -25 23 -14 7 -25 16 -25 19 0 10 132 181 139 181 4 0
-22 30 -58 68 -100 102 -292 342 -285 354 4 6 3 8 -4 5 -5 -4 -22 7 -36 23
-23 28 -24 33 -11 62 13 32 44 56 32 25 -3 -8 0 -23 8 -34 12 -17 14 -16 21
12 15 65 39 72 43 13 1 -24 5 -46 10 -50 4 -5 5 7 3 25 -2 19 3 40 13 52 16
20 16 20 10 -2 -4 -14 -2 -23 4 -23 6 0 11 14 11 30 0 17 5 30 10 30 6 0 10
-7 10 -15 0 -8 7 -15 15 -15 8 0 15 5 15 10 0 6 7 10 15 10 30 0 46 -74 17
-85 -7 -2 -24 6 -38 20 l-24 24 -1 -27 c-1 -15 -1 -30 0 -34 0 -4 -10 -10 -24
-14 -14 -3 -22 -10 -19 -15 3 -5 16 -1 30 7 31 21 37 15 40 -41 2 -40 0 -45
-19 -45 -16 0 -18 -3 -9 -12 16 -16 15 -29 0 -27 -24 3 -38 -1 -38 -10 0 -5
15 -5 33 -2 17 4 32 12 32 18 0 6 4 15 9 20 5 5 6 3 2 -5 -4 -6 -2 -12 3 -12
6 0 11 7 11 16 0 14 3 14 15 4 8 -7 15 -18 15 -24 0 -6 -5 -4 -10 4 -8 13 -10
12 -10 -2 0 -16 11 -23 33 -19 5 1 6 -3 3 -8 -4 -5 5 -22 18 -38 17 -21 21
-30 11 -30 -8 0 -12 4 -9 9 3 4 -3 5 -12 1 -11 -4 -13 -8 -6 -11 7 -2 12 -9
12 -16 0 -25 62 -97 107 -126 58 -37 72 -38 38 -4 -28 28 -28 41 2 26 10 -5
23 -7 29 -5 6 2 14 -4 18 -14 3 -10 13 -29 21 -43 11 -18 15 -20 15 -8 0 9 -7
23 -15 32 -8 8 -15 17 -15 19 0 3 37 7 83 10 90 5 106 8 158 30 25 10 42 12
55 5 18 -9 18 -8 -1 7 -11 8 -24 14 -30 11 -5 -2 -19 -7 -30 -11 l-20 -7 20
13 c11 7 36 25 56 40 20 16 39 26 41 23 9 -9 58 19 58 33 0 8 6 13 13 12 32
-4 40 0 26 17 -7 8 -21 13 -31 11 -23 -7 -23 -7 12 60 29 55 30 60 19 108 -6
27 -16 55 -21 61 -5 8 -3 14 6 17 8 3 17 1 20 -6 3 -9 5 -9 5 0 1 14 129 75
141 68 5 -3 10 -2 12 2 1 5 20 16 40 27 126 64 280 306 338 532 36 138 38 208
9 347 -48 242 -171 388 -409 488 -34 15 -48 25 -37 27 25 5 23 52 -2 52 -11 0
-23 -5 -26 -11 -5 -7 -14 -4 -26 7 -11 10 -19 12 -19 6 0 -7 -5 -12 -11 -12
-7 0 -9 10 -7 25 3 13 2 22 -2 20 -4 -2 -19 1 -32 7 -26 13 -34 55 -13 70 5 4
0 6 -11 6 -18 -2 -20 -6 -14 -40 7 -38 -2 -49 -26 -30 -5 4 -2 0 7 -9 10 -9
18 -29 19 -45 3 -43 1 -51 -11 -34 -8 11 -12 12 -16 2 -2 -6 -9 -9 -14 -6 -6
3 -3 17 7 32 l17 27 -26 -24 -26 -23 -26 26 c-14 15 -31 23 -37 20 -7 -4 -8
-2 -4 5 4 6 16 9 27 6 22 -7 24 3 6 27 -12 15 -14 15 -26 -4 -13 -21 -14 -21
-27 12 -10 23 -11 37 -4 44 5 5 10 18 10 28 0 16 7 19 48 17 26 -1 58 -6 72
-10 21 -7 22 -6 8 3 -15 11 -14 13 9 25 14 7 29 10 34 7 5 -3 9 2 9 10 0 8 8
20 18 26 15 9 14 10 -5 5 -18 -5 -23 -2 -23 12 0 11 3 14 8 7 4 -6 15 -8 24
-5 16 5 16 9 4 32 -7 14 -11 34 -10 44 2 11 -1 24 -5 30 -4 5 -8 26 -8 45 -1
19 1 27 4 18 2 -10 10 -15 19 -11 18 6 19 -28 2 -45 -9 -9 -9 -12 1 -12 11 0
11 -3 1 -15 -7 -8 -8 -15 -3 -15 6 0 17 15 25 33 8 17 13 27 11 20 -1 -7 3
-15 9 -19 6 -4 8 -3 5 2 -3 6 -2 16 3 24 6 10 2 17 -12 24 -12 6 -24 18 -26
26 -4 12 -3 13 10 3 8 -7 18 -10 21 -7 3 4 13 4 21 1 13 -5 14 -12 6 -33 -15
-38 -4 -42 14 -5 9 17 21 30 27 28 6 -1 16 7 22 18 7 10 19 26 27 35 9 8 10
11 2 6 -21 -15 -36 16 -15 32 16 11 16 12 0 12 -12 0 -17 8 -17 26 0 14 4 23
10 19 9 -6 16 35 10 60 -1 6 -3 15 -3 22 0 7 -4 10 -8 7 -11 -6 -27 28 -22 44
3 7 -3 22 -13 33 -16 18 -16 19 6 19 18 0 20 3 11 14 -12 15 -7 38 19 76 21
31 25 112 8 142 -7 13 -12 26 -13 30 0 3 -3 10 -7 14 -12 11 -9 36 3 28 6 -3
4 8 -5 24 -9 17 -13 39 -9 49 5 14 1 13 -19 -6 -24 -23 -54 -34 -69 -26 -3 3
11 23 32 45 64 67 64 117 1 179 -33 32 -43 36 -85 35 -39 -1 -45 1 -36 12 6 8
18 14 25 14 8 0 14 5 14 11 0 5 -4 7 -10 4 -13 -8 -13 -4 5 38 8 20 14 49 14
64 -1 25 -2 24 -8 -7 -9 -46 -30 -82 -42 -75 -14 9 -11 17 4 10 6 -4 4 0 -5 8
-10 8 -15 17 -11 21 4 4 0 4 -8 1 -31 -12 -49 42 -50 148 0 10 -11 22 -25 27
-27 11 -34 23 -6 13 12 -4 14 -3 7 5 -5 6 -30 13 -55 16 -25 2 -49 5 -55 6 -5
0 -3 6 5 13 8 7 17 26 18 44 3 32 -27 115 -45 126 -6 4 -1 -11 9 -33 12 -23
17 -48 13 -58 -3 -9 -6 -19 -5 -21 1 -2 -4 -7 -12 -12 -7 -5 -14 -13 -14 -19
-3 -24 -6 -24 -15 -1 -5 13 -7 26 -4 29 3 3 5 -1 5 -9 0 -8 6 -5 15 9 15 21
14 24 -20 58 -31 30 -33 35 -13 29 19 -6 21 -5 10 6 -10 11 -16 11 -34 0 -19
-12 -23 -11 -34 4 -8 10 -11 22 -8 26 3 5 -2 9 -11 9 -11 0 -14 -7 -11 -27 5
-25 4 -26 -8 -10 -7 9 -18 17 -25 17 -16 0 -14 20 4 26 18 7 20 25 3 21 -7 -1
-15 13 -18 33 -6 35 -6 34 -12 -13 -7 -56 -24 -82 -33 -51 -17 51 -27 65 -66
85 -23 11 -51 30 -63 41 -20 18 -22 18 -31 2 -5 -9 -20 -29 -32 -43 l-21 -26
-29 28 c-16 15 -40 27 -54 27 -24 1 -24 1 -4 17 19 15 19 15 -6 9 -26 -6 -26
-5 -21 45 4 46 2 53 -29 85 -40 41 -57 42 -110 7 -43 -28 -61 -26 -83 11 -9
14 -5 23 24 48 19 17 25 25 13 19 -12 -6 -34 -26 -50 -46 -35 -42 -61 -39 -87
9 -10 19 -29 40 -44 47 -34 19 -130 16 -169 -4 -36 -19 -72 -66 -65 -86 3 -10
-3 -11 -29 -6 -61 13 -74 41 -45 98 18 34 16 34 -18 1z m234 -8 c0 -2 -7 -6
-15 -10 -8 -3 -15 -1 -15 4 0 6 7 10 15 10 8 0 15 -2 15 -4z m43 -3 c-7 -2
-19 -2 -25 0 -7 3 -2 5 12 5 14 0 19 -2 13 -5z m-86 -18 c0 -8 -6 -16 -14 -19
-15 -6 -15 -4 -7 18 8 20 21 21 21 1z m137 -1 c5 -14 4 -15 -9 -4 -17 14 -19
20 -6 20 5 0 12 -7 15 -16z m-177 -18 c0 -8 -9 -17 -19 -19 -22 -6 -23 -3 -2
17 19 20 21 20 21 2z m-434 -85 c-2 -11 2 -21 8 -21 5 0 7 -5 3 -11 -3 -6 -9
-7 -13 -3 -3 5 -13 9 -21 9 -19 0 -26 35 -8 46 20 13 33 4 31 -20z m162 0
c-16 -15 -36 -26 -42 -24 -19 7 -16 21 8 34 15 8 19 8 15 0 -10 -16 3 -13 20
4 9 8 18 15 22 15 4 0 -6 -13 -23 -29z m-134 -4 c-10 -9 -11 -8 -5 6 3 10 9
15 12 12 3 -3 0 -11 -7 -18z m-421 -145 c-11 -23 -23 -42 -26 -42 -2 0 0 9 6
19 15 29 12 35 -7 20 -10 -7 -5 1 11 19 16 17 31 30 33 29 1 -2 -6 -22 -17
-45z m-590 -323 c0 -11 -4 -18 -9 -14 -5 3 -12 1 -16 -5 -3 -5 -1 -10 5 -10
20 0 1 -18 -25 -22 -27 -6 -32 1 -13 20 9 9 9 12 0 12 -6 0 -14 -11 -18 -24
-5 -20 -9 -23 -19 -13 -7 7 -10 17 -7 22 3 6 -2 4 -11 -4 -11 -8 -17 -9 -17
-2 0 17 72 60 103 60 21 1 27 -4 27 -20z m2710 -193 c0 -3 -4 -8 -10 -11 -5
-3 -10 -1 -10 4 0 6 5 11 10 11 6 0 10 -2 10 -4z m146 -203 c-3 -4 -6 -1 -6 6
0 7 -4 9 -10 6 -6 -4 -7 1 -3 11 6 15 7 15 15 -1 6 -9 7 -19 4 -22z m13 -29
c-6 -16 -13 -23 -16 -16 -3 6 -8 10 -12 8 -4 -3 -8 1 -8 9 0 11 4 12 14 4 10
-9 14 -4 20 22 4 19 9 27 10 18 2 -8 -1 -29 -8 -45z m-1484 36 c-3 -5 0 -10 7
-10 9 0 9 -3 -2 -10 -11 -7 -11 -10 -2 -10 8 0 6 -8 -7 -22 -11 -11 -18 -24
-16 -28 5 -7 -44 -24 -50 -18 -2 2 2 25 8 51 7 33 15 46 24 43 7 -3 13 -1 13
4 0 6 7 10 16 10 8 0 12 -4 9 -10z m143 -37 c7 -7 25 -13 40 -14 56 -2 199 2
239 7 57 7 113 -23 113 -63 0 -12 3 -14 8 -6 13 21 63 2 75 -29 8 -22 -27 -52
-50 -44 -17 6 -17 5 -1 -7 20 -16 14 -27 -15 -27 -11 0 -17 -3 -13 -7 4 -4 22
-6 41 -5 19 2 35 -2 35 -8 0 -5 23 6 51 26 28 19 53 34 55 32 2 -3 8 -36 13
-74 l8 -69 2 60 2 60 24 -40 c14 -22 32 -66 41 -98 16 -56 38 -88 34 -51 -5
40 -1 49 13 30 7 -10 14 -51 15 -94 3 -76 26 -279 41 -357 8 -39 0 -168 -13
-230 -14 -63 -19 -198 -7 -191 8 5 10 -40 8 -166 -3 -135 -7 -183 -21 -218
-10 -25 -21 -58 -26 -75 -4 -16 -9 -25 -9 -20 -2 9 -48 -103 -54 -130 -2 -5
-6 -16 -11 -23 -4 -7 -5 -19 -2 -27 3 -8 1 -15 -4 -15 -5 0 -15 -12 -22 -27
-9 -17 -20 -27 -31 -25 -16 3 -21 -8 -17 -37 2 -17 -31 -81 -42 -81 -5 0 -8
-9 -8 -19 0 -11 -9 -23 -21 -26 -14 -5 -19 -13 -16 -25 3 -13 0 -17 -9 -13
-11 4 -11 11 3 36 15 30 15 31 0 18 -18 -14 -20 -12 -11 13 3 9 11 13 17 9 6
-4 7 -1 2 7 -10 16 -32 -11 -42 -50 -3 -14 -11 -28 -17 -32 -8 -5 -7 -8 2 -8
6 0 12 -5 12 -11 0 -5 -4 -7 -10 -4 -5 3 -10 -3 -10 -14 0 -11 -5 -23 -10 -26
-15 -9 -50 -82 -43 -89 4 -3 1 -6 -6 -6 -7 0 -10 -4 -7 -8 2 -4 -11 -25 -30
-47 -19 -22 -48 -62 -64 -90 -33 -57 -90 -117 -90 -94 0 11 -2 11 -9 1 -12
-19 -42 12 -35 36 5 14 4 14 -4 2 -6 -8 -8 -27 -5 -44 4 -19 3 -27 -5 -22 -6
3 -13 -2 -15 -11 -3 -10 -5 0 -6 22 -1 33 -4 37 -14 24 -16 -21 -48 -32 -41
-15 3 7 -2 16 -10 19 -9 4 -13 15 -11 27 2 11 0 18 -6 15 -5 -4 -9 -18 -9 -33
0 -18 -3 -23 -10 -16 -8 8 -7 19 1 38 16 34 5 44 -21 21 -11 -10 -21 -14 -21
-9 -1 5 -4 -6 -8 -25 -3 -19 -12 -36 -20 -39 -10 -3 -12 4 -7 29 6 31 5 32 -5
9 -6 -14 -15 -34 -19 -46 -14 -36 -36 -25 -32 15 3 35 3 35 -11 12 l-14 -24
-5 32 c-3 18 0 31 6 32 7 0 7 2 0 5 -7 3 -9 14 -6 26 3 14 1 19 -6 14 -7 -4
-12 -12 -12 -17 0 -8 -48 -59 -56 -59 -1 0 0 10 4 22 5 21 4 22 -11 9 -15 -12
-17 -11 -17 3 0 14 -3 14 -22 4 -42 -23 -58 -41 -58 -62 0 -16 -2 -18 -9 -7
-5 8 -14 10 -21 6 -10 -6 -12 0 -7 26 6 32 6 33 -8 15 -18 -23 -20 -4 -3 27
11 21 10 21 -7 7 -17 -14 -18 -13 -11 5 6 16 1 14 -23 -9 l-29 -28 8 36 c4 21
4 34 -1 30 -5 -3 -9 2 -9 11 0 11 -5 15 -15 11 -8 -3 -28 6 -45 20 -16 14 -30
23 -30 19 0 -4 -7 -2 -15 5 -8 7 -15 22 -15 34 0 12 -5 27 -12 34 -15 15 -2
19 77 26 33 2 80 7 103 11 33 5 42 3 36 -6 -5 -9 -1 -10 15 -6 13 3 38 -2 57
-10 31 -15 41 -15 126 0 51 10 119 19 151 22 32 3 66 9 74 14 9 4 25 6 37 3
20 -5 20 -4 5 19 -22 33 -14 56 12 33 25 -23 24 -9 -2 27 l-20 29 25 11 c14 7
23 16 20 20 -2 5 -15 3 -28 -3 -27 -12 -272 23 -330 47 -47 20 -64 42 -43 58
14 10 15 16 4 37 -7 13 -23 30 -36 36 -23 12 -41 32 -41 47 0 14 52 28 65 17
6 -5 14 -7 17 -4 3 3 23 1 44 -5 46 -11 97 -18 220 -30 109 -11 149 -27 191
-75 18 -20 40 -36 49 -36 10 0 26 -8 36 -17 19 -17 37 -9 41 18 4 22 21 20 34
-4 l12 -22 1 23 c0 15 4 21 12 16 8 -5 9 0 6 14 -4 12 -2 22 3 22 5 0 9 9 9
21 0 11 4 17 10 14 6 -4 8 7 4 27 -4 25 -3 29 5 18 8 -11 11 -11 11 -2 0 7 -7
15 -15 18 -8 4 -15 10 -15 16 0 5 5 6 11 2 22 -13 -21 55 -50 79 -19 16 -26
27 -18 30 7 2 4 8 -9 15 -12 6 -52 43 -89 82 -38 38 -74 70 -81 70 -7 0 -17 6
-21 13 -10 18 -51 28 -59 15 -4 -6 -9 -6 -14 2 -6 9 -10 6 -15 -9 -3 -11 -11
-21 -16 -21 -6 0 -7 -4 -4 -10 3 -5 1 -19 -5 -30 -9 -17 -8 -21 7 -27 10 -3
25 -12 33 -20 8 -7 42 -33 75 -57 78 -55 112 -98 166 -208 12 -23 11 -38 -1
-38 -5 0 -10 9 -10 21 0 11 -4 18 -9 14 -11 -6 -13 -4 -77 80 -53 70 -62 76
-56 35 4 -27 2 -30 -22 -30 -16 0 -26 6 -26 14 0 9 -7 12 -20 9 -11 -3 -20 -1
-20 5 0 6 -11 9 -25 7 -15 -1 -25 3 -25 10 0 7 -8 15 -17 19 -10 3 -24 9 -32
12 -8 4 -11 2 -8 -3 3 -5 -3 -15 -14 -21 -19 -12 -20 -10 -18 33 2 38 -1 48
-22 63 -42 30 -75 32 -127 7 -26 -13 -72 -35 -102 -49 -30 -13 -70 -34 -87
-46 -50 -33 -39 -7 15 37 59 49 97 73 115 73 32 0 173 81 190 109 16 27 65 58
105 66 9 2 22 4 27 6 15 5 55 -11 55 -22 0 -5 10 -9 22 -9 12 0 30 -8 40 -17
19 -17 21 -16 54 22 37 43 57 76 69 114 5 17 4 22 -5 16 -8 -5 -27 8 -51 35
-41 46 -45 55 -29 65 6 3 10 11 10 17 0 7 -4 7 -12 1 -26 -19 -98 -36 -132
-30 -54 9 -107 38 -126 69 -18 30 -41 49 -84 72 -23 12 -23 13 -8 47 8 18 16
36 17 39 1 3 5 13 10 23 4 10 5 20 2 23 -3 4 3 15 13 26 22 24 30 65 25 142
-3 44 1 72 17 108 11 26 17 55 14 64 -4 9 0 24 7 33 15 18 57 89 57 97 0 3
-12 -1 -27 -9 -78 -41 -80 -41 -115 -20 -37 22 -56 28 -158 52 -30 7 -64 16
-75 21 -11 5 -46 14 -78 20 -31 6 -55 15 -52 20 3 4 -10 9 -28 9 -104 5 -114
6 -110 18 4 11 -105 -18 -185 -48 -23 -9 -24 -8 -17 18 3 15 7 32 8 38 1 5 5
12 8 15 11 9 64 95 81 133 19 42 22 43 96 51 47 5 54 3 60 -15 8 -20 8 -20 32
-1 14 11 59 27 101 36 41 9 84 23 95 30 10 7 32 16 47 20 15 4 25 11 22 16 -4
6 2 13 12 17 10 3 21 12 25 19 4 6 25 15 45 19 49 9 99 35 85 44 -7 4 -3 12
11 20 20 13 21 13 8 -2 -8 -10 -9 -17 -3 -17 6 0 20 14 32 30 17 24 28 30 53
28 18 -1 38 -8 45 -15z m1373 -129 c12 -14 11 -16 -5 -13 -11 2 -21 10 -24 17
-5 17 13 15 29 -4z m-3474 -86 c-5 -31 -22 -33 -22 -3 0 14 6 25 12 25 8 0 11
-9 10 -22z m-244 -101 c5 -14 -15 -47 -30 -47 -20 0 -32 23 -22 42 11 21 44
24 52 5z m3726 -44 c-6 -7 -15 -10 -20 -7 -13 8 -3 21 15 21 12 0 13 -4 5 -14z
m-2012 -219 c-3 -3 -12 -4 -19 -1 -8 3 -5 6 6 6 11 1 17 -2 13 -5z m70 -56
c14 -11 11 -14 -23 -20 -21 -4 -68 -7 -103 -7 -64 -1 -64 -1 -46 19 35 39 65
48 113 34 24 -7 50 -18 59 -26z m1943 0 c-1 -19 -46 -71 -64 -74 -20 -3 -20 1
1 25 9 11 20 18 25 15 4 -3 8 3 8 14 0 10 3 22 7 25 10 11 23 8 23 -5z m-3662
-60 c6 -16 6 -28 1 -28 -5 0 -9 7 -9 16 0 11 -6 15 -19 11 -22 -5 -54 11 -46
24 4 5 19 8 34 7 21 -1 31 -10 39 -30z m1823 -73 c3 0 19 -12 37 -27 39 -32
29 -38 -71 -38 l-71 0 39 40 c21 21 43 36 49 32 6 -4 14 -7 17 -7z m109 -87
c0 -5 6 -6 13 -2 9 6 9 4 -1 -8 -10 -12 -10 -18 -2 -23 8 -5 -1 -21 -27 -48
l-38 -41 41 32 42 32 6 -27 c4 -14 3 -29 -3 -32 -5 -4 -12 -22 -15 -41 -9 -68
-37 -166 -54 -192 -9 -15 -36 -51 -59 -80 -54 -69 -115 -178 -109 -194 3 -7
24 -18 48 -25 67 -19 73 -28 37 -54 -16 -13 -45 -28 -62 -35 -32 -12 -131 -53
-174 -73 -25 -11 -57 -2 -48 13 3 5 0 10 -8 10 -9 0 -17 14 -20 36 -3 20 -16
44 -28 55 -12 11 -19 25 -15 34 3 8 2 15 -2 15 -8 0 -11 28 -14 118 -1 34 -5
62 -10 62 -4 0 -8 -7 -8 -15 0 -18 -12 -19 -28 -3 -8 8 -9 15 -1 25 14 16 -2
18 -18 2 -26 -26 -55 28 -62 114 0 9 -8 17 -16 17 -20 0 -19 37 1 48 9 5 14
14 10 21 -5 8 -12 7 -23 -4 -8 -9 -18 -13 -22 -9 -3 4 0 9 7 11 6 3 12 11 12
19 0 8 7 11 18 8 13 -5 14 -4 3 4 -10 7 -1 19 40 49 70 51 75 53 188 59 53 2
107 8 121 11 14 3 31 7 38 9 37 7 131 38 162 52 l35 16 -30 4 c-34 4 -50 16
-41 30 7 12 116 13 116 0z m-1211 -30 c31 -17 58 -33 60 -35 2 -1 -1 -15 -8
-29 -13 -30 -7 -44 11 -26 14 14 38 16 38 2 0 -16 -40 -32 -53 -22 -7 6 -19
11 -28 13 -9 2 -32 24 -51 49 -20 27 -47 49 -66 56 -18 5 -29 13 -26 17 16 16
70 5 123 -25z m1081 22 c0 -5 -4 -10 -10 -10 -5 0 -10 5 -10 10 0 6 5 10 10
10 6 0 10 -4 10 -10z m10 -28 c0 -4 -16 -6 -35 -4 -19 2 -35 6 -35 8 0 2 16 4
35 4 19 0 35 -4 35 -8z m-1854 -99 c11 -10 19 -25 19 -33 0 -8 7 -21 17 -28
10 -7 18 -18 18 -24 0 -7 -9 -2 -20 10 -11 12 -27 19 -35 16 -8 -4 -15 -1 -15
6 0 6 4 9 8 6 5 -3 8 5 7 17 -2 12 -7 21 -12 20 -5 -1 -10 5 -10 13 0 18 0 18
23 -3z m1368 -39 c-1 -4 -10 -13 -20 -19 -11 -5 -22 -15 -26 -22 -5 -6 -17 -9
-28 -6 -16 4 -18 9 -8 27 6 11 17 29 26 39 13 15 18 15 36 3 12 -7 20 -17 20
-22z m-819 -56 c-7 -31 -25 -63 -25 -43 0 12 23 75 28 75 2 0 1 -15 -3 -32z
m-535 18 c0 -3 -4 -8 -10 -11 -5 -3 -10 -1 -10 4 0 6 5 11 10 11 6 0 10 -2 10
-4z m-10 -61 c0 -8 -7 -11 -20 -8 -16 4 -18 8 -9 19 13 16 29 10 29 -11z m745
-15 c-3 -5 -13 -10 -21 -10 -8 0 -14 5 -14 10 0 6 9 10 21 10 11 0 17 -4 14
-10z m-85 -4 c0 -2 -9 -6 -20 -9 -11 -3 -18 -1 -14 4 5 9 34 13 34 5z m1386
-24 c-18 -16 -18 -16 -6 6 6 13 14 21 18 18 3 -4 -2 -14 -12 -24z m1326 -42
c6 0 8 6 5 13 -3 8 1 14 9 14 14 0 19 -33 8 -61 -9 -23 -24 -20 -24 4 0 20 -9
24 -42 21 -13 -2 -18 5 -18 24 l0 26 26 -20 c15 -12 31 -21 36 -21z m-3472 -1
c0 -5 -4 -9 -8 -9 -5 0 -9 7 -9 15 0 8 4 12 9 9 4 -3 8 -9 8 -15z m700 -41 c0
-35 4 -68 8 -74 4 -6 28 -25 55 -43 26 -17 47 -36 47 -41 0 -5 17 -18 38 -29
21 -11 44 -26 51 -35 11 -13 9 -16 -15 -22 -34 -9 -58 6 -62 37 -3 22 -7 24
-42 21 -34 -4 -44 0 -70 28 -45 48 -63 135 -40 194 17 45 30 29 30 -36z m2747
0 c-3 -8 -6 -5 -6 6 -1 11 2 17 5 13 3 -3 4 -12 1 -19z m-7 -34 c0 -20 -27
-29 -45 -14 -14 11 -13 14 7 25 26 14 38 10 38 -11z m-140 -4 c19 -19 29 -77
11 -66 -5 3 -7 15 -4 25 11 42 -15 25 -62 -40 -27 -37 -50 -67 -50 -66 -1 1 0
34 3 74 4 67 6 73 31 82 39 14 49 13 71 -9z m106 -37 c-7 -7 -26 7 -26 19 0 6
6 6 15 -2 9 -7 13 -15 11 -17z m381 21 c-3 -3 -12 -4 -19 -1 -8 3 -5 6 6 6 11
1 17 -2 13 -5z m-2350 -26 c-3 -8 -6 -5 -6 6 -1 11 2 17 5 13 3 -3 4 -12 1
-19z m2294 -17 c-7 -12 -17 -21 -24 -20 -9 0 -9 2 1 6 6 2 12 16 12 31 0 19 3
23 11 15 8 -8 8 -17 0 -32z m129 19 c45 -24 28 -24 -25 0 -22 10 -33 19 -25
19 8 0 31 -8 50 -19z m-37 -20 c6 -24 -3 -36 -37 -44 -25 -6 -28 -5 -21 11 4
10 10 28 12 39 6 26 39 22 46 -6z m-3186 -12 c-3 -8 -6 -5 -6 6 -1 11 2 17 5
13 3 -3 4 -12 1 -19z m2983 18 c0 -3 -4 -8 -10 -11 -5 -3 -10 -1 -10 4 0 6 5
11 10 11 6 0 10 -2 10 -4z m262 -26 c17 -19 8 -37 -11 -25 -5 3 -12 -5 -14
-17 -2 -13 -5 -4 -6 20 -1 46 6 52 31 22z m150 -90 c64 -74 115 -164 145 -255
22 -65 27 -104 31 -210 4 -135 -4 -196 -40 -293 -18 -48 -21 -52 -33 -35 -13
17 -15 15 -29 -19 -20 -48 -20 -51 3 -45 16 4 14 -2 -11 -44 -89 -143 -211
-249 -354 -309 -64 -27 -82 -30 -132 -24 -52 5 -107 23 -74 24 10 0 8 8 -6 28
-10 15 -21 34 -25 43 -4 11 -13 15 -30 12 -18 -4 -26 0 -30 17 -7 28 21 40 39
15 9 -12 20 -16 39 -11 14 4 23 11 20 16 -3 6 1 7 10 3 10 -3 21 0 26 8 6 10
9 10 9 2 0 -7 5 -13 10 -13 6 0 10 9 10 20 0 17 3 18 18 9 12 -8 30 -9 48 -4
l29 8 -32 9 c-38 10 -40 14 -13 21 11 3 18 1 14 -4 -3 -5 4 -9 16 -9 13 0 19
4 14 11 -5 9 1 10 20 5 17 -4 34 -2 43 6 12 10 18 8 33 -11 13 -18 19 -21 25
-11 5 9 0 20 -15 32 -12 10 -18 18 -13 18 6 0 18 -9 28 -20 22 -24 47 -25 81
-3 19 12 24 22 20 39 -5 19 8 42 59 106 111 140 222 395 187 430 -6 6 -27 7
-49 3 -39 -6 -39 -7 -42 -52 -1 -35 3 -51 19 -68 l21 -23 -30 -10 c-17 -6 -31
-16 -31 -23 0 -8 4 -8 15 1 9 7 19 9 23 5 4 -4 2 -9 -4 -12 -6 -2 -9 -17 -6
-33 11 -76 -138 -249 -269 -313 -81 -40 -226 -73 -243 -56 -9 8 13 14 37 10 4
0 7 3 7 7 0 5 24 14 53 21 79 21 141 52 125 63 -9 7 -8 8 6 4 11 -4 22 -3 25
2 3 4 27 20 52 34 68 40 76 53 45 73 -30 20 -33 46 -10 66 57 47 154 235 154
298 0 27 4 40 11 36 6 -4 30 -4 55 0 42 6 44 8 44 39 0 55 -18 91 -50 103 -26
10 -30 17 -31 50 -1 21 -1 41 0 46 3 18 -33 85 -61 115 -36 36 -53 40 -63 15
-5 -15 -9 -12 -22 15 -8 17 -19 32 -24 32 -5 0 -6 14 -2 30 4 22 0 37 -13 52
-13 15 -5 12 28 -11 26 -17 67 -54 90 -81z m-712 86 c0 -2 -5 -28 -11 -57 -6
-30 -15 -88 -20 -129 -7 -68 -7 -65 -3 30 5 115 12 160 25 160 5 0 9 -2 9 -4z
m-1790 -68 c9 3 11 1 5 -4 -5 -5 -13 -13 -16 -17 -3 -5 -21 11 -39 35 l-34 43
35 -31 c19 -18 41 -29 49 -26z m33 32 c3 -11 1 -23 -4 -26 -5 -3 -9 6 -9 20 0
31 6 34 13 6z m-1339 4 c9 -3 13 -10 10 -16 -3 -5 2 -18 12 -29 16 -18 16 -20
0 -38 -18 -20 -62 -22 -74 -5 -7 9 -13 10 -51 6 -8 -1 -11 -8 -7 -18 3 -8 2
-13 -3 -10 -5 3 -14 -1 -21 -9 -7 -8 -9 -15 -4 -15 5 0 2 -4 -6 -10 -32 -20
-46 33 -26 97 6 20 36 41 36 25 0 -5 13 -7 30 -6 16 1 27 -2 24 -7 -3 -5 1 -9
9 -9 7 0 19 11 25 25 12 26 20 29 46 19z m435 -44 c0 -10 -3 -8 -9 5 -12 27
-12 43 0 25 5 -8 9 -22 9 -30z m738 18 c-3 -8 -6 -5 -6 6 -1 11 2 17 5 13 3
-3 4 -12 1 -19z m1869 -146 c18 -120 10 -178 -36 -257 -15 -27 -47 -85 -70
-127 -42 -77 -60 -95 -60 -60 0 10 -5 23 -10 28 -7 7 -2 28 16 63 17 37 23 62
19 82 -5 22 -1 33 20 51 45 39 55 67 43 123 -6 28 -14 55 -19 61 -6 7 2 32 21
67 16 31 30 66 30 77 0 11 5 20 11 20 5 0 7 5 4 10 -3 6 -3 16 2 23 5 7 9 -1
11 -23 1 -19 9 -81 18 -138z m550 113 c32 -19 76 -54 98 -78 39 -42 116 -187
116 -216 0 -9 -11 10 -24 41 -49 120 -109 191 -210 252 -33 20 -55 36 -50 36
6 0 37 -16 70 -35z m-3535 -12 c-12 -20 -14 -14 -5 12 4 9 9 14 11 11 3 -2 0
-13 -6 -23z m447 -47 c26 -24 50 -44 55 -45 10 -1 11 -4 3 -29 -11 -33 -25
-24 -73 44 -63 88 -58 98 15 30z m810 -15 c-13 -18 -14 -17 -15 20 -1 38 0 39
14 20 12 -18 12 -24 1 -40z m-1616 -1 c5 0 8 -9 8 -20 0 -11 7 -23 16 -27 8
-3 13 -12 10 -20 -3 -8 0 -24 8 -35 11 -15 12 -27 5 -46 -8 -21 -7 -29 7 -39
17 -12 17 -13 -2 -13 -38 0 -60 12 -82 44 -28 41 -41 151 -22 186 l12 23 17
-26 c8 -15 19 -27 23 -27z m938 0 c0 -5 -2 -10 -4 -10 -3 0 -8 5 -11 10 -3 6
-1 10 4 10 6 0 11 -4 11 -10z m-809 -27 c13 -16 12 -17 -3 -4 -10 7 -18 15
-18 17 0 8 8 3 21 -13z m1493 -38 c3 -8 1 -15 -4 -15 -6 0 -10 7 -10 15 0 8 2
15 4 15 2 0 6 -7 10 -15z m2543 -69 c-3 -18 -1 -39 4 -45 5 -6 6 -8 2 -6 -4 3
-12 -4 -19 -16 l-11 -22 -13 23 c-17 32 -20 90 -4 83 6 -2 15 0 19 6 14 24 27
10 22 -23z m-4067 0 c0 -2 -9 -6 -20 -9 -11 -3 -18 -1 -14 4 5 9 34 13 34 5z
m2655 -14 c-3 -3 -11 0 -18 7 -9 10 -8 11 6 5 10 -3 15 -9 12 -12z m-2379 -14
c-1 -25 -26 -38 -26 -13 0 11 -5 15 -15 12 -8 -4 -17 -2 -20 3 -5 8 15 17 46
19 11 1 16 -7 15 -21z m-200 1 c4 -8 9 -8 13 -1 4 7 12 8 21 2 8 -6 10 -10 4
-10 -23 0 -65 -46 -58 -63 3 -10 1 -17 -5 -17 -6 0 -11 8 -11 18 0 10 -5 23
-12 30 -7 7 -8 12 -2 12 5 0 2 5 -6 11 -12 9 -12 10 3 5 25 -8 44 4 26 15 -11
7 -10 9 3 9 9 0 20 -5 24 -11z m61 -11 c-3 -8 -6 -5 -6 6 -1 11 2 17 5 13 3
-3 4 -12 1 -19z m2063 -20 c0 -6 -6 -5 -15 2 -8 7 -15 14 -15 16 0 2 7 1 15
-2 8 -4 15 -11 15 -16z m-2251 -60 c-10 -7 -9 -8 6 -4 14 4 24 -1 33 -15 12
-18 11 -19 -7 -10 -27 15 -54 14 -45 -1 3 -7 -5 0 -19 17 -33 40 -26 60 15 39
24 -13 28 -18 17 -26z m73 -3 c3 -14 1 -28 -5 -32 -5 -3 -7 -1 -3 5 3 6 2 13
-3 17 -6 3 -8 12 -4 20 7 21 10 19 15 -10z m2736 -5 c7 -11 11 -20 9 -20 -2 0
-12 9 -22 20 -10 11 -14 20 -9 20 5 0 15 -9 22 -20z m1260 -89 c-7 -126 -101
-273 -223 -350 -53 -34 -69 -40 -83 -31 -16 11 -16 11 1 6 9 -3 17 -1 17 5 0
6 5 7 10 4 6 -3 10 -1 10 5 0 6 5 8 10 5 6 -3 10 -2 10 2 0 5 16 17 35 27 54
30 133 119 166 190 27 59 32 80 39 206 1 21 4 28 7 16 3 -11 3 -49 1 -85z
m-1708 85 c0 -3 -4 -8 -10 -11 -5 -3 -10 -1 -10 4 0 6 5 11 10 11 6 0 10 -2
10 -4z m1747 -28 c-3 -8 -6 -5 -6 6 -1 11 2 17 5 13 3 -3 4 -12 1 -19z m-4097
-43 c-6 -7 0 -11 18 -10 19 0 26 -5 24 -15 -2 -8 -4 -23 -5 -32 -1 -10 -8 -18
-15 -18 -10 0 -13 8 -9 25 6 33 -13 28 -31 -8 -8 -16 -18 -24 -27 -20 -18 6
-20 23 -2 23 6 1 1 10 -13 21 -24 20 -24 21 -5 35 22 17 79 16 65 -1z m-126
-13 c2 -4 -5 -9 -17 -9 -17 -2 -19 0 -7 7 18 12 18 12 24 2z m2054 -41 c2 -15
-2 -21 -15 -21 -20 0 -47 35 -38 50 10 16 50 -6 53 -29z m-2048 -2 c-7 -11
-14 -19 -16 -16 -7 7 7 37 17 37 6 0 5 -9 -1 -21z m1948 -44 c-3 -27 -6 -29
-27 -16 -17 11 -7 41 14 41 10 0 14 -8 13 -25z m32 -6 c0 -6 -4 -7 -10 -4 -5
3 -10 11 -10 16 0 6 5 7 10 4 6 -3 10 -11 10 -16z m2280 -103 c0 -3 -4 -8 -10
-11 -5 -3 -10 -1 -10 4 0 6 5 11 10 11 6 0 10 -2 10 -4z m-820 -131 c0 -8 -2
-15 -4 -15 -2 0 -6 7 -10 15 -3 8 -1 15 4 15 6 0 10 -7 10 -15z m-3183 -72
c-4 -17 -4 -17 -12 0 -4 9 -4 25 0 35 8 16 8 16 12 0 3 -10 3 -26 0 -35z
m3199 16 c11 -18 -12 -31 -26 -14 -7 8 -9 15 -5 15 4 0 1 7 -6 17 -13 15 -12
15 8 5 12 -7 25 -17 29 -23z m-51 -9 c-3 -5 4 -14 16 -20 15 -9 18 -15 10 -23
-8 -8 -14 -8 -22 0 -14 14 -21 65 -8 57 5 -3 7 -9 4 -14z m-21 -15 c3 -8 1
-15 -4 -15 -6 0 -10 7 -10 15 0 8 2 15 4 15 2 0 6 -7 10 -15z m476 5 c-8 -5
-19 -10 -25 -10 -5 0 -3 5 5 10 8 5 20 10 25 10 6 0 3 -5 -5 -10z m-476 -45
c-4 -8 -11 -12 -17 -8 -6 4 -8 0 -4 -10 9 -24 0 -21 -14 4 -6 12 -7 19 -2 16
5 -3 15 -2 23 4 20 12 20 11 14 -6z m26 -9 c0 -2 -8 -10 -17 -17 -16 -13 -17
-12 -4 4 13 16 21 21 21 13z m370 -17 c9 -6 4 -7 -16 -3 -25 5 -36 0 -68 -33
l-38 -38 29 47 c29 48 46 53 93 27z m-3466 -45 c4 -10 1 -14 -6 -12 -15 5 -23
28 -10 28 5 0 13 -7 16 -16z m3231 -11 c11 -7 16 -13 12 -13 -11 0 -67 29 -67
35 0 6 32 -6 55 -22z m105 -34 c0 -4 -7 -12 -15 -19 -13 -11 -14 -10 -9 3 3
10 -1 17 -13 20 -10 3 -6 4 10 4 15 -1 27 -4 27 -8z m-143 -50 c13 -32 9 -39
-17 -32 -16 4 -18 9 -9 24 12 23 6 24 -16 3 -15 -16 -18 -15 -37 4 l-21 21 21
-6 c12 -3 22 -1 22 3 0 5 10 10 23 10 17 1 26 -6 34 -27z m-987 -13 c0 -3 -4
-8 -10 -11 -5 -3 -10 -1 -10 4 0 6 5 11 10 11 6 0 10 -2 10 -4z m710 -83 c0
-20 -3 -33 -7 -29 -11 11 -13 77 -2 71 5 -4 9 -22 9 -42z m-335 -93 c-4 -19
-7 -41 -7 -47 -2 -22 -14 -14 -41 25 -33 49 -41 80 -27 97 10 12 17 10 47 -13
31 -24 34 -31 28 -62z m43 5 c-3 -3 -9 2 -12 12 -6 14 -5 15 5 6 7 -7 10 -15
7 -18z m-2128 -20 c14 -19 14 -19 -2 -6 -10 7 -18 18 -18 24 0 6 1 8 3 6 1 -2
9 -13 17 -24z m2943 -12 c55 -15 45 -192 -13 -223 -17 -9 -25 -9 -34 1 -8 9
-8 10 1 5 7 -4 9 1 6 15 -5 19 -3 21 21 17 14 -3 29 -1 32 3 3 5 0 9 -7 9 -8
0 -7 7 3 23 18 27 6 87 -17 87 -20 0 -30 -46 -17 -75 13 -29 -1 -43 -23 -25
-17 14 -21 35 -5 25 6 -3 10 -1 10 5 0 7 -8 9 -20 5 -14 -4 -20 -2 -20 8 0 8
10 17 23 21 18 5 20 8 7 16 -12 8 -12 10 5 10 17 0 17 2 5 10 -8 5 -16 14 -16
20 -1 5 -3 11 -4 13 -1 1 -4 12 -5 24 -2 23 3 24 68 6z m-796 -25 c-3 -7 -5
-2 -5 12 0 14 2 19 5 13 2 -7 2 -19 0 -25z m-2069 -63 c-3 -3 -9 2 -12 12 -6
14 -5 15 5 6 7 -7 10 -15 7 -18z m2289 -50 c0 -8 -4 -15 -9 -15 -4 0 -8 7 -8
15 0 8 4 15 8 15 5 0 9 -7 9 -15z m513 -56 c-6 -10 -13 -19 -16 -19 -2 0 0 8
5 19 6 10 7 22 3 26 -4 5 -1 5 6 1 9 -5 9 -12 2 -27z m-3001 -29 c17 -22 29
-40 26 -40 -9 0 -65 63 -65 72 0 14 6 9 39 -32z m2551 -19 c3 -2 -5 -1 -17 2
-13 3 -23 0 -23 -6 0 -6 -2 -8 -5 -5 -3 3 -3 13 1 22 6 16 13 14 44 -13z m475
-1 c8 -13 -15 -13 -35 0 -12 8 -11 10 7 10 12 0 25 -4 28 -10z m-110 -39 c-3
-5 5 -17 17 -25 22 -16 22 -16 3 -30 -55 -41 -121 -44 -133 -6 -4 11 1 10 17
-4 25 -22 28 -11 4 16 -15 17 -15 18 1 18 10 0 14 -5 10 -11 -4 -7 2 -9 17 -7
13 1 24 9 24 16 0 8 9 20 19 28 23 16 30 18 21 5z m95 5 c0 -3 -4 -8 -10 -11
-5 -3 -10 -1 -10 4 0 6 5 11 10 11 6 0 10 -2 10 -4z m-40 -21 c0 -8 -2 -15 -4
-15 -2 0 -6 7 -10 15 -3 8 -1 15 4 15 6 0 10 -7 10 -15z m-2916 -11 c3 -8 2
-12 -4 -9 -6 3 -10 10 -10 16 0 14 7 11 14 -7z m2803 10 c-3 -3 -12 -4 -19 -1
-8 3 -5 6 6 6 11 1 17 -2 13 -5z m-315 -29 c12 0 21 -15 9 -15 -7 0 -9 -5 -5
-12 4 -7 3 -8 -4 -4 -7 4 -17 16 -23 28 -9 16 -8 19 3 12 7 -5 16 -9 20 -9z
m-781 -32 c1 -16 3 -39 4 -53 2 -17 -8 -35 -32 -58 -67 -63 -88 -62 -99 6 -6
41 -5 44 40 87 54 53 85 59 87 18z m-1691 -34 c0 -4 -5 -11 -12 -15 -7 -4 -8
-3 -4 4 4 7 2 12 -5 12 -7 0 -9 3 -6 6 3 4 2 16 -4 28 -9 19 -8 19 10 -3 12
-13 21 -27 21 -32z m7 -45 c-3 -3 -12 -4 -19 -1 -8 3 -5 6 6 6 11 1 17 -2 13
-5z m-88 -198 c31 -47 36 -62 15 -48 -17 11 -64 86 -64 101 0 18 7 11 49 -53z
m1222 -173 c13 -16 12 -17 -3 -4 -17 13 -22 21 -14 21 2 0 10 -8 17 -17z m4
-26 c17 -1 45 -13 62 -27 35 -28 41 -40 18 -40 -8 0 -15 4 -15 10 0 9 -58 39
-87 45 -6 2 -19 8 -30 15 -17 11 -17 11 2 5 11 -4 34 -8 50 -8z m1185 -59 c0
-5 -4 -8 -10 -8 -5 0 -10 10 -10 23 0 18 2 19 10 7 5 -8 10 -18 10 -22z
m-2061 -32 c39 -41 20 -35 -24 8 -22 22 -31 34 -20 29 11 -6 31 -23 44 -37z
m998 2 c-3 -8 -6 -5 -6 6 -1 11 2 17 5 13 3 -3 4 -12 1 -19z m1073 -4 c0 -14
-3 -14 -15 -4 -8 7 -15 14 -15 16 0 2 7 4 15 4 8 0 15 -7 15 -16z m30 -145 c0
-14 -17 -10 -23 5 -4 10 -1 13 9 9 7 -3 14 -9 14 -14z m-901 -29 c0 -10 -3 -8
-9 5 -12 27 -12 43 0 25 5 -8 9 -22 9 -30z"/>
<path d="M2596 3634 c-4 -9 -4 -19 -1 -22 2 -3 7 3 11 12 4 9 4 19 1 22 -2 3
-7 -3 -11 -12z"/>
<path d="M3205 3260 c4 -96 24 -170 46 -170 5 0 9 -7 9 -15 0 -8 7 -15 15 -15
8 0 15 -6 15 -14 0 -8 28 -23 70 -37 68 -22 97 -45 43 -34 -16 3 -38 7 -51 9
-13 2 -28 8 -35 15 -19 19 -31 12 -12 -9 64 -71 345 -198 345 -156 0 6 5 4 10
-4 8 -12 10 -12 10 -1 0 8 7 11 20 8 11 -3 22 -1 25 3 3 4 13 6 23 3 12 -3 22
4 29 19 11 21 14 35 25 103 2 11 8 26 15 32 19 21 27 120 13 166 -18 62 -37
84 -99 117 -68 37 -132 46 -401 53 -41 1 -85 8 -97 15 l-22 12 4 -100z m550
-111 c17 -17 -13 -9 -49 12 -20 12 -36 23 -36 24 0 6 74 -26 85 -36z m-80 10
c46 -13 115 -64 115 -85 0 -9 4 -13 9 -9 6 3 8 -6 5 -22 -3 -16 -9 -29 -15
-31 -5 -2 -9 -11 -9 -20 0 -11 -8 -4 -20 16 -24 39 -88 81 -170 112 -33 12
-60 26 -60 30 0 20 87 25 145 9z m-41 -78 c34 -17 73 -42 86 -57 21 -22 22
-25 5 -16 -11 5 -22 10 -25 9 -3 0 -39 16 -81 36 -42 21 -82 37 -90 38 -8 0
-5 4 6 9 30 13 32 12 99 -19z m-127 -118 c-7 -6 -67 9 -67 17 0 5 16 3 35 -3
19 -6 33 -12 32 -14z m-16 -40 l24 -28 -30 25 c-16 14 -32 26 -34 28 -2 1 0 2
6 2 5 0 20 -12 34 -27z"/>
<path d="M3591 2056 c-6 -8 -11 -18 -10 -22 3 -20 -2 -35 -10 -30 -4 3 -13 -6
-19 -19 -7 -14 -7 -25 -3 -25 5 0 12 8 15 18 3 9 3 -3 1 -28 -3 -30 -1 -38 4
-25 5 11 9 23 10 28 0 4 8 21 16 37 15 30 16 47 3 43 -12 -4 -9 12 4 25 7 7 9
12 6 12 -3 0 -11 -6 -17 -14z"/>
<path d="M3606 1993 c-6 -14 -5 -15 5 -6 7 7 10 15 7 18 -3 3 -9 -2 -12 -12z"/>
<path d="M3346 1927 c3 -10 9 -15 12 -12 3 3 0 11 -7 18 -10 9 -11 8 -5 -6z"/>
<path d="M3300 1750 c0 -5 6 -10 13 -10 9 0 8 -3 -2 -9 -8 -5 -9 -11 -3 -15
14 -8 25 11 18 29 -6 17 -26 20 -26 5z"/>
<path d="M4430 2610 c0 -5 5 -10 11 -10 5 0 7 5 4 10 -3 6 -8 10 -11 10 -2 0
-4 -4 -4 -10z"/>
<path d="M4325 1394 c-22 -22 -16 -78 8 -82 27 -5 67 25 67 51 0 44 -43 62
-75 31z"/>
<path d="M4190 1362 c0 -16 32 -52 46 -52 17 0 17 1 4 34 -9 24 -50 39 -50 18z"/>
<path d="M845 2549 c-11 -17 1 -21 15 -4 8 9 8 15 2 15 -6 0 -14 -5 -17 -11z"/>
<path d="M3840 2125 c-8 -9 -8 -15 -2 -15 12 0 26 19 19 26 -2 2 -10 -2 -17
-11z"/>
<path d="M4099 923 c-13 -16 -12 -17 4 -4 9 7 17 15 17 17 0 8 -8 3 -21 -13z"/>
<path d="M4058 903 c7 -3 16 -2 19 1 4 3 -2 6 -13 5 -11 0 -14 -3 -6 -6z"/>
<path d="M1001 4313 c-13 -26 1 -45 30 -41 18 2 24 9 24 28 0 32 -39 41 -54
13z"/>
<path d="M4510 3940 c6 -11 15 -20 20 -20 6 0 10 9 10 20 0 13 -7 20 -20 20
-18 0 -19 -3 -10 -20z"/>
<path d="M789 3883 l-24 -28 28 24 c25 23 32 31 24 31 -2 0 -14 -12 -28 -27z"/>
<path d="M4661 3894 c0 -11 3 -14 6 -6 3 7 2 16 -1 19 -3 4 -6 -2 -5 -13z"/>
<path d="M806 3809 c-21 -16 -42 -27 -46 -24 -3 2 -7 -2 -7 -10 0 -8 5 -11 11
-7 42 26 96 65 96 68 0 9 -18 0 -54 -27z"/>
<path d="M4490 3798 c16 -20 11 -32 -7 -17 -14 12 -14 10 1 -13 10 -16 23 -28
30 -28 6 0 4 -4 -4 -10 -8 -5 -11 -12 -7 -17 12 -11 26 17 21 41 -2 11 -13 28
-24 38 -11 10 -15 13 -10 6z m25 -38 c3 -5 1 -10 -4 -10 -6 0 -11 5 -11 10 0
6 2 10 4 10 3 0 8 -4 11 -10z"/>
<path d="M720 3790 c0 -5 5 -10 10 -10 6 0 10 5 10 10 0 6 -4 10 -10 10 -5 0
-10 -4 -10 -10z"/>
<path d="M425 3630 c4 -6 11 -8 16 -5 14 9 11 15 -7 15 -8 0 -12 -5 -9 -10z"/>
<path d="M574 3495 c3 -22 5 -41 6 -41 0 -1 10 -2 23 -2 12 -1 38 -3 57 -6 33
-5 33 -5 4 3 -42 11 -53 18 -75 55 l-20 31 5 -40z"/>
<path d="M472 3359 c1 -13 8 -23 13 -21 15 3 12 35 -3 40 -9 3 -13 -3 -10 -19z"/>
<path d="M555 3330 c-3 -5 1 -10 10 -10 9 0 13 5 10 10 -3 6 -8 10 -10 10 -2
0 -7 -4 -10 -10z"/>
<path d="M4529 3283 c-13 -16 -12 -17 4 -4 16 13 21 21 13 21 -2 0 -10 -8 -17
-17z"/>
<path d="M720 3115 c-20 -24 -6 -28 15 -5 10 11 13 20 8 20 -6 0 -16 -7 -23
-15z"/>
<path d="M671 3108 c-1 -4 3 -18 9 -33 9 -24 8 -25 -10 -15 -21 11 -23 7 -12
-22 6 -14 10 -15 25 -3 16 12 17 16 3 46 -8 19 -15 31 -15 27z"/>
<path d="M557 2933 c-3 -10 -8 -28 -12 -40 -3 -13 -2 -23 3 -23 6 0 12 17 14
38 6 41 3 54 -5 25z"/>
<path d="M4704 2909 c-3 -6 -25 -19 -48 -29 -22 -10 -54 -30 -71 -44 -29 -25
-29 -25 -7 -26 14 0 43 17 69 40 25 22 49 40 53 40 4 0 10 7 14 15 6 17 0 20
-10 4z"/>
<path d="M4309 2873 c-12 -16 -12 -17 2 -6 12 10 18 10 28 0 11 -9 13 -9 9 2
-7 22 -23 24 -39 4z"/>
<path d="M4194 2839 c-3 -6 0 -17 8 -25 13 -13 16 -13 29 2 9 12 10 15 2 10
-8 -4 -13 -1 -13 8 0 18 -16 21 -26 5z"/>
<path d="M311 2811 c-7 -13 -6 -24 4 -37 13 -18 15 -18 30 -3 11 11 15 24 10
38 -8 26 -31 27 -44 2z"/>
<path d="M4735 2759 c-63 -39 -61 -37 -49 -49 7 -7 27 4 60 35 27 24 47 45 44
45 -3 0 -27 -14 -55 -31z"/>
<path d="M4520 2740 c0 -5 7 -10 16 -10 8 0 12 5 9 10 -3 6 -10 10 -16 10 -5
0 -9 -4 -9 -10z"/>
<path d="M444 2509 c-3 -6 -2 -15 3 -20 5 -5 9 -1 9 11 0 23 -2 24 -12 9z"/>
<path d="M290 2390 c6 -11 15 -20 20 -20 12 0 9 22 -5 32 -19 14 -26 8 -15
-12z"/>
<path d="M206 2292 c-3 -5 1 -9 9 -9 8 0 12 4 9 9 -3 4 -7 8 -9 8 -2 0 -6 -4
-9 -8z"/>
<path d="M277 2019 c-26 -17 -50 -35 -53 -41 -5 -8 91 54 105 68 13 13 -12 0
-52 -27z"/>
<path d="M288 1973 c7 -3 16 -2 19 1 4 3 -2 6 -13 5 -11 0 -14 -3 -6 -6z"/>
<path d="M191 1929 c-14 -22 -17 -39 -11 -62 7 -34 37 -97 46 -97 2 0 -2 13
-11 30 -18 35 -20 131 -3 148 7 7 9 12 5 12 -4 0 -16 -14 -26 -31z"/>
<path d="M280 1945 c0 -7 30 -13 34 -7 3 4 -4 9 -15 9 -10 1 -19 0 -19 -2z"/>
<path d="M265 1920 c-3 -5 -1 -10 4 -10 6 0 11 5 11 10 0 6 -2 10 -4 10 -3 0
-8 -4 -11 -10z"/>
<path d="M291 1854 c0 -11 3 -14 6 -6 3 7 2 16 -1 19 -3 4 -6 -2 -5 -13z"/>
<path d="M703 1765 c-3 -9 -3 -18 -1 -21 3 -3 8 4 11 16 6 23 -1 27 -10 5z"/>
<path d="M260 1726 c19 -21 44 -42 55 -48 23 -12 17 -5 -45 48 l-45 38 35 -38z"/>
<path d="M733 1628 c-20 -26 -26 -41 -15 -34 12 7 36 46 29 46 -3 0 -9 -6 -14
-12z"/>
<path d="M4841 1571 c-8 -6 -9 -11 -3 -15 6 -3 14 -1 17 5 9 14 2 20 -14 10z"/>
<path d="M4723 1494 c-20 -18 -22 -22 -7 -15 21 10 52 41 41 41 -3 0 -19 -12
-34 -26z"/>
<path d="M4300 1039 c0 -5 5 -7 10 -4 6 3 10 8 10 11 0 2 -4 4 -10 4 -5 0 -10
-5 -10 -11z"/>
<path d="M3650 949 c0 -5 5 -7 10 -4 6 3 10 8 10 11 0 2 -4 4 -10 4 -5 0 -10
-5 -10 -11z"/>
<path d="M680 941 c0 -6 4 -13 10 -16 6 -3 7 1 4 9 -7 18 -14 21 -14 7z"/>
<path d="M826 825 c4 -8 13 -15 21 -15 13 0 13 3 3 15 -7 8 -16 15 -21 15 -5
0 -6 -7 -3 -15z"/>
<path d="M4066 822 c-3 -5 1 -9 9 -9 8 0 15 4 15 9 0 4 -4 8 -9 8 -6 0 -12 -4
-15 -8z"/>
<path d="M376 793 c-6 -14 -5 -15 5 -6 7 7 10 15 7 18 -3 3 -9 -2 -12 -12z"/>
<path d="M3817 688 c-38 -10 -66 -41 -47 -53 5 -3 10 -15 10 -26 0 -10 5 -19
11 -19 5 0 7 -4 4 -10 -6 -9 53 -6 112 6 25 5 47 38 39 59 -13 36 -76 57 -129
43z"/>
<path d="M4024 639 c-4 -8 -3 -9 4 -5 7 4 12 2 12 -3 0 -6 5 -11 11 -11 13 0
7 22 -8 27 -6 2 -15 -1 -19 -8z"/>
<path d="M3795 550 c3 -5 8 -10 11 -10 2 0 4 5 4 10 0 6 -5 10 -11 10 -5 0 -7
-4 -4 -10z"/>
<path d="M2900 457 c-7 -30 -10 -61 -8 -68 3 -8 10 15 16 50 14 80 8 92 -8 18z"/>
<path d="M3655 480 c3 -5 8 -10 11 -10 2 0 4 5 4 10 0 6 -5 10 -11 10 -5 0 -7
-4 -4 -10z"/>
<path d="M3814 458 c-8 -12 30 -48 51 -48 7 0 18 -7 25 -15 16 -19 40 -19 40
0 0 19 -34 37 -55 29 -10 -4 -15 -2 -13 7 2 8 -7 15 -20 17 -12 2 -20 8 -17
13 4 5 4 9 1 9 -3 0 -8 -5 -12 -12z m97 -55 c13 -17 13 -17 -6 -3 -11 8 -22
16 -24 17 -2 2 0 3 6 3 6 0 17 -8 24 -17z"/>
<path d="M4774 262 c-7 -4 -8 -15 -3 -27 7 -19 8 -19 8 2 1 14 9 23 24 26 19
4 19 4 2 5 -11 1 -25 -2 -31 -6z"/>
<path d="M4881 238 c-1 -15 -23 -29 -46 -27 -5 0 -12 -8 -16 -18 -6 -14 -8
-13 -8 9 -1 15 -5 29 -10 33 -6 3 -8 -18 -6 -52 3 -50 3 -53 -4 -18 -6 30 -9
33 -10 14 -2 -42 11 -119 20 -119 5 0 8 3 8 8 -1 4 -1 18 0 31 1 18 5 22 21
18 24 -6 55 15 47 34 -4 10 -6 9 -6 -3 -1 -19 -41 -26 -41 -8 0 6 5 9 12 8 7
-2 18 13 24 32 9 23 13 28 14 15 1 -18 2 -18 10 -3 6 10 7 25 1 40 -7 16 -10
18 -10 6z m-64 -100 c-3 -7 -5 -2 -5 12 0 14 2 19 5 13 2 -7 2 -19 0 -25z"/>
<path d="M4763 160 c0 -30 2 -43 4 -28 2 16 2 40 0 56 -2 15 -4 2 -4 -28z"/>
<path d="M3216 155 c4 -8 11 -15 16 -15 6 0 5 6 -2 15 -7 8 -14 15 -16 15 -2
0 -1 -7 2 -15z"/>
<path d="M3173 125 c0 -7 6 -11 14 -8 7 3 13 6 13 8 0 2 -6 5 -13 8 -8 3 -14
-1 -14 -8z"/>
<path d="M3183 94 c-15 -11 -15 -13 -2 -8 10 3 19 -1 22 -10 4 -9 2 -16 -4
-16 -6 0 -7 -4 -4 -10 3 -5 2 -17 -3 -26 -8 -15 -10 -15 -15 0 -4 10 -3 15 3
11 16 -10 12 11 -5 25 -12 10 -15 10 -16 -1 -4 -50 14 -68 42 -43 17 14 21 15
17 4 -4 -11 1 -16 13 -17 24 -2 24 5 2 30 -18 19 -17 19 5 6 12 -8 22 -19 22
-26 0 -7 4 -13 10 -13 5 0 3 21 -5 48 -8 26 -15 50 -15 53 0 12 -50 7 -67 -7z
m67 -34 c0 -5 -7 -7 -15 -4 -8 4 -15 8 -15 10 0 2 7 4 15 4 8 0 15 -4 15 -10z"/>
<path d="M4822 80 c0 -19 2 -27 5 -17 2 9 2 25 0 35 -3 9 -5 1 -5 -18z"/>
<path d="M3029 33 l-24 -28 28 24 c15 14 27 26 27 28 0 8 -8 1 -31 -24z"/>
</g>
</svg>
